<svg version="1.1" xmlns="http://www.w3.org/2000/svg" xmlns:xlink="http://www.w3.org/1999/xlink" width="498.40000000000003" height="761.8000000000001"><defs><linearGradient id="lJCidkFNlaZz" x1="576.5px" x2="1129.0000007152557px" y1="300px" y2="400px" gradientUnits="userSpaceOnUse"><stop offset="0" stop-color="rgb(255,193,7)" stop-opacity="1"/><stop offset="1" stop-color="rgb(211,211,211)" stop-opacity="1"/></linearGradient><linearGradient id="DPSVIhMfiEmC" x1="300px" x2="1503.0000007152557px" y1="474.50000071525574px" y2="1259.1000014305116px" gradientUnits="userSpaceOnUse"><stop offset="0" stop-color="rgb(255,193,7)" stop-opacity="1"/><stop offset="1" stop-color="rgb(211,211,211)" stop-opacity="1"/></linearGradient><linearGradient id="FXuzNqnpUHEO" x1="576.5px" x2="1129.0000007152557px" y1="566.0000014305115px" y2="400px" gradientUnits="userSpaceOnUse"><stop offset="0" stop-color="rgb(255,193,7)" stop-opacity="1"/><stop offset="1" stop-color="rgb(211,211,211)" stop-opacity="1"/></linearGradient><linearGradient id="mSsNRywgJqpy" x1="576.5px" x2="1129.0000007152557px" y1="699.0000021457672px" y2="400px" gradientUnits="userSpaceOnUse"><stop offset="0" stop-color="rgb(255,193,7)" stop-opacity="1"/><stop offset="1" stop-color="rgb(211,211,211)" stop-opacity="1"/></linearGradient><linearGradient id="FugfCFbaZxEF" x1="1503.0000007152557px" x2="300px" y1="925.7000007152558px" y2="3240.500008583069px" gradientUnits="userSpaceOnUse"><stop offset="0" stop-color="rgb(211,211,211)" stop-opacity="1"/><stop offset="1" stop-color="rgb(29,122,218)" stop-opacity="1"/></linearGradient><linearGradient id="QoZUEMITcxZP" x1="1503.0000007152557px" x2="1403.0000007152557px" y1="730.7000007152558px" y2="439px" gradientUnits="userSpaceOnUse"><stop offset="0" stop-color="rgb(211,211,211)" stop-opacity="1"/><stop offset="1" stop-color="rgb(211,211,211)" stop-opacity="1"/></linearGradient><linearGradient id="dzlStxDHencG" x1="1403.0000007152557px" x2="903.0000007152557px" y1="439px" y2="2708.500005722046px" gradientUnits="userSpaceOnUse"><stop offset="0" stop-color="rgb(211,211,211)" stop-opacity="1"/><stop offset="1" stop-color="rgb(29,122,218)" stop-opacity="1"/></linearGradient><linearGradient id="BtnIIzUggJzI" x1="1403.0000007152557px" x2="903.0000007152557px" y1="439px" y2="2309.5000035762787px" gradientUnits="userSpaceOnUse"><stop offset="0" stop-color="rgb(211,211,211)" stop-opacity="1"/><stop offset="1" stop-color="rgb(29,122,218)" stop-opacity="1"/></linearGradient><linearGradient id="QshAzDHzVQuJ" x1="1403.0000007152557px" x2="903.0000007152557px" y1="439px" y2="2841.5000064373016px" gradientUnits="userSpaceOnUse"><stop offset="0" stop-color="rgb(211,211,211)" stop-opacity="1"/><stop offset="1" stop-color="rgb(29,122,218)" stop-opacity="1"/></linearGradient><linearGradient id="vqBEvJselywc" x1="1403.0000007152557px" x2="903.0000007152557px" y1="439px" y2="3107.500007867813px" gradientUnits="userSpaceOnUse"><stop offset="0" stop-color="rgb(211,211,211)" stop-opacity="1"/><stop offset="1" stop-color="rgb(29,122,218)" stop-opacity="1"/></linearGradient><linearGradient id="NePRMFoogTFD" x1="1403.0000007152557px" x2="903.0000007152557px" y1="439px" y2="2974.5000071525574px" gradientUnits="userSpaceOnUse"><stop offset="0" stop-color="rgb(211,211,211)" stop-opacity="1"/><stop offset="1" stop-color="rgb(29,122,218)" stop-opacity="1"/></linearGradient><linearGradient id="TvkmHZdLNRAz" x1="1403.0000007152557px" x2="300px" y1="439px" y2="2043.5000021457672px" gradientUnits="userSpaceOnUse"><stop offset="0" stop-color="rgb(211,211,211)" stop-opacity="1"/><stop offset="1" stop-color="rgb(29,122,218)" stop-opacity="1"/></linearGradient><linearGradient id="QQiTKLPhNIpJ" x1="1403.0000007152557px" x2="300px" y1="439px" y2="2442.5000042915344px" gradientUnits="userSpaceOnUse"><stop offset="0" stop-color="rgb(211,211,211)" stop-opacity="1"/><stop offset="1" stop-color="rgb(29,122,218)" stop-opacity="1"/></linearGradient><linearGradient id="FEkVmCNMdfXX" x1="1403.0000007152557px" x2="903.0000007152557px" y1="439px" y2="2176.500002861023px" gradientUnits="userSpaceOnUse"><stop offset="0" stop-color="rgb(211,211,211)" stop-opacity="1"/><stop offset="1" stop-color="rgb(29,122,218)" stop-opacity="1"/></linearGradient><linearGradient id="tpVPegQapxLh" x1="1403.0000007152557px" x2="903.0000007152557px" y1="439px" y2="2043.5000021457672px" gradientUnits="userSpaceOnUse"><stop offset="0" stop-color="rgb(211,211,211)" stop-opacity="1"/><stop offset="1" stop-color="rgb(29,122,218)" stop-opacity="1"/></linearGradient><linearGradient id="EEwWvgBdgEBN" x1="1403.0000007152557px" x2="300px" y1="439px" y2="3373.5000092983246px" gradientUnits="userSpaceOnUse"><stop offset="0" stop-color="rgb(211,211,211)" stop-opacity="1"/><stop offset="1" stop-color="rgb(29,122,218)" stop-opacity="1"/></linearGradient><linearGradient id="bgzAcTREJHMh" x1="1403.0000007152557px" x2="903.0000007152557px" y1="439px" y2="2575.50000500679px" gradientUnits="userSpaceOnUse"><stop offset="0" stop-color="rgb(211,211,211)" stop-opacity="1"/><stop offset="1" stop-color="rgb(29,122,218)" stop-opacity="1"/></linearGradient><linearGradient id="tfeNfNlFpdGu" x1="1403.0000007152557px" x2="903.0000007152557px" y1="439px" y2="3240.500008583069px" gradientUnits="userSpaceOnUse"><stop offset="0" stop-color="rgb(211,211,211)" stop-opacity="1"/><stop offset="1" stop-color="rgb(29,122,218)" stop-opacity="1"/></linearGradient><linearGradient id="QfnPFatDXHev" x1="1403.0000007152557px" x2="300px" y1="439px" y2="2575.50000500679px" gradientUnits="userSpaceOnUse"><stop offset="0" stop-color="rgb(211,211,211)" stop-opacity="1"/><stop offset="1" stop-color="rgb(29,122,218)" stop-opacity="1"/></linearGradient><linearGradient id="JIaHOQIpOidv" x1="1403.0000007152557px" x2="903.0000007152557px" y1="439px" y2="3373.5000092983246px" gradientUnits="userSpaceOnUse"><stop offset="0" stop-color="rgb(211,211,211)" stop-opacity="1"/><stop offset="1" stop-color="rgb(29,122,218)" stop-opacity="1"/></linearGradient><linearGradient id="JwQxKlvTXzLp" x1="1403.0000007152557px" x2="300px" y1="439px" y2="3107.500007867813px" gradientUnits="userSpaceOnUse"><stop offset="0" stop-color="rgb(211,211,211)" stop-opacity="1"/><stop offset="1" stop-color="rgb(29,122,218)" stop-opacity="1"/></linearGradient><linearGradient id="yBOSTZTaWPEq" x1="1503.0000007152557px" x2="300px" y1="1454.1000014305116px" y2="2309.5000035762787px" gradientUnits="userSpaceOnUse"><stop offset="0" stop-color="rgb(211,211,211)" stop-opacity="1"/><stop offset="1" stop-color="rgb(29,122,218)" stop-opacity="1"/></linearGradient><linearGradient id="GUNhlhIOIMTK" x1="1503.0000007152557px" x2="300px" y1="1454.1000014305116px" y2="2841.5000064373016px" gradientUnits="userSpaceOnUse"><stop offset="0" stop-color="rgb(211,211,211)" stop-opacity="1"/><stop offset="1" stop-color="rgb(29,122,218)" stop-opacity="1"/></linearGradient><linearGradient id="OAuTcTVXmPwN" x1="1503.0000007152557px" x2="300px" y1="1454.1000014305116px" y2="2974.5000071525574px" gradientUnits="userSpaceOnUse"><stop offset="0" stop-color="rgb(211,211,211)" stop-opacity="1"/><stop offset="1" stop-color="rgb(29,122,218)" stop-opacity="1"/></linearGradient><linearGradient id="XfIGnsRCLgyT" x1="1503.0000007152557px" x2="1403.0000007152557px" y1="1259.1000014305116px" y2="439px" gradientUnits="userSpaceOnUse"><stop offset="0" stop-color="rgb(211,211,211)" stop-opacity="1"/><stop offset="1" stop-color="rgb(211,211,211)" stop-opacity="1"/></linearGradient><linearGradient id="xrakHRFoKKsu" x1="1503.0000007152557px" x2="903.0000007152557px" y1="1454.1000014305116px" y2="2442.5000042915344px" gradientUnits="userSpaceOnUse"><stop offset="0" stop-color="rgb(211,211,211)" stop-opacity="1"/><stop offset="1" stop-color="rgb(29,122,218)" stop-opacity="1"/></linearGradient></defs><g transform="translate(56.2,9.5) scale(0.2,0.2)"><path fill="rgb(244,236,255)" stroke="rgb(255,255,255)" paint-order="fill stroke markers" d=" M 964.6000003576278 -45.5 L 2200.2000007152556 -45.5 L 2200.2000007152556 -45.5 A 8 8 0 0 1 2208.2000007152556 -37.5 L 2208.2000007152556 3751.0000092983246 L 2208.2000007152556 3751.0000092983246 A 8 8 0 0 1 2200.2000007152556 3759.0000092983246 L -271 3759.0000092983246 L -271 3759.0000092983246 A 8 8 0 0 1 -279 3751.0000092983246 L -279 -37.5 L -279 -37.5 A 8 8 0 0 1 -271 -45.5 L 964.6000003576278 -45.5 Z" fill-opacity="1" stroke-opacity="1" stroke-miterlimit="10" stroke-width="2"/><text fill="rgb(0,0,0)" stroke="none" font-family="Avenir, Helvetica, Arial, sans-serif" font-size="32px" font-style="normal" font-weight="bold" text-decoration="normal" x="964.6000003576278" y="29.5" text-anchor="middle" dominant-baseline="text-after-edge" fill-opacity="1">.</text><path fill="rgb(255,255,255)" stroke="rgb(211,211,211)" paint-order="fill stroke markers" d=" M 601.5000003576279 1942.5000021457672 L 1272.5000007152557 1942.5000021457672 L 1272.5000007152557 1942.5000021457672 A 8 8 0 0 1 1280.5000007152557 1950.5000021457672 L 1280.5000007152557 3549.5000092983246 L 1280.5000007152557 3549.5000092983246 A 8 8 0 0 1 1272.5000007152557 3557.5000092983246 L -69.5 3557.5000092983246 L -69.5 3557.5000092983246 A 8 8 0 0 1 -77.5 3549.5000092983246 L -77.5 1950.5000021457672 L -77.5 1950.5000021457672 A 8 8 0 0 1 -69.5 1942.5000021457672 L 601.5000003576279 1942.5000021457672 Z" fill-opacity="1" stroke-opacity="1" stroke-miterlimit="10"/><text fill="rgb(0,0,0)" stroke="none" font-family="Avenir, Helvetica, Arial, sans-serif" font-size="32px" font-style="normal" font-weight="bold" text-decoration="normal" x="601.5000003576279" y="2017.5000021457672" text-anchor="middle" dominant-baseline="text-after-edge" fill-opacity="1">variables.tf</text><path fill="rgb(255,255,255)" stroke="rgb(211,211,211)" paint-order="fill stroke markers" d=" M 1488.1000007152556 156 L 1998.7000007152556 156 L 1998.7000007152556 156 A 8 8 0 0 1 2006.7000007152556 164 L 2006.7000007152556 1617.3000014305117 L 2006.7000007152556 1617.3000014305117 A 8 8 0 0 1 1998.7000007152556 1625.3000014305117 L 977.5000007152556 1625.3000014305117 L 977.5000007152556 1625.3000014305117 A 8 8 0 0 1 969.5000007152556 1617.3000014305117 L 969.5000007152556 164 L 969.5000007152556 164 A 8 8 0 0 1 977.5000007152556 156 L 1488.1000007152556 156 Z" fill-opacity="1" stroke-opacity="1" stroke-miterlimit="10"/><text fill="rgb(0,0,0)" stroke="none" font-family="Avenir, Helvetica, Arial, sans-serif" font-size="32px" font-style="normal" font-weight="bold" text-decoration="normal" x="1488.1000007152556" y="231" text-anchor="middle" dominant-baseline="text-after-edge" fill-opacity="1">main.tf</text><path fill="rgb(255,255,255)" stroke="rgb(211,211,211)" paint-order="fill stroke markers" d=" M 300 157.5 L 669.5 157.5 L 669.5 157.5 A 8 8 0 0 1 677.5 165.5 L 677.5 833.5000021457672 L 677.5 833.5000021457672 A 8 8 0 0 1 669.5 841.5000021457672 L -69.5 841.5000021457672 L -69.5 841.5000021457672 A 8 8 0 0 1 -77.5 833.5000021457672 L -77.5 165.5 L -77.5 165.5 A 8 8 0 0 1 -69.5 157.5 L 300 157.5 Z" fill-opacity="1" stroke-opacity="1" stroke-miterlimit="10"/><text fill="rgb(0,0,0)" stroke="none" font-family="Avenir, Helvetica, Arial, sans-serif" font-size="32px" font-style="normal" font-weight="bold" text-decoration="normal" x="300" y="232.5" text-anchor="middle" dominant-baseline="text-after-edge" fill-opacity="1">outputs.tf</text><path fill="rgb(255,255,255)" stroke="rgb(0,0,0)" paint-order="fill stroke markers" d=" M 1503.0000007152557 617.5000007152557 L 1895.2000007152558 617.5000007152557 L 1895.2000007152558 617.5000007152557 A 8 8 0 0 1 1903.2000007152558 625.5000007152557 L 1903.2000007152558 985.4000007152558 L 1903.2000007152558 985.4000007152558 A 8 8 0 0 1 1895.2000007152558 993.4000007152558 L 1110.8000007152557 993.4000007152558 L 1110.8000007152557 993.4000007152558 A 8 8 0 0 1 1102.8000007152557 985.4000007152558 L 1102.8000007152557 625.5000007152557 L 1102.8000007152557 625.5000007152557 A 8 8 0 0 1 1110.8000007152557 617.5000007152557 L 1503.0000007152557 617.5000007152557 Z" fill-opacity="1" stroke-opacity="1" stroke-miterlimit="10" stroke-width="5"/><rect fill="rgb(255,255,255)" stroke="none" x="1345.5000007152557" y="568.5000007152557" width="315" height="96" fill-opacity="1"/><text fill="rgb(0,0,0)" stroke="none" font-family="Avenir, Helvetica, Arial, sans-serif" font-size="32px" font-style="normal" font-weight="bold" text-decoration="normal" x="1503.0000007152557" y="632.5000007152557" text-anchor="middle" dominant-baseline="text-after-edge" fill-opacity="1">hcloud_snapshot</text><path fill="rgb(255,255,255)" stroke="rgb(0,0,0)" paint-order="fill stroke markers" d=" M 1403.0000007152557 305 L 1725.0000007152557 305 L 1725.0000007152557 305 A 8 8 0 0 1 1733.0000007152557 313 L 1733.0000007152557 487 L 1733.0000007152557 487 A 8 8 0 0 1 1725.0000007152557 495 L 1081.0000007152557 495 L 1081.0000007152557 495 A 8 8 0 0 1 1073.0000007152557 487 L 1073.0000007152557 313 L 1073.0000007152557 313 A 8 8 0 0 1 1081.0000007152557 305 L 1403.0000007152557 305 Z" fill-opacity="1" stroke-opacity="1" stroke-miterlimit="10" stroke-width="5"/><rect fill="rgb(255,255,255)" stroke="none" x="1266.5000007152557" y="256" width="273" height="96" fill-opacity="1"/><text fill="rgb(0,0,0)" stroke="none" font-family="Avenir, Helvetica, Arial, sans-serif" font-size="32px" font-style="normal" font-weight="bold" text-decoration="normal" x="1403.0000007152557" y="320" text-anchor="middle" dominant-baseline="text-after-edge" fill-opacity="1">hcloud_server</text><path fill="rgb(255,255,255)" stroke="rgb(0,0,0)" paint-order="fill stroke markers" d=" M 1503.0000007152557 1145.9000014305116 L 1895.2000007152558 1145.9000014305116 L 1895.2000007152558 1145.9000014305116 A 8 8 0 0 1 1903.2000007152558 1153.9000014305116 L 1903.2000007152558 1513.8000014305117 L 1903.2000007152558 1513.8000014305117 A 8 8 0 0 1 1895.2000007152558 1521.8000014305117 L 1110.8000007152557 1521.8000014305117 L 1110.8000007152557 1521.8000014305117 A 8 8 0 0 1 1102.8000007152557 1513.8000014305117 L 1102.8000007152557 1153.9000014305116 L 1102.8000007152557 1153.9000014305116 A 8 8 0 0 1 1110.8000007152557 1145.9000014305116 L 1503.0000007152557 1145.9000014305116 Z" fill-opacity="1" stroke-opacity="1" stroke-miterlimit="10" stroke-width="5"/><rect fill="rgb(255,255,255)" stroke="none" x="1297.0000007152557" y="1096.9000014305116" width="412" height="96" fill-opacity="1"/><text fill="rgb(0,0,0)" stroke="none" font-family="Avenir, Helvetica, Arial, sans-serif" font-size="32px" font-style="normal" font-weight="bold" text-decoration="normal" x="1503.0000007152557" y="1160.9000014305116" text-anchor="middle" dominant-baseline="text-after-edge" fill-opacity="1">hcloud_server_network</text><path fill="rgb(255,255,255)" stroke="rgb(0,0,0)" paint-order="fill stroke markers" d=" M 1503.0000007152557 733.2000007152558 L 1825.0000007152557 733.2000007152558 L 1825.0000007152557 733.2000007152558 A 8 8 0 0 1 1833.0000007152557 741.2000007152558 L 1833.0000007152557 915.2000007152558 L 1833.0000007152557 915.2000007152558 A 8 8 0 0 1 1825.0000007152557 923.2000007152558 L 1181.0000007152557 923.2000007152558 L 1181.0000007152557 923.2000007152558 A 8 8 0 0 1 1173.0000007152557 915.2000007152558 L 1173.0000007152557 741.2000007152558 L 1173.0000007152557 741.2000007152558 A 8 8 0 0 1 1181.0000007152557 733.2000007152558 L 1503.0000007152557 733.2000007152558 Z" fill-opacity="1" stroke-opacity="1" stroke-miterlimit="10" stroke-width="5"/><rect fill="rgb(255,255,255)" stroke="none" x="1418.0000007152557" y="684.2000007152558" width="170" height="96" fill-opacity="1"/><text fill="rgb(0,0,0)" stroke="none" font-family="Avenir, Helvetica, Arial, sans-serif" font-size="32px" font-style="normal" font-weight="bold" text-decoration="normal" x="1503.0000007152557" y="748.2000007152558" text-anchor="middle" dominant-baseline="text-after-edge" fill-opacity="1">default</text><path fill="rgb(255,255,255)" stroke="rgb(0,0,0)" paint-order="fill stroke markers" d=" M 1503.0000007152557 1261.6000014305116 L 1825.0000007152557 1261.6000014305116 L 1825.0000007152557 1261.6000014305116 A 8 8 0 0 1 1833.0000007152557 1269.6000014305116 L 1833.0000007152557 1443.6000014305116 L 1833.0000007152557 1443.6000014305116 A 8 8 0 0 1 1825.0000007152557 1451.6000014305116 L 1181.0000007152557 1451.6000014305116 L 1181.0000007152557 1451.6000014305116 A 8 8 0 0 1 1173.0000007152557 1443.6000014305116 L 1173.0000007152557 1269.6000014305116 L 1173.0000007152557 1269.6000014305116 A 8 8 0 0 1 1181.0000007152557 1261.6000014305116 L 1503.0000007152557 1261.6000014305116 Z" fill-opacity="1" stroke-opacity="1" stroke-miterlimit="10" stroke-width="5"/><rect fill="rgb(255,255,255)" stroke="none" x="1418.0000007152557" y="1212.6000014305116" width="170" height="96" fill-opacity="1"/><text fill="rgb(0,0,0)" stroke="none" font-family="Avenir, Helvetica, Arial, sans-serif" font-size="32px" font-style="normal" font-weight="bold" text-decoration="normal" x="1503.0000007152557" y="1276.6000014305116" text-anchor="middle" dominant-baseline="text-after-edge" fill-opacity="1">default</text><path fill="none" stroke="url(#lJCidkFNlaZz)" paint-order="fill stroke markers" d=" M 576.5 300 L 852.7500003576279 300 L 852.7500003576279 400 L 1129.0000007152557 400" stroke-linejoin="round" stroke-miterlimit="10" stroke-width="10"/><path fill="none" stroke="url(#DPSVIhMfiEmC)" paint-order="fill stroke markers" d=" M 300 474.50000071525574 L 300 866.8000010728837 L 1503.0000007152557 866.8000010728837 L 1503.0000007152557 1259.1000014305116" stroke-linejoin="round" stroke-miterlimit="10" stroke-width="10"/><path fill="none" stroke="url(#FXuzNqnpUHEO)" paint-order="fill stroke markers" d=" M 576.5 566.0000014305115 L 852.7500003576279 566.0000014305115 L 852.7500003576279 400 L 1129.0000007152557 400" stroke-linejoin="round" stroke-miterlimit="10" stroke-width="10"/><path fill="none" stroke="url(#mSsNRywgJqpy)" paint-order="fill stroke markers" d=" M 576.5 699.0000021457672 L 852.7500003576279 699.0000021457672 L 852.7500003576279 400 L 1129.0000007152557 400" stroke-linejoin="round" stroke-miterlimit="10" stroke-width="10"/><path fill="none" stroke="url(#FugfCFbaZxEF)" paint-order="fill stroke markers" d=" M 1503.0000007152557 925.7000007152558 L 1503.0000007152557 2083.1000046491627 L 300 2083.1000046491627 L 300 3240.500008583069" stroke-linejoin="round" stroke-miterlimit="10" stroke-width="10"/><path fill="none" stroke="url(#QoZUEMITcxZP)" paint-order="fill stroke markers" d=" M 1503.0000007152557 730.7000007152558 L 1503.0000007152557 584.8500003576279 L 1403.0000007152557 584.8500003576279 L 1403.0000007152557 439" stroke-linejoin="round" stroke-miterlimit="10" stroke-width="10"/><path fill="none" stroke="url(#dzlStxDHencG)" paint-order="fill stroke markers" d=" M 1403.0000007152557 439 L 1403.0000007152557 1573.750002861023 L 903.0000007152557 1573.750002861023 L 903.0000007152557 2708.500005722046" stroke-linejoin="round" stroke-miterlimit="10" stroke-width="10"/><path fill="none" stroke="url(#BtnIIzUggJzI)" paint-order="fill stroke markers" d=" M 1403.0000007152557 439 L 1403.0000007152557 1374.2500017881393 L 903.0000007152557 1374.2500017881393 L 903.0000007152557 2309.5000035762787" stroke-linejoin="round" stroke-miterlimit="10" stroke-width="10"/><path fill="none" stroke="url(#QshAzDHzVQuJ)" paint-order="fill stroke markers" d=" M 1403.0000007152557 439 L 1403.0000007152557 1640.2500032186508 L 903.0000007152557 1640.2500032186508 L 903.0000007152557 2841.5000064373016" stroke-linejoin="round" stroke-miterlimit="10" stroke-width="10"/><path fill="none" stroke="url(#vqBEvJselywc)" paint-order="fill stroke markers" d=" M 1403.0000007152557 439 L 1403.0000007152557 1773.2500039339066 L 903.0000007152557 1773.2500039339066 L 903.0000007152557 3107.500007867813" stroke-linejoin="round" stroke-miterlimit="10" stroke-width="10"/><path fill="none" stroke="url(#NePRMFoogTFD)" paint-order="fill stroke markers" d=" M 1403.0000007152557 439 L 1403.0000007152557 1706.7500035762787 L 903.0000007152557 1706.7500035762787 L 903.0000007152557 2974.5000071525574" stroke-linejoin="round" stroke-miterlimit="10" stroke-width="10"/><path fill="none" stroke="url(#TvkmHZdLNRAz)" paint-order="fill stroke markers" d=" M 1403.0000007152557 439 L 1403.0000007152557 1241.2500010728836 L 300 1241.2500010728836 L 300 2043.5000021457672" stroke-linejoin="round" stroke-miterlimit="10" stroke-width="10"/><path fill="none" stroke="url(#QQiTKLPhNIpJ)" paint-order="fill stroke markers" d=" M 1403.0000007152557 439 L 1403.0000007152557 1440.7500021457672 L 300 1440.7500021457672 L 300 2442.5000042915344" stroke-linejoin="round" stroke-miterlimit="10" stroke-width="10"/><path fill="none" stroke="url(#FEkVmCNMdfXX)" paint-order="fill stroke markers" d=" M 1403.0000007152557 439 L 1403.0000007152557 1307.7500014305115 L 903.0000007152557 1307.7500014305115 L 903.0000007152557 2176.500002861023" stroke-linejoin="round" stroke-miterlimit="10" stroke-width="10"/><path fill="none" stroke="url(#tpVPegQapxLh)" paint-order="fill stroke markers" d=" M 1403.0000007152557 439 L 1403.0000007152557 1241.2500010728836 L 903.0000007152557 1241.2500010728836 L 903.0000007152557 2043.5000021457672" stroke-linejoin="round" stroke-miterlimit="10" stroke-width="10"/><path fill="none" stroke="url(#EEwWvgBdgEBN)" paint-order="fill stroke markers" d=" M 1403.0000007152557 439 L 1403.0000007152557 1906.2500046491623 L 300 1906.2500046491623 L 300 3373.5000092983246" stroke-linejoin="round" stroke-miterlimit="10" stroke-width="10"/><path fill="none" stroke="url(#bgzAcTREJHMh)" paint-order="fill stroke markers" d=" M 1403.0000007152557 439 L 1403.0000007152557 1507.250002503395 L 903.0000007152557 1507.250002503395 L 903.0000007152557 2575.50000500679" stroke-linejoin="round" stroke-miterlimit="10" stroke-width="10"/><path fill="none" stroke="url(#tfeNfNlFpdGu)" paint-order="fill stroke markers" d=" M 1403.0000007152557 439 L 1403.0000007152557 1839.7500042915344 L 903.0000007152557 1839.7500042915344 L 903.0000007152557 3240.500008583069" stroke-linejoin="round" stroke-miterlimit="10" stroke-width="10"/><path fill="none" stroke="url(#QfnPFatDXHev)" paint-order="fill stroke markers" d=" M 1403.0000007152557 439 L 1403.0000007152557 1507.250002503395 L 300 1507.250002503395 L 300 2575.50000500679" stroke-linejoin="round" stroke-miterlimit="10" stroke-width="10"/><path fill="none" stroke="url(#JIaHOQIpOidv)" paint-order="fill stroke markers" d=" M 1403.0000007152557 439 L 1403.0000007152557 1906.2500046491623 L 903.0000007152557 1906.2500046491623 L 903.0000007152557 3373.5000092983246" stroke-linejoin="round" stroke-miterlimit="10" stroke-width="10"/><path fill="none" stroke="url(#JwQxKlvTXzLp)" paint-order="fill stroke markers" d=" M 1403.0000007152557 439 L 1403.0000007152557 1773.2500039339066 L 300 1773.2500039339066 L 300 3107.500007867813" stroke-linejoin="round" stroke-miterlimit="10" stroke-width="10"/><path fill="none" stroke="url(#yBOSTZTaWPEq)" paint-order="fill stroke markers" d=" M 1503.0000007152557 1454.1000014305116 L 1503.0000007152557 1881.8000025033953 L 300 1881.8000025033953 L 300 2309.5000035762787" stroke-linejoin="round" stroke-miterlimit="10" stroke-width="10"/><path fill="none" stroke="url(#GUNhlhIOIMTK)" paint-order="fill stroke markers" d=" M 1503.0000007152557 1454.1000014305116 L 1503.0000007152557 2147.8000039339067 L 300 2147.8000039339067 L 300 2841.5000064373016" stroke-linejoin="round" stroke-miterlimit="10" stroke-width="10"/><path fill="none" stroke="url(#OAuTcTVXmPwN)" paint-order="fill stroke markers" d=" M 1503.0000007152557 1454.1000014305116 L 1503.0000007152557 2214.3000042915346 L 300 2214.3000042915346 L 300 2974.5000071525574" stroke-linejoin="round" stroke-miterlimit="10" stroke-width="10"/><path fill="none" stroke="url(#XfIGnsRCLgyT)" paint-order="fill stroke markers" d=" M 1503.0000007152557 1259.1000014305116 L 1503.0000007152557 849.0500007152558 L 1403.0000007152557 849.0500007152558 L 1403.0000007152557 439" stroke-linejoin="round" stroke-miterlimit="10" stroke-width="10"/><path fill="none" stroke="url(#xrakHRFoKKsu)" paint-order="fill stroke markers" d=" M 1503.0000007152557 1454.1000014305116 L 1503.0000007152557 1948.3000028610231 L 903.0000007152557 1948.3000028610231 L 903.0000007152557 2442.5000042915344" stroke-linejoin="round" stroke-miterlimit="10" stroke-width="10"/><path fill="rgb(225,240,255)" stroke="rgb(29,122,218)" paint-order="fill stroke markers" d=" M 300 2046.0000021457672 L 566 2046.0000021457672 L 566 2046.0000021457672 A 8 8 0 0 1 574 2054.000002145767 L 574 2116.000002145767 L 574 2116.000002145767 A 8 8 0 0 1 566 2124.000002145767 L 34 2124.000002145767 L 34 2124.000002145767 A 8 8 0 0 1 26 2116.000002145767 L 26 2054.000002145767 L 26 2054.000002145767 A 8 8 0 0 1 34 2046.0000021457672 L 300 2046.0000021457672 Z" fill-opacity="1" stroke-opacity="1" stroke-miterlimit="10" stroke-width="5"/><text fill="rgb(0,0,0)" stroke="none" font-family="Avenir, Helvetica, Arial, sans-serif" font-size="32px" font-style="normal" font-weight="bold" text-decoration="normal" x="300" y="2101.000002145767" text-anchor="middle" dominant-baseline="text-after-edge" fill-opacity="1">ssh_keys</text><path fill="rgb(225,240,255)" stroke="rgb(29,122,218)" paint-order="fill stroke markers" d=" M 903.0000007152557 2046.0000021457672 L 1169.0000007152557 2046.0000021457672 L 1169.0000007152557 2046.0000021457672 A 8 8 0 0 1 1177.0000007152557 2054.000002145767 L 1177.0000007152557 2116.000002145767 L 1177.0000007152557 2116.000002145767 A 8 8 0 0 1 1169.0000007152557 2124.000002145767 L 637.0000007152557 2124.000002145767 L 637.0000007152557 2124.000002145767 A 8 8 0 0 1 629.0000007152557 2116.000002145767 L 629.0000007152557 2054.000002145767 L 629.0000007152557 2054.000002145767 A 8 8 0 0 1 637.0000007152557 2046.0000021457672 L 903.0000007152557 2046.0000021457672 Z" fill-opacity="1" stroke-opacity="1" stroke-miterlimit="10" stroke-width="5"/><text fill="rgb(0,0,0)" stroke="none" font-family="Avenir, Helvetica, Arial, sans-serif" font-size="32px" font-style="normal" font-weight="bold" text-decoration="normal" x="903.0000007152557" y="2101.000002145767" text-anchor="middle" dominant-baseline="text-after-edge" fill-opacity="1">delete_protection</text><path fill="rgb(225,240,255)" stroke="rgb(29,122,218)" paint-order="fill stroke markers" d=" M 300 2179.000002861023 L 566 2179.000002861023 L 566 2179.000002861023 A 8 8 0 0 1 574 2187.000002861023 L 574 2249.000002861023 L 574 2249.000002861023 A 8 8 0 0 1 566 2257.000002861023 L 34 2257.000002861023 L 34 2257.000002861023 A 8 8 0 0 1 26 2249.000002861023 L 26 2187.000002861023 L 26 2187.000002861023 A 8 8 0 0 1 34 2179.000002861023 L 300 2179.000002861023 Z" fill-opacity="1" stroke-opacity="1" stroke-miterlimit="10" stroke-width="5"/><text fill="rgb(0,0,0)" stroke="none" font-family="Avenir, Helvetica, Arial, sans-serif" font-size="32px" font-style="normal" font-weight="bold" text-decoration="normal" x="300" y="2234.000002861023" text-anchor="middle" dominant-baseline="text-after-edge" fill-opacity="1">create_snapshot</text><path fill="rgb(225,240,255)" stroke="rgb(29,122,218)" paint-order="fill stroke markers" d=" M 903.0000007152557 2179.000002861023 L 1169.0000007152557 2179.000002861023 L 1169.0000007152557 2179.000002861023 A 8 8 0 0 1 1177.0000007152557 2187.000002861023 L 1177.0000007152557 2249.000002861023 L 1177.0000007152557 2249.000002861023 A 8 8 0 0 1 1169.0000007152557 2257.000002861023 L 637.0000007152557 2257.000002861023 L 637.0000007152557 2257.000002861023 A 8 8 0 0 1 629.0000007152557 2249.000002861023 L 629.0000007152557 2187.000002861023 L 629.0000007152557 2187.000002861023 A 8 8 0 0 1 637.0000007152557 2179.000002861023 L 903.0000007152557 2179.000002861023 Z" fill-opacity="1" stroke-opacity="1" stroke-miterlimit="10" stroke-width="5"/><text fill="rgb(0,0,0)" stroke="none" font-family="Avenir, Helvetica, Arial, sans-serif" font-size="32px" font-style="normal" font-weight="bold" text-decoration="normal" x="903.0000007152557" y="2234.000002861023" text-anchor="middle" dominant-baseline="text-after-edge" fill-opacity="1">location</text><path fill="rgb(225,240,255)" stroke="rgb(29,122,218)" paint-order="fill stroke markers" d=" M 300 2312.0000035762787 L 566 2312.0000035762787 L 566 2312.0000035762787 A 8 8 0 0 1 574 2320.0000035762787 L 574 2382.0000035762787 L 574 2382.0000035762787 A 8 8 0 0 1 566 2390.0000035762787 L 34 2390.0000035762787 L 34 2390.0000035762787 A 8 8 0 0 1 26 2382.0000035762787 L 26 2320.0000035762787 L 26 2320.0000035762787 A 8 8 0 0 1 34 2312.0000035762787 L 300 2312.0000035762787 Z" fill-opacity="1" stroke-opacity="1" stroke-miterlimit="10" stroke-width="5"/><text fill="rgb(0,0,0)" stroke="none" font-family="Avenir, Helvetica, Arial, sans-serif" font-size="32px" font-style="normal" font-weight="bold" text-decoration="normal" x="300" y="2367.0000035762787" text-anchor="middle" dominant-baseline="text-after-edge" fill-opacity="1">alias_ips</text><path fill="rgb(225,240,255)" stroke="rgb(29,122,218)" paint-order="fill stroke markers" d=" M 903.0000007152557 2312.0000035762787 L 1169.0000007152557 2312.0000035762787 L 1169.0000007152557 2312.0000035762787 A 8 8 0 0 1 1177.0000007152557 2320.0000035762787 L 1177.0000007152557 2382.0000035762787 L 1177.0000007152557 2382.0000035762787 A 8 8 0 0 1 1169.0000007152557 2390.0000035762787 L 637.0000007152557 2390.0000035762787 L 637.0000007152557 2390.0000035762787 A 8 8 0 0 1 629.0000007152557 2382.0000035762787 L 629.0000007152557 2320.0000035762787 L 629.0000007152557 2320.0000035762787 A 8 8 0 0 1 637.0000007152557 2312.0000035762787 L 903.0000007152557 2312.0000035762787 Z" fill-opacity="1" stroke-opacity="1" stroke-miterlimit="10" stroke-width="5"/><text fill="rgb(0,0,0)" stroke="none" font-family="Avenir, Helvetica, Arial, sans-serif" font-size="32px" font-style="normal" font-weight="bold" text-decoration="normal" x="903.0000007152557" y="2367.0000035762787" text-anchor="middle" dominant-baseline="text-after-edge" fill-opacity="1">name</text><path fill="rgb(225,240,255)" stroke="rgb(29,122,218)" paint-order="fill stroke markers" d=" M 300 2445.0000042915344 L 566 2445.0000042915344 L 566 2445.0000042915344 A 8 8 0 0 1 574 2453.0000042915344 L 574 2515.0000042915344 L 574 2515.0000042915344 A 8 8 0 0 1 566 2523.0000042915344 L 34 2523.0000042915344 L 34 2523.0000042915344 A 8 8 0 0 1 26 2515.0000042915344 L 26 2453.0000042915344 L 26 2453.0000042915344 A 8 8 0 0 1 34 2445.0000042915344 L 300 2445.0000042915344 Z" fill-opacity="1" stroke-opacity="1" stroke-miterlimit="10" stroke-width="5"/><text fill="rgb(0,0,0)" stroke="none" font-family="Avenir, Helvetica, Arial, sans-serif" font-size="32px" font-style="normal" font-weight="bold" text-decoration="normal" x="300" y="2500.0000042915344" text-anchor="middle" dominant-baseline="text-after-edge" fill-opacity="1">user_data</text><path fill="rgb(225,240,255)" stroke="rgb(29,122,218)" paint-order="fill stroke markers" d=" M 903.0000007152557 2445.0000042915344 L 1169.0000007152557 2445.0000042915344 L 1169.0000007152557 2445.0000042915344 A 8 8 0 0 1 1177.0000007152557 2453.0000042915344 L 1177.0000007152557 2515.0000042915344 L 1177.0000007152557 2515.0000042915344 A 8 8 0 0 1 1169.0000007152557 2523.0000042915344 L 637.0000007152557 2523.0000042915344 L 637.0000007152557 2523.0000042915344 A 8 8 0 0 1 629.0000007152557 2515.0000042915344 L 629.0000007152557 2453.0000042915344 L 629.0000007152557 2453.0000042915344 A 8 8 0 0 1 637.0000007152557 2445.0000042915344 L 903.0000007152557 2445.0000042915344 Z" fill-opacity="1" stroke-opacity="1" stroke-miterlimit="10" stroke-width="5"/><text fill="rgb(0,0,0)" stroke="none" font-family="Avenir, Helvetica, Arial, sans-serif" font-size="32px" font-style="normal" font-weight="bold" text-decoration="normal" x="903.0000007152557" y="2500.0000042915344" text-anchor="middle" dominant-baseline="text-after-edge" fill-opacity="1">subnet_id</text><path fill="rgb(225,240,255)" stroke="rgb(29,122,218)" paint-order="fill stroke markers" d=" M 300 2578.00000500679 L 566 2578.00000500679 L 566 2578.00000500679 A 8 8 0 0 1 574 2586.00000500679 L 574 2648.00000500679 L 574 2648.00000500679 A 8 8 0 0 1 566 2656.00000500679 L 34 2656.00000500679 L 34 2656.00000500679 A 8 8 0 0 1 26 2648.00000500679 L 26 2586.00000500679 L 26 2586.00000500679 A 8 8 0 0 1 34 2578.00000500679 L 300 2578.00000500679 Z" fill-opacity="1" stroke-opacity="1" stroke-miterlimit="10" stroke-width="5"/><text fill="rgb(0,0,0)" stroke="none" font-family="Avenir, Helvetica, Arial, sans-serif" font-size="32px" font-style="normal" font-weight="bold" text-decoration="normal" x="300" y="2633.00000500679" text-anchor="middle" dominant-baseline="text-after-edge" fill-opacity="1">datacenter</text><path fill="rgb(225,240,255)" stroke="rgb(29,122,218)" paint-order="fill stroke markers" d=" M 903.0000007152557 2578.00000500679 L 1169.0000007152557 2578.00000500679 L 1169.0000007152557 2578.00000500679 A 8 8 0 0 1 1177.0000007152557 2586.00000500679 L 1177.0000007152557 2648.00000500679 L 1177.0000007152557 2648.00000500679 A 8 8 0 0 1 1169.0000007152557 2656.00000500679 L 637.0000007152557 2656.00000500679 L 637.0000007152557 2656.00000500679 A 8 8 0 0 1 629.0000007152557 2648.00000500679 L 629.0000007152557 2586.00000500679 L 629.0000007152557 2586.00000500679 A 8 8 0 0 1 637.0000007152557 2578.00000500679 L 903.0000007152557 2578.00000500679 Z" fill-opacity="1" stroke-opacity="1" stroke-miterlimit="10" stroke-width="5"/><text fill="rgb(0,0,0)" stroke="none" font-family="Avenir, Helvetica, Arial, sans-serif" font-size="32px" font-style="normal" font-weight="bold" text-decoration="normal" x="903.0000007152557" y="2633.00000500679" text-anchor="middle" dominant-baseline="text-after-edge" fill-opacity="1">iso</text><path fill="rgb(225,240,255)" stroke="rgb(29,122,218)" paint-order="fill stroke markers" d=" M 300 2711.000005722046 L 566 2711.000005722046 L 566 2711.000005722046 A 8 8 0 0 1 574 2719.000005722046 L 574 2781.000005722046 L 574 2781.000005722046 A 8 8 0 0 1 566 2789.000005722046 L 34 2789.000005722046 L 34 2789.000005722046 A 8 8 0 0 1 26 2781.000005722046 L 26 2719.000005722046 L 26 2719.000005722046 A 8 8 0 0 1 34 2711.000005722046 L 300 2711.000005722046 Z" fill-opacity="1" stroke-opacity="1" stroke-miterlimit="10" stroke-width="5"/><text fill="rgb(0,0,0)" stroke="none" font-family="Avenir, Helvetica, Arial, sans-serif" font-size="32px" font-style="normal" font-weight="bold" text-decoration="normal" x="300" y="2766.000005722046" text-anchor="middle" dominant-baseline="text-after-edge" fill-opacity="1">create_server_network</text><path fill="rgb(225,240,255)" stroke="rgb(29,122,218)" paint-order="fill stroke markers" d=" M 903.0000007152557 2711.000005722046 L 1169.0000007152557 2711.000005722046 L 1169.0000007152557 2711.000005722046 A 8 8 0 0 1 1177.0000007152557 2719.000005722046 L 1177.0000007152557 2781.000005722046 L 1177.0000007152557 2781.000005722046 A 8 8 0 0 1 1169.0000007152557 2789.000005722046 L 637.0000007152557 2789.000005722046 L 637.0000007152557 2789.000005722046 A 8 8 0 0 1 629.0000007152557 2781.000005722046 L 629.0000007152557 2719.000005722046 L 629.0000007152557 2719.000005722046 A 8 8 0 0 1 637.0000007152557 2711.000005722046 L 903.0000007152557 2711.000005722046 Z" fill-opacity="1" stroke-opacity="1" stroke-miterlimit="10" stroke-width="5"/><text fill="rgb(0,0,0)" stroke="none" font-family="Avenir, Helvetica, Arial, sans-serif" font-size="32px" font-style="normal" font-weight="bold" text-decoration="normal" x="903.0000007152557" y="2766.000005722046" text-anchor="middle" dominant-baseline="text-after-edge" fill-opacity="1">image</text><path fill="rgb(225,240,255)" stroke="rgb(29,122,218)" paint-order="fill stroke markers" d=" M 300 2844.0000064373016 L 566 2844.0000064373016 L 566 2844.0000064373016 A 8 8 0 0 1 574 2852.0000064373016 L 574 2914.0000064373016 L 574 2914.0000064373016 A 8 8 0 0 1 566 2922.0000064373016 L 34 2922.0000064373016 L 34 2922.0000064373016 A 8 8 0 0 1 26 2914.0000064373016 L 26 2852.0000064373016 L 26 2852.0000064373016 A 8 8 0 0 1 34 2844.0000064373016 L 300 2844.0000064373016 Z" fill-opacity="1" stroke-opacity="1" stroke-miterlimit="10" stroke-width="5"/><text fill="rgb(0,0,0)" stroke="none" font-family="Avenir, Helvetica, Arial, sans-serif" font-size="32px" font-style="normal" font-weight="bold" text-decoration="normal" x="300" y="2899.0000064373016" text-anchor="middle" dominant-baseline="text-after-edge" fill-opacity="1">ip</text><path fill="rgb(225,240,255)" stroke="rgb(29,122,218)" paint-order="fill stroke markers" d=" M 903.0000007152557 2844.0000064373016 L 1169.0000007152557 2844.0000064373016 L 1169.0000007152557 2844.0000064373016 A 8 8 0 0 1 1177.0000007152557 2852.0000064373016 L 1177.0000007152557 2914.0000064373016 L 1177.0000007152557 2914.0000064373016 A 8 8 0 0 1 1169.0000007152557 2922.0000064373016 L 637.0000007152557 2922.0000064373016 L 637.0000007152557 2922.0000064373016 A 8 8 0 0 1 629.0000007152557 2914.0000064373016 L 629.0000007152557 2852.0000064373016 L 629.0000007152557 2852.0000064373016 A 8 8 0 0 1 637.0000007152557 2844.0000064373016 L 903.0000007152557 2844.0000064373016 Z" fill-opacity="1" stroke-opacity="1" stroke-miterlimit="10" stroke-width="5"/><text fill="rgb(0,0,0)" stroke="none" font-family="Avenir, Helvetica, Arial, sans-serif" font-size="32px" font-style="normal" font-weight="bold" text-decoration="normal" x="903.0000007152557" y="2899.0000064373016" text-anchor="middle" dominant-baseline="text-after-edge" fill-opacity="1">rescue</text><path fill="rgb(225,240,255)" stroke="rgb(29,122,218)" paint-order="fill stroke markers" d=" M 300 2977.0000071525574 L 566 2977.0000071525574 L 566 2977.0000071525574 A 8 8 0 0 1 574 2985.0000071525574 L 574 3047.0000071525574 L 574 3047.0000071525574 A 8 8 0 0 1 566 3055.0000071525574 L 34 3055.0000071525574 L 34 3055.0000071525574 A 8 8 0 0 1 26 3047.0000071525574 L 26 2985.0000071525574 L 26 2985.0000071525574 A 8 8 0 0 1 34 2977.0000071525574 L 300 2977.0000071525574 Z" fill-opacity="1" stroke-opacity="1" stroke-miterlimit="10" stroke-width="5"/><text fill="rgb(0,0,0)" stroke="none" font-family="Avenir, Helvetica, Arial, sans-serif" font-size="32px" font-style="normal" font-weight="bold" text-decoration="normal" x="300" y="3032.0000071525574" text-anchor="middle" dominant-baseline="text-after-edge" fill-opacity="1">network_id</text><path fill="rgb(225,240,255)" stroke="rgb(29,122,218)" paint-order="fill stroke markers" d=" M 903.0000007152557 2977.0000071525574 L 1169.0000007152557 2977.0000071525574 L 1169.0000007152557 2977.0000071525574 A 8 8 0 0 1 1177.0000007152557 2985.0000071525574 L 1177.0000007152557 3047.0000071525574 L 1177.0000007152557 3047.0000071525574 A 8 8 0 0 1 1169.0000007152557 3055.0000071525574 L 637.0000007152557 3055.0000071525574 L 637.0000007152557 3055.0000071525574 A 8 8 0 0 1 629.0000007152557 3047.0000071525574 L 629.0000007152557 2985.0000071525574 L 629.0000007152557 2985.0000071525574 A 8 8 0 0 1 637.0000007152557 2977.0000071525574 L 903.0000007152557 2977.0000071525574 Z" fill-opacity="1" stroke-opacity="1" stroke-miterlimit="10" stroke-width="5"/><text fill="rgb(0,0,0)" stroke="none" font-family="Avenir, Helvetica, Arial, sans-serif" font-size="32px" font-style="normal" font-weight="bold" text-decoration="normal" x="903.0000007152557" y="3032.0000071525574" text-anchor="middle" dominant-baseline="text-after-edge" fill-opacity="1">server_type</text><path fill="rgb(225,240,255)" stroke="rgb(29,122,218)" paint-order="fill stroke markers" d=" M 300 3110.000007867813 L 566 3110.000007867813 L 566 3110.000007867813 A 8 8 0 0 1 574 3118.000007867813 L 574 3180.000007867813 L 574 3180.000007867813 A 8 8 0 0 1 566 3188.000007867813 L 34 3188.000007867813 L 34 3188.000007867813 A 8 8 0 0 1 26 3180.000007867813 L 26 3118.000007867813 L 26 3118.000007867813 A 8 8 0 0 1 34 3110.000007867813 L 300 3110.000007867813 Z" fill-opacity="1" stroke-opacity="1" stroke-miterlimit="10" stroke-width="5"/><text fill="rgb(0,0,0)" stroke="none" font-family="Avenir, Helvetica, Arial, sans-serif" font-size="32px" font-style="normal" font-weight="bold" text-decoration="normal" x="300" y="3165.000007867813" text-anchor="middle" dominant-baseline="text-after-edge" fill-opacity="1">keep_disk</text><path fill="rgb(225,240,255)" stroke="rgb(29,122,218)" paint-order="fill stroke markers" d=" M 903.0000007152557 3110.000007867813 L 1169.0000007152557 3110.000007867813 L 1169.0000007152557 3110.000007867813 A 8 8 0 0 1 1177.0000007152557 3118.000007867813 L 1177.0000007152557 3180.000007867813 L 1177.0000007152557 3180.000007867813 A 8 8 0 0 1 1169.0000007152557 3188.000007867813 L 637.0000007152557 3188.000007867813 L 637.0000007152557 3188.000007867813 A 8 8 0 0 1 629.0000007152557 3180.000007867813 L 629.0000007152557 3118.000007867813 L 629.0000007152557 3118.000007867813 A 8 8 0 0 1 637.0000007152557 3110.000007867813 L 903.0000007152557 3110.000007867813 Z" fill-opacity="1" stroke-opacity="1" stroke-miterlimit="10" stroke-width="5"/><text fill="rgb(0,0,0)" stroke="none" font-family="Avenir, Helvetica, Arial, sans-serif" font-size="32px" font-style="normal" font-weight="bold" text-decoration="normal" x="903.0000007152557" y="3165.000007867813" text-anchor="middle" dominant-baseline="text-after-edge" fill-opacity="1">backups</text><path fill="rgb(225,240,255)" stroke="rgb(29,122,218)" paint-order="fill stroke markers" d=" M 300 3243.000008583069 L 566 3243.000008583069 L 566 3243.000008583069 A 8 8 0 0 1 574 3251.000008583069 L 574 3313.000008583069 L 574 3313.000008583069 A 8 8 0 0 1 566 3321.000008583069 L 34 3321.000008583069 L 34 3321.000008583069 A 8 8 0 0 1 26 3313.000008583069 L 26 3251.000008583069 L 26 3251.000008583069 A 8 8 0 0 1 34 3243.000008583069 L 300 3243.000008583069 Z" fill-opacity="1" stroke-opacity="1" stroke-miterlimit="10" stroke-width="5"/><text fill="rgb(0,0,0)" stroke="none" font-family="Avenir, Helvetica, Arial, sans-serif" font-size="32px" font-style="normal" font-weight="bold" text-decoration="normal" x="300" y="3298.000008583069" text-anchor="middle" dominant-baseline="text-after-edge" fill-opacity="1">description</text><path fill="rgb(225,240,255)" stroke="rgb(29,122,218)" paint-order="fill stroke markers" d=" M 903.0000007152557 3243.000008583069 L 1169.0000007152557 3243.000008583069 L 1169.0000007152557 3243.000008583069 A 8 8 0 0 1 1177.0000007152557 3251.000008583069 L 1177.0000007152557 3313.000008583069 L 1177.0000007152557 3313.000008583069 A 8 8 0 0 1 1169.0000007152557 3321.000008583069 L 637.0000007152557 3321.000008583069 L 637.0000007152557 3321.000008583069 A 8 8 0 0 1 629.0000007152557 3313.000008583069 L 629.0000007152557 3251.000008583069 L 629.0000007152557 3251.000008583069 A 8 8 0 0 1 637.0000007152557 3243.000008583069 L 903.0000007152557 3243.000008583069 Z" fill-opacity="1" stroke-opacity="1" stroke-miterlimit="10" stroke-width="5"/><text fill="rgb(0,0,0)" stroke="none" font-family="Avenir, Helvetica, Arial, sans-serif" font-size="32px" font-style="normal" font-weight="bold" text-decoration="normal" x="903.0000007152557" y="3298.000008583069" text-anchor="middle" dominant-baseline="text-after-edge" fill-opacity="1">labels</text><path fill="rgb(225,240,255)" stroke="rgb(29,122,218)" paint-order="fill stroke markers" d=" M 300 3376.0000092983246 L 566 3376.0000092983246 L 566 3376.0000092983246 A 8 8 0 0 1 574 3384.0000092983246 L 574 3446.0000092983246 L 574 3446.0000092983246 A 8 8 0 0 1 566 3454.0000092983246 L 34 3454.0000092983246 L 34 3454.0000092983246 A 8 8 0 0 1 26 3446.0000092983246 L 26 3384.0000092983246 L 26 3384.0000092983246 A 8 8 0 0 1 34 3376.0000092983246 L 300 3376.0000092983246 Z" fill-opacity="1" stroke-opacity="1" stroke-miterlimit="10" stroke-width="5"/><text fill="rgb(0,0,0)" stroke="none" font-family="Avenir, Helvetica, Arial, sans-serif" font-size="32px" font-style="normal" font-weight="bold" text-decoration="normal" x="300" y="3431.0000092983246" text-anchor="middle" dominant-baseline="text-after-edge" fill-opacity="1">firewall_ids</text><path fill="rgb(225,240,255)" stroke="rgb(29,122,218)" paint-order="fill stroke markers" d=" M 903.0000007152557 3376.0000092983246 L 1169.0000007152557 3376.0000092983246 L 1169.0000007152557 3376.0000092983246 A 8 8 0 0 1 1177.0000007152557 3384.0000092983246 L 1177.0000007152557 3446.0000092983246 L 1177.0000007152557 3446.0000092983246 A 8 8 0 0 1 1169.0000007152557 3454.0000092983246 L 637.0000007152557 3454.0000092983246 L 637.0000007152557 3454.0000092983246 A 8 8 0 0 1 629.0000007152557 3446.0000092983246 L 629.0000007152557 3384.0000092983246 L 629.0000007152557 3384.0000092983246 A 8 8 0 0 1 637.0000007152557 3376.0000092983246 L 903.0000007152557 3376.0000092983246 Z" fill-opacity="1" stroke-opacity="1" stroke-miterlimit="10" stroke-width="5"/><text fill="rgb(0,0,0)" stroke="none" font-family="Avenir, Helvetica, Arial, sans-serif" font-size="32px" font-style="normal" font-weight="bold" text-decoration="normal" x="903.0000007152557" y="3431.0000092983246" text-anchor="middle" dominant-baseline="text-after-edge" fill-opacity="1">rebuild_protection</text><path fill="rgb(40,167,69)" stroke="none" paint-order="stroke fill markers" d=" M 1503.0000007152557 789.2000007152558 L 1769.0000007152557 789.2000007152558 L 1769.0000007152557 789.2000007152558 A 8 8 0 0 1 1777.0000007152557 797.2000007152558 L 1777.0000007152557 859.2000007152558 L 1777.0000007152557 859.2000007152558 A 8 8 0 0 1 1769.0000007152557 867.2000007152558 L 1237.0000007152557 867.2000007152558 L 1237.0000007152557 867.2000007152558 A 8 8 0 0 1 1229.0000007152557 859.2000007152558 L 1229.0000007152557 797.2000007152558 L 1229.0000007152557 797.2000007152558 A 8 8 0 0 1 1237.0000007152557 789.2000007152558 L 1503.0000007152557 789.2000007152558 Z" fill-opacity="1"/><text fill="rgb(255,255,255)" stroke="none" font-family="Avenir, Helvetica, Arial, sans-serif" font-size="32px" font-style="normal" font-weight="bold" text-decoration="normal" x="1503.0000007152557" y="844.2000007152558" text-anchor="middle" dominant-baseline="text-after-edge" fill-opacity="1">default[0]</text><path fill="rgb(40,167,69)" stroke="none" paint-order="stroke fill markers" d=" M 1403.0000007152557 361 L 1669.0000007152557 361 L 1669.0000007152557 361 A 8 8 0 0 1 1677.0000007152557 369 L 1677.0000007152557 431 L 1677.0000007152557 431 A 8 8 0 0 1 1669.0000007152557 439 L 1137.0000007152557 439 L 1137.0000007152557 439 A 8 8 0 0 1 1129.0000007152557 431 L 1129.0000007152557 369 L 1129.0000007152557 369 A 8 8 0 0 1 1137.0000007152557 361 L 1403.0000007152557 361 Z" fill-opacity="1"/><text fill="rgb(255,255,255)" stroke="none" font-family="Avenir, Helvetica, Arial, sans-serif" font-size="32px" font-style="normal" font-weight="bold" text-decoration="normal" x="1403.0000007152557" y="416" text-anchor="middle" dominant-baseline="text-after-edge" fill-opacity="1">default</text><path fill="rgb(40,167,69)" stroke="none" paint-order="stroke fill markers" d=" M 1503.0000007152557 1317.6000014305116 L 1769.0000007152557 1317.6000014305116 L 1769.0000007152557 1317.6000014305116 A 8 8 0 0 1 1777.0000007152557 1325.6000014305116 L 1777.0000007152557 1387.6000014305116 L 1777.0000007152557 1387.6000014305116 A 8 8 0 0 1 1769.0000007152557 1395.6000014305116 L 1237.0000007152557 1395.6000014305116 L 1237.0000007152557 1395.6000014305116 A 8 8 0 0 1 1229.0000007152557 1387.6000014305116 L 1229.0000007152557 1325.6000014305116 L 1229.0000007152557 1325.6000014305116 A 8 8 0 0 1 1237.0000007152557 1317.6000014305116 L 1503.0000007152557 1317.6000014305116 Z" fill-opacity="1"/><text fill="rgb(255,255,255)" stroke="none" font-family="Avenir, Helvetica, Arial, sans-serif" font-size="32px" font-style="normal" font-weight="bold" text-decoration="normal" x="1503.0000007152557" y="1372.6000014305116" text-anchor="middle" dominant-baseline="text-after-edge" fill-opacity="1">default[0]</text><path fill="rgb(255,247,224)" stroke="rgb(255,193,7)" paint-order="fill stroke markers" d=" M 300 261 L 566 261 L 566 261 A 8 8 0 0 1 574 269 L 574 331 L 574 331 A 8 8 0 0 1 566 339 L 34 339 L 34 339 A 8 8 0 0 1 26 331 L 26 269 L 26 269 A 8 8 0 0 1 34 261 L 300 261 Z" fill-opacity="1" stroke-opacity="1" stroke-miterlimit="10" stroke-width="5"/><text fill="rgb(0,0,0)" stroke="none" font-family="Avenir, Helvetica, Arial, sans-serif" font-size="32px" font-style="normal" font-weight="bold" text-decoration="normal" x="300" y="316" text-anchor="middle" dominant-baseline="text-after-edge" fill-opacity="1">ipv4_address_public</text><path fill="rgb(255,247,224)" stroke="rgb(255,193,7)" paint-order="fill stroke markers" d=" M 300 394.00000071525574 L 566 394.00000071525574 L 566 394.00000071525574 A 8 8 0 0 1 574 402.00000071525574 L 574 464.00000071525574 L 574 464.00000071525574 A 8 8 0 0 1 566 472.00000071525574 L 34 472.00000071525574 L 34 472.00000071525574 A 8 8 0 0 1 26 464.00000071525574 L 26 402.00000071525574 L 26 402.00000071525574 A 8 8 0 0 1 34 394.00000071525574 L 300 394.00000071525574 Z" fill-opacity="1" stroke-opacity="1" stroke-miterlimit="10" stroke-width="5"/><text fill="rgb(0,0,0)" stroke="none" font-family="Avenir, Helvetica, Arial, sans-serif" font-size="32px" font-style="normal" font-weight="bold" text-decoration="normal" x="300" y="449.00000071525574" text-anchor="middle" dominant-baseline="text-after-edge" fill-opacity="1">ipv4_address_private</text><path fill="rgb(255,247,224)" stroke="rgb(255,193,7)" paint-order="fill stroke markers" d=" M 300 527.0000014305115 L 566 527.0000014305115 L 566 527.0000014305115 A 8 8 0 0 1 574 535.0000014305115 L 574 597.0000014305115 L 574 597.0000014305115 A 8 8 0 0 1 566 605.0000014305115 L 34 605.0000014305115 L 34 605.0000014305115 A 8 8 0 0 1 26 597.0000014305115 L 26 535.0000014305115 L 26 535.0000014305115 A 8 8 0 0 1 34 527.0000014305115 L 300 527.0000014305115 Z" fill-opacity="1" stroke-opacity="1" stroke-miterlimit="10" stroke-width="5"/><text fill="rgb(0,0,0)" stroke="none" font-family="Avenir, Helvetica, Arial, sans-serif" font-size="32px" font-style="normal" font-weight="bold" text-decoration="normal" x="300" y="582.0000014305115" text-anchor="middle" dominant-baseline="text-after-edge" fill-opacity="1">id</text><path fill="rgb(255,247,224)" stroke="rgb(255,193,7)" paint-order="fill stroke markers" d=" M 300 660.0000021457672 L 566 660.0000021457672 L 566 660.0000021457672 A 8 8 0 0 1 574 668.0000021457672 L 574 730.0000021457672 L 574 730.0000021457672 A 8 8 0 0 1 566 738.0000021457672 L 34 738.0000021457672 L 34 738.0000021457672 A 8 8 0 0 1 26 730.0000021457672 L 26 668.0000021457672 L 26 668.0000021457672 A 8 8 0 0 1 34 660.0000021457672 L 300 660.0000021457672 Z" fill-opacity="1" stroke-opacity="1" stroke-miterlimit="10" stroke-width="5"/><text fill="rgb(0,0,0)" stroke="none" font-family="Avenir, Helvetica, Arial, sans-serif" font-size="32px" font-style="normal" font-weight="bold" text-decoration="normal" x="300" y="715.0000021457672" text-anchor="middle" dominant-baseline="text-after-edge" fill-opacity="1">name</text><g transform="scale(5,5) translate(-56.2,-9.5)"/></g></svg>