<svg version="1.1" xmlns="http://www.w3.org/2000/svg" xmlns:xlink="http://www.w3.org/1999/xlink" width="249.20000000000002" height="314.8"><defs><linearGradient id="MwTHUWhUbMXS" x1="1403.0000007152557px" x2="903.0000007152557px" y1="439px" y2="2712.1000078678135px" gradientUnits="userSpaceOnUse"><stop offset="0" stop-color="rgb(211,211,211)" stop-opacity="1"/><stop offset="1" stop-color="rgb(29,122,218)" stop-opacity="1"/></linearGradient><linearGradient id="LAuEvyuVfBSx" x1="1403.0000007152557px" x2="903.0000007152557px" y1="439px" y2="2446.100006437302px" gradientUnits="userSpaceOnUse"><stop offset="0" stop-color="rgb(211,211,211)" stop-opacity="1"/><stop offset="1" stop-color="rgb(29,122,218)" stop-opacity="1"/></linearGradient><linearGradient id="QkJtFtGHhTSw" x1="1403.0000007152557px" x2="903.0000007152557px" y1="439px" y2="1781.100002861023px" gradientUnits="userSpaceOnUse"><stop offset="0" stop-color="rgb(211,211,211)" stop-opacity="1"/><stop offset="1" stop-color="rgb(29,122,218)" stop-opacity="1"/></linearGradient><linearGradient id="HqrFbAghQJhx" x1="1403.0000007152557px" x2="300px" y1="439px" y2="1515.1000014305116px" gradientUnits="userSpaceOnUse"><stop offset="0" stop-color="rgb(211,211,211)" stop-opacity="1"/><stop offset="1" stop-color="rgb(29,122,218)" stop-opacity="1"/></linearGradient><linearGradient id="kAsBwXampuof" x1="1403.0000007152557px" x2="903.0000007152557px" y1="439px" y2="2313.1000057220463px" gradientUnits="userSpaceOnUse"><stop offset="0" stop-color="rgb(211,211,211)" stop-opacity="1"/><stop offset="1" stop-color="rgb(29,122,218)" stop-opacity="1"/></linearGradient><linearGradient id="BUvRRzFbOqIx" x1="1403.0000007152557px" x2="300px" y1="439px" y2="2313.1000057220463px" gradientUnits="userSpaceOnUse"><stop offset="0" stop-color="rgb(211,211,211)" stop-opacity="1"/><stop offset="1" stop-color="rgb(29,122,218)" stop-opacity="1"/></linearGradient><linearGradient id="yTssRhhQJzmz" x1="1403.0000007152557px" x2="300px" y1="439px" y2="2180.1000050067905px" gradientUnits="userSpaceOnUse"><stop offset="0" stop-color="rgb(211,211,211)" stop-opacity="1"/><stop offset="1" stop-color="rgb(29,122,218)" stop-opacity="1"/></linearGradient><linearGradient id="BxtKFofBqOwa" x1="1403.0000007152557px" x2="903.0000007152557px" y1="439px" y2="1515.1000014305116px" gradientUnits="userSpaceOnUse"><stop offset="0" stop-color="rgb(211,211,211)" stop-opacity="1"/><stop offset="1" stop-color="rgb(29,122,218)" stop-opacity="1"/></linearGradient><linearGradient id="bpFVTGlFAqSe" x1="1403.0000007152557px" x2="903.0000007152557px" y1="439px" y2="1914.1000035762788px" gradientUnits="userSpaceOnUse"><stop offset="0" stop-color="rgb(211,211,211)" stop-opacity="1"/><stop offset="1" stop-color="rgb(29,122,218)" stop-opacity="1"/></linearGradient><linearGradient id="BJwBuBFofHGo" x1="1403.0000007152557px" x2="300px" y1="439px" y2="2712.1000078678135px" gradientUnits="userSpaceOnUse"><stop offset="0" stop-color="rgb(211,211,211)" stop-opacity="1"/><stop offset="1" stop-color="rgb(29,122,218)" stop-opacity="1"/></linearGradient><linearGradient id="yBLBoHynipWi" x1="1403.0000007152557px" x2="903.0000007152557px" y1="439px" y2="2180.1000050067905px" gradientUnits="userSpaceOnUse"><stop offset="0" stop-color="rgb(211,211,211)" stop-opacity="1"/><stop offset="1" stop-color="rgb(29,122,218)" stop-opacity="1"/></linearGradient><linearGradient id="fcJhhleHBocw" x1="1403.0000007152557px" x2="903.0000007152557px" y1="439px" y2="1648.1000021457673px" gradientUnits="userSpaceOnUse"><stop offset="0" stop-color="rgb(211,211,211)" stop-opacity="1"/><stop offset="1" stop-color="rgb(29,122,218)" stop-opacity="1"/></linearGradient><linearGradient id="nPmodrSUVkWN" x1="1403.0000007152557px" x2="300px" y1="439px" y2="2446.100006437302px" gradientUnits="userSpaceOnUse"><stop offset="0" stop-color="rgb(211,211,211)" stop-opacity="1"/><stop offset="1" stop-color="rgb(29,122,218)" stop-opacity="1"/></linearGradient><linearGradient id="OGtvCHzNdIpa" x1="1403.0000007152557px" x2="903.0000007152557px" y1="439px" y2="2579.1000071525577px" gradientUnits="userSpaceOnUse"><stop offset="0" stop-color="rgb(211,211,211)" stop-opacity="1"/><stop offset="1" stop-color="rgb(29,122,218)" stop-opacity="1"/></linearGradient><linearGradient id="vauMmwGEDFaI" x1="1403.0000007152557px" x2="300px" y1="439px" y2="1781.100002861023px" gradientUnits="userSpaceOnUse"><stop offset="0" stop-color="rgb(211,211,211)" stop-opacity="1"/><stop offset="1" stop-color="rgb(29,122,218)" stop-opacity="1"/></linearGradient><linearGradient id="TiainqQuaztC" x1="1503.0000007152557px" x2="300px" y1="925.7000007152558px" y2="2579.1000071525577px" gradientUnits="userSpaceOnUse"><stop offset="0" stop-color="rgb(211,211,211)" stop-opacity="1"/><stop offset="1" stop-color="rgb(29,122,218)" stop-opacity="1"/></linearGradient><linearGradient id="fGfVFLOCQWQS" x1="1503.0000007152557px" x2="1403.0000007152557px" y1="730.7000007152558px" y2="439px" gradientUnits="userSpaceOnUse"><stop offset="0" stop-color="rgb(211,211,211)" stop-opacity="1"/><stop offset="1" stop-color="rgb(211,211,211)" stop-opacity="1"/></linearGradient><linearGradient id="ddKRZraiADwl" x1="1503.0000007152557px" x2="300px" y1="925.7000007152558px" y2="2047.1000042915348px" gradientUnits="userSpaceOnUse"><stop offset="0" stop-color="rgb(211,211,211)" stop-opacity="1"/><stop offset="1" stop-color="rgb(29,122,218)" stop-opacity="1"/></linearGradient><linearGradient id="fNEZwaRGTsRZ" x1="1503.0000007152557px" x2="300px" y1="925.7000007152558px" y2="1648.1000021457673px" gradientUnits="userSpaceOnUse"><stop offset="0" stop-color="rgb(211,211,211)" stop-opacity="1"/><stop offset="1" stop-color="rgb(29,122,218)" stop-opacity="1"/></linearGradient><linearGradient id="fDbUpVTPProZ" x1="1503.0000007152557px" x2="300px" y1="925.7000007152558px" y2="1914.1000035762788px" gradientUnits="userSpaceOnUse"><stop offset="0" stop-color="rgb(211,211,211)" stop-opacity="1"/><stop offset="1" stop-color="rgb(29,122,218)" stop-opacity="1"/></linearGradient><linearGradient id="NkPnsTfWtrRn" x1="576.5px" x2="1129.0000007152557px" y1="566.0000014305115px" y2="400px" gradientUnits="userSpaceOnUse"><stop offset="0" stop-color="rgb(255,193,7)" stop-opacity="1"/><stop offset="1" stop-color="rgb(211,211,211)" stop-opacity="1"/></linearGradient><linearGradient id="XmASmWtNwwtc" x1="576.5px" x2="1229.0000007152557px" y1="699.0000021457672px" y2="828.2000007152558px" gradientUnits="userSpaceOnUse"><stop offset="0" stop-color="rgb(255,193,7)" stop-opacity="1"/><stop offset="1" stop-color="rgb(211,211,211)" stop-opacity="1"/></linearGradient><linearGradient id="xGGTTsXtxpxQ" x1="576.5px" x2="1170.5000007152557px" y1="699.0000021457672px" y2="828.2000007152558px" gradientUnits="userSpaceOnUse"><stop offset="0" stop-color="rgb(255,193,7)" stop-opacity="1"/><stop offset="1" stop-color="rgb(211,211,211)" stop-opacity="1"/></linearGradient><linearGradient id="LALhlIgEpifa" x1="576.5px" x2="1129.0000007152557px" y1="300px" y2="400px" gradientUnits="userSpaceOnUse"><stop offset="0" stop-color="rgb(255,193,7)" stop-opacity="1"/><stop offset="1" stop-color="rgb(211,211,211)" stop-opacity="1"/></linearGradient><linearGradient id="bPRDhguKeKWb" x1="576.5px" x2="1129.0000007152557px" y1="433.00000071525574px" y2="400px" gradientUnits="userSpaceOnUse"><stop offset="0" stop-color="rgb(255,193,7)" stop-opacity="1"/><stop offset="1" stop-color="rgb(211,211,211)" stop-opacity="1"/></linearGradient></defs><g transform="translate(28.1,4.75) scale(0.1,0.1)"><path fill="rgb(244,236,255)" stroke="rgb(255,255,255)" paint-order="fill stroke markers" d=" M 964.6000003576278 -45.5 L 2200.2000007152556 -45.5 L 2200.2000007152556 -45.5 A 8 8 0 0 1 2208.2000007152556 -37.5 L 2208.2000007152556 3089.6000078678135 L 2208.2000007152556 3089.6000078678135 A 8 8 0 0 1 2200.2000007152556 3097.6000078678135 L -271 3097.6000078678135 L -271 3097.6000078678135 A 8 8 0 0 1 -279 3089.6000078678135 L -279 -37.5 L -279 -37.5 A 8 8 0 0 1 -271 -45.5 L 964.6000003576278 -45.5 Z" fill-opacity="1" stroke-opacity="1" stroke-miterlimit="10" stroke-width="2"/><text fill="rgb(0,0,0)" stroke="none" font-family="Avenir, Helvetica, Arial, sans-serif" font-size="32px" font-style="normal" font-weight="bold" text-decoration="normal" x="964.6000003576278" y="29.5" text-anchor="middle" dominant-baseline="text-after-edge" fill-opacity="1">.</text><path fill="rgb(255,255,255)" stroke="rgb(211,211,211)" paint-order="fill stroke markers" d=" M 300 157.5 L 669.5 157.5 L 669.5 157.5 A 8 8 0 0 1 677.5 165.5 L 677.5 833.5000021457672 L 677.5 833.5000021457672 A 8 8 0 0 1 669.5 841.5000021457672 L -69.5 841.5000021457672 L -69.5 841.5000021457672 A 8 8 0 0 1 -77.5 833.5000021457672 L -77.5 165.5 L -77.5 165.5 A 8 8 0 0 1 -69.5 157.5 L 300 157.5 Z" fill-opacity="1" stroke-opacity="1" stroke-miterlimit="10"/><text fill="rgb(0,0,0)" stroke="none" font-family="Avenir, Helvetica, Arial, sans-serif" font-size="32px" font-style="normal" font-weight="bold" text-decoration="normal" x="300" y="232.5" text-anchor="middle" dominant-baseline="text-after-edge" fill-opacity="1">outputs.tf</text><path fill="rgb(255,255,255)" stroke="rgb(211,211,211)" paint-order="fill stroke markers" d=" M 601.5000003576279 1414.1000014305118 L 1272.5000007152557 1414.1000014305118 L 1272.5000007152557 1414.1000014305118 A 8 8 0 0 1 1280.5000007152557 1422.1000014305118 L 1280.5000007152557 2888.1000078678135 L 1280.5000007152557 2888.1000078678135 A 8 8 0 0 1 1272.5000007152557 2896.1000078678135 L -69.5 2896.1000078678135 L -69.5 2896.1000078678135 A 8 8 0 0 1 -77.5 2888.1000078678135 L -77.5 1422.1000014305118 L -77.5 1422.1000014305118 A 8 8 0 0 1 -69.5 1414.1000014305118 L 601.5000003576279 1414.1000014305118 Z" fill-opacity="1" stroke-opacity="1" stroke-miterlimit="10"/><text fill="rgb(0,0,0)" stroke="none" font-family="Avenir, Helvetica, Arial, sans-serif" font-size="32px" font-style="normal" font-weight="bold" text-decoration="normal" x="601.5000003576279" y="1489.1000014305118" text-anchor="middle" dominant-baseline="text-after-edge" fill-opacity="1">variables.tf</text><path fill="rgb(255,255,255)" stroke="rgb(211,211,211)" paint-order="fill stroke markers" d=" M 1488.1000007152556 156 L 1998.7000007152556 156 L 1998.7000007152556 156 A 8 8 0 0 1 2006.7000007152556 164 L 2006.7000007152556 1088.9000007152558 L 2006.7000007152556 1088.9000007152558 A 8 8 0 0 1 1998.7000007152556 1096.9000007152558 L 977.5000007152556 1096.9000007152558 L 977.5000007152556 1096.9000007152558 A 8 8 0 0 1 969.5000007152556 1088.9000007152558 L 969.5000007152556 164 L 969.5000007152556 164 A 8 8 0 0 1 977.5000007152556 156 L 1488.1000007152556 156 Z" fill-opacity="1" stroke-opacity="1" stroke-miterlimit="10"/><text fill="rgb(0,0,0)" stroke="none" font-family="Avenir, Helvetica, Arial, sans-serif" font-size="32px" font-style="normal" font-weight="bold" text-decoration="normal" x="1488.1000007152556" y="231" text-anchor="middle" dominant-baseline="text-after-edge" fill-opacity="1">main.tf</text><path fill="rgb(255,255,255)" stroke="rgb(0,0,0)" paint-order="fill stroke markers" d=" M 1403.0000007152557 305 L 1725.0000007152557 305 L 1725.0000007152557 305 A 8 8 0 0 1 1733.0000007152557 313 L 1733.0000007152557 487 L 1733.0000007152557 487 A 8 8 0 0 1 1725.0000007152557 495 L 1081.0000007152557 495 L 1081.0000007152557 495 A 8 8 0 0 1 1073.0000007152557 487 L 1073.0000007152557 313 L 1073.0000007152557 313 A 8 8 0 0 1 1081.0000007152557 305 L 1403.0000007152557 305 Z" fill-opacity="1" stroke-opacity="1" stroke-miterlimit="10" stroke-width="5"/><rect fill="rgb(255,255,255)" stroke="none" x="1260.0000007152557" y="256" width="286" height="96" fill-opacity="1"/><text fill="rgb(0,0,0)" stroke="none" font-family="Avenir, Helvetica, Arial, sans-serif" font-size="32px" font-style="normal" font-weight="bold" text-decoration="normal" x="1403.0000007152557" y="320" text-anchor="middle" dominant-baseline="text-after-edge" fill-opacity="1">hcloud_server</text><path fill="rgb(255,255,255)" stroke="rgb(0,0,0)" paint-order="fill stroke markers" d=" M 1503.0000007152557 617.5000007152557 L 1895.2000007152558 617.5000007152557 L 1895.2000007152558 617.5000007152557 A 8 8 0 0 1 1903.2000007152558 625.5000007152557 L 1903.2000007152558 985.4000007152558 L 1903.2000007152558 985.4000007152558 A 8 8 0 0 1 1895.2000007152558 993.4000007152558 L 1110.8000007152557 993.4000007152558 L 1110.8000007152557 993.4000007152558 A 8 8 0 0 1 1102.8000007152557 985.4000007152558 L 1102.8000007152557 625.5000007152557 L 1102.8000007152557 625.5000007152557 A 8 8 0 0 1 1110.8000007152557 617.5000007152557 L 1503.0000007152557 617.5000007152557 Z" fill-opacity="1" stroke-opacity="1" stroke-miterlimit="10" stroke-width="5"/><rect fill="rgb(255,255,255)" stroke="none" x="1285.5000007152557" y="568.5000007152557" width="435" height="96" fill-opacity="1"/><text fill="rgb(0,0,0)" stroke="none" font-family="Avenir, Helvetica, Arial, sans-serif" font-size="32px" font-style="normal" font-weight="bold" text-decoration="normal" x="1503.0000007152557" y="632.5000007152557" text-anchor="middle" dominant-baseline="text-after-edge" fill-opacity="1">hcloud_server_network</text><path fill="rgb(255,255,255)" stroke="rgb(0,0,0)" paint-order="fill stroke markers" d=" M 1503.0000007152557 733.2000007152558 L 1825.0000007152557 733.2000007152558 L 1825.0000007152557 733.2000007152558 A 8 8 0 0 1 1833.0000007152557 741.2000007152558 L 1833.0000007152557 915.2000007152558 L 1833.0000007152557 915.2000007152558 A 8 8 0 0 1 1825.0000007152557 923.2000007152558 L 1181.0000007152557 923.2000007152558 L 1181.0000007152557 923.2000007152558 A 8 8 0 0 1 1173.0000007152557 915.2000007152558 L 1173.0000007152557 741.2000007152558 L 1173.0000007152557 741.2000007152558 A 8 8 0 0 1 1181.0000007152557 733.2000007152558 L 1503.0000007152557 733.2000007152558 Z" fill-opacity="1" stroke-opacity="1" stroke-miterlimit="10" stroke-width="5"/><rect fill="rgb(255,255,255)" stroke="none" x="1413.0000007152557" y="684.2000007152558" width="180" height="96" fill-opacity="1"/><text fill="rgb(0,0,0)" stroke="none" font-family="Avenir, Helvetica, Arial, sans-serif" font-size="32px" font-style="normal" font-weight="bold" text-decoration="normal" x="1503.0000007152557" y="748.2000007152558" text-anchor="middle" dominant-baseline="text-after-edge" fill-opacity="1">default</text><path fill="none" stroke="url(#MwTHUWhUbMXS)" paint-order="fill stroke markers" d=" M 1403.0000007152557 439 L 1403.0000007152557 1575.5500039339067 L 903.0000007152557 1575.5500039339067 L 903.0000007152557 2712.1000078678135" stroke-linejoin="round" stroke-miterlimit="10" stroke-width="10"/><path fill="none" stroke="url(#LAuEvyuVfBSx)" paint-order="fill stroke markers" d=" M 1403.0000007152557 439 L 1403.0000007152557 1442.550003218651 L 903.0000007152557 1442.550003218651 L 903.0000007152557 2446.100006437302" stroke-linejoin="round" stroke-miterlimit="10" stroke-width="10"/><path fill="none" stroke="url(#QkJtFtGHhTSw)" paint-order="fill stroke markers" d=" M 1403.0000007152557 439 L 1403.0000007152557 1110.0500014305117 L 903.0000007152557 1110.0500014305117 L 903.0000007152557 1781.100002861023" stroke-linejoin="round" stroke-miterlimit="10" stroke-width="10"/><path fill="none" stroke="url(#HqrFbAghQJhx)" paint-order="fill stroke markers" d=" M 1403.0000007152557 439 L 1403.0000007152557 977.0500007152558 L 300 977.0500007152558 L 300 1515.1000014305116" stroke-linejoin="round" stroke-miterlimit="10" stroke-width="10"/><path fill="none" stroke="url(#kAsBwXampuof)" paint-order="fill stroke markers" d=" M 1403.0000007152557 439 L 1403.0000007152557 1376.0500028610231 L 903.0000007152557 1376.0500028610231 L 903.0000007152557 2313.1000057220463" stroke-linejoin="round" stroke-miterlimit="10" stroke-width="10"/><path fill="none" stroke="url(#BUvRRzFbOqIx)" paint-order="fill stroke markers" d=" M 1403.0000007152557 439 L 1403.0000007152557 1376.0500028610231 L 300 1376.0500028610231 L 300 2313.1000057220463" stroke-linejoin="round" stroke-miterlimit="10" stroke-width="10"/><path fill="none" stroke="url(#yTssRhhQJzmz)" paint-order="fill stroke markers" d=" M 1403.0000007152557 439 L 1403.0000007152557 1309.5500025033953 L 300 1309.5500025033953 L 300 2180.1000050067905" stroke-linejoin="round" stroke-miterlimit="10" stroke-width="10"/><path fill="none" stroke="url(#BxtKFofBqOwa)" paint-order="fill stroke markers" d=" M 1403.0000007152557 439 L 1403.0000007152557 977.0500007152558 L 903.0000007152557 977.0500007152558 L 903.0000007152557 1515.1000014305116" stroke-linejoin="round" stroke-miterlimit="10" stroke-width="10"/><path fill="none" stroke="url(#bpFVTGlFAqSe)" paint-order="fill stroke markers" d=" M 1403.0000007152557 439 L 1403.0000007152557 1176.5500017881395 L 903.0000007152557 1176.5500017881395 L 903.0000007152557 1914.1000035762788" stroke-linejoin="round" stroke-miterlimit="10" stroke-width="10"/><path fill="none" stroke="url(#BJwBuBFofHGo)" paint-order="fill stroke markers" d=" M 1403.0000007152557 439 L 1403.0000007152557 1575.5500039339067 L 300 1575.5500039339067 L 300 2712.1000078678135" stroke-linejoin="round" stroke-miterlimit="10" stroke-width="10"/><path fill="none" stroke="url(#yBLBoHynipWi)" paint-order="fill stroke markers" d=" M 1403.0000007152557 439 L 1403.0000007152557 1309.5500025033953 L 903.0000007152557 1309.5500025033953 L 903.0000007152557 2180.1000050067905" stroke-linejoin="round" stroke-miterlimit="10" stroke-width="10"/><path fill="none" stroke="url(#fcJhhleHBocw)" paint-order="fill stroke markers" d=" M 1403.0000007152557 439 L 1403.0000007152557 1043.5500010728838 L 903.0000007152557 1043.5500010728838 L 903.0000007152557 1648.1000021457673" stroke-linejoin="round" stroke-miterlimit="10" stroke-width="10"/><path fill="none" stroke="url(#nPmodrSUVkWN)" paint-order="fill stroke markers" d=" M 1403.0000007152557 439 L 1403.0000007152557 1442.550003218651 L 300 1442.550003218651 L 300 2446.100006437302" stroke-linejoin="round" stroke-miterlimit="10" stroke-width="10"/><path fill="none" stroke="url(#OGtvCHzNdIpa)" paint-order="fill stroke markers" d=" M 1403.0000007152557 439 L 1403.0000007152557 1509.0500035762789 L 903.0000007152557 1509.0500035762789 L 903.0000007152557 2579.1000071525577" stroke-linejoin="round" stroke-miterlimit="10" stroke-width="10"/><path fill="none" stroke="url(#vauMmwGEDFaI)" paint-order="fill stroke markers" d=" M 1403.0000007152557 439 L 1403.0000007152557 1110.0500014305117 L 300 1110.0500014305117 L 300 1781.100002861023" stroke-linejoin="round" stroke-miterlimit="10" stroke-width="10"/><path fill="none" stroke="url(#TiainqQuaztC)" paint-order="fill stroke markers" d=" M 1503.0000007152557 925.7000007152558 L 1503.0000007152557 1752.4000039339066 L 300 1752.4000039339066 L 300 2579.1000071525577" stroke-linejoin="round" stroke-miterlimit="10" stroke-width="10"/><path fill="none" stroke="url(#fGfVFLOCQWQS)" paint-order="fill stroke markers" d=" M 1503.0000007152557 730.7000007152558 L 1503.0000007152557 584.8500003576279 L 1403.0000007152557 584.8500003576279 L 1403.0000007152557 439" stroke-linejoin="round" stroke-miterlimit="10" stroke-width="10"/><path fill="none" stroke="url(#ddKRZraiADwl)" paint-order="fill stroke markers" d=" M 1503.0000007152557 925.7000007152558 L 1503.0000007152557 1486.4000025033952 L 300 1486.4000025033952 L 300 2047.1000042915348" stroke-linejoin="round" stroke-miterlimit="10" stroke-width="10"/><path fill="none" stroke="url(#fNEZwaRGTsRZ)" paint-order="fill stroke markers" d=" M 1503.0000007152557 925.7000007152558 L 1503.0000007152557 1286.9000014305116 L 300 1286.9000014305116 L 300 1648.1000021457673" stroke-linejoin="round" stroke-miterlimit="10" stroke-width="10"/><path fill="none" stroke="url(#fDbUpVTPProZ)" paint-order="fill stroke markers" d=" M 1503.0000007152557 925.7000007152558 L 1503.0000007152557 1419.9000021457673 L 300 1419.9000021457673 L 300 1914.1000035762788" stroke-linejoin="round" stroke-miterlimit="10" stroke-width="10"/><path fill="none" stroke="url(#NkPnsTfWtrRn)" paint-order="fill stroke markers" d=" M 576.5 566.0000014305115 L 852.7500003576279 566.0000014305115 L 852.7500003576279 400 L 1129.0000007152557 400" stroke-linejoin="round" stroke-miterlimit="10" stroke-width="10"/><path fill="none" stroke="url(#XmASmWtNwwtc)" paint-order="fill stroke markers" d=" M 576.5 699.0000021457672 L 902.7500003576279 699.0000021457672 L 902.7500003576279 828.2000007152558 L 1229.0000007152557 828.2000007152558" stroke-linejoin="round" stroke-miterlimit="10" stroke-width="10"/><path fill="none" stroke="url(#xGGTTsXtxpxQ)" paint-order="fill stroke markers" d=" M 576.5 699.0000021457672 L 873.5000003576279 699.0000021457672 L 873.5000003576279 828.2000007152558 L 1170.5000007152557 828.2000007152558" stroke-linejoin="round" stroke-miterlimit="10" stroke-width="10"/><path fill="none" stroke="url(#LALhlIgEpifa)" paint-order="fill stroke markers" d=" M 576.5 300 L 852.7500003576279 300 L 852.7500003576279 400 L 1129.0000007152557 400" stroke-linejoin="round" stroke-miterlimit="10" stroke-width="10"/><path fill="none" stroke="url(#bPRDhguKeKWb)" paint-order="fill stroke markers" d=" M 576.5 433.00000071525574 L 852.7500003576279 433.00000071525574 L 852.7500003576279 400 L 1129.0000007152557 400" stroke-linejoin="round" stroke-miterlimit="10" stroke-width="10"/><path fill="rgb(255,247,224)" stroke="rgb(255,193,7)" paint-order="fill stroke markers" d=" M 300 261 L 566 261 L 566 261 A 8 8 0 0 1 574 269 L 574 331 L 574 331 A 8 8 0 0 1 566 339 L 34 339 L 34 339 A 8 8 0 0 1 26 331 L 26 269 L 26 269 A 8 8 0 0 1 34 261 L 300 261 Z" fill-opacity="1" stroke-opacity="1" stroke-miterlimit="10" stroke-width="5"/><text fill="rgb(0,0,0)" stroke="none" font-family="Avenir, Helvetica, Arial, sans-serif" font-size="32px" font-style="normal" font-weight="bold" text-decoration="normal" x="300" y="316" text-anchor="middle" dominant-baseline="text-after-edge" fill-opacity="1">id</text><path fill="rgb(255,247,224)" stroke="rgb(255,193,7)" paint-order="fill stroke markers" d=" M 300 394.00000071525574 L 566 394.00000071525574 L 566 394.00000071525574 A 8 8 0 0 1 574 402.00000071525574 L 574 464.00000071525574 L 574 464.00000071525574 A 8 8 0 0 1 566 472.00000071525574 L 34 472.00000071525574 L 34 472.00000071525574 A 8 8 0 0 1 26 464.00000071525574 L 26 402.00000071525574 L 26 402.00000071525574 A 8 8 0 0 1 34 394.00000071525574 L 300 394.00000071525574 Z" fill-opacity="1" stroke-opacity="1" stroke-miterlimit="10" stroke-width="5"/><text fill="rgb(0,0,0)" stroke="none" font-family="Avenir, Helvetica, Arial, sans-serif" font-size="32px" font-style="normal" font-weight="bold" text-decoration="normal" x="300" y="449.00000071525574" text-anchor="middle" dominant-baseline="text-after-edge" fill-opacity="1">name</text><path fill="rgb(255,247,224)" stroke="rgb(255,193,7)" paint-order="fill stroke markers" d=" M 300 527.0000014305115 L 566 527.0000014305115 L 566 527.0000014305115 A 8 8 0 0 1 574 535.0000014305115 L 574 597.0000014305115 L 574 597.0000014305115 A 8 8 0 0 1 566 605.0000014305115 L 34 605.0000014305115 L 34 605.0000014305115 A 8 8 0 0 1 26 597.0000014305115 L 26 535.0000014305115 L 26 535.0000014305115 A 8 8 0 0 1 34 527.0000014305115 L 300 527.0000014305115 Z" fill-opacity="1" stroke-opacity="1" stroke-miterlimit="10" stroke-width="5"/><text fill="rgb(0,0,0)" stroke="none" font-family="Avenir, Helvetica, Arial, sans-serif" font-size="32px" font-style="normal" font-weight="bold" text-decoration="normal" x="300" y="582.0000014305115" text-anchor="middle" dominant-baseline="text-after-edge" fill-opacity="1">ipv4_address_public</text><path fill="rgb(255,247,224)" stroke="rgb(255,193,7)" paint-order="fill stroke markers" d=" M 300 660.0000021457672 L 566 660.0000021457672 L 566 660.0000021457672 A 8 8 0 0 1 574 668.0000021457672 L 574 730.0000021457672 L 574 730.0000021457672 A 8 8 0 0 1 566 738.0000021457672 L 34 738.0000021457672 L 34 738.0000021457672 A 8 8 0 0 1 26 730.0000021457672 L 26 668.0000021457672 L 26 668.0000021457672 A 8 8 0 0 1 34 660.0000021457672 L 300 660.0000021457672 Z" fill-opacity="1" stroke-opacity="1" stroke-miterlimit="10" stroke-width="5"/><text fill="rgb(0,0,0)" stroke="none" font-family="Avenir, Helvetica, Arial, sans-serif" font-size="32px" font-style="normal" font-weight="bold" text-decoration="normal" x="300" y="715.0000021457672" text-anchor="middle" dominant-baseline="text-after-edge" fill-opacity="1">ipv4_address_private</text><path fill="rgb(225,240,255)" stroke="rgb(29,122,218)" paint-order="fill stroke markers" d=" M 300 1517.6000014305116 L 566 1517.6000014305116 L 566 1517.6000014305116 A 8 8 0 0 1 574 1525.6000014305116 L 574 1587.6000014305116 L 574 1587.6000014305116 A 8 8 0 0 1 566 1595.6000014305116 L 34 1595.6000014305116 L 34 1595.6000014305116 A 8 8 0 0 1 26 1587.6000014305116 L 26 1525.6000014305116 L 26 1525.6000014305116 A 8 8 0 0 1 34 1517.6000014305116 L 300 1517.6000014305116 Z" fill-opacity="1" stroke-opacity="1" stroke-miterlimit="10" stroke-width="5"/><text fill="rgb(0,0,0)" stroke="none" font-family="Avenir, Helvetica, Arial, sans-serif" font-size="32px" font-style="normal" font-weight="bold" text-decoration="normal" x="300" y="1572.6000014305116" text-anchor="middle" dominant-baseline="text-after-edge" fill-opacity="1">delete_protection</text><path fill="rgb(225,240,255)" stroke="rgb(29,122,218)" paint-order="fill stroke markers" d=" M 903.0000007152557 1517.6000014305116 L 1169.0000007152557 1517.6000014305116 L 1169.0000007152557 1517.6000014305116 A 8 8 0 0 1 1177.0000007152557 1525.6000014305116 L 1177.0000007152557 1587.6000014305116 L 1177.0000007152557 1587.6000014305116 A 8 8 0 0 1 1169.0000007152557 1595.6000014305116 L 637.0000007152557 1595.6000014305116 L 637.0000007152557 1595.6000014305116 A 8 8 0 0 1 629.0000007152557 1587.6000014305116 L 629.0000007152557 1525.6000014305116 L 629.0000007152557 1525.6000014305116 A 8 8 0 0 1 637.0000007152557 1517.6000014305116 L 903.0000007152557 1517.6000014305116 Z" fill-opacity="1" stroke-opacity="1" stroke-miterlimit="10" stroke-width="5"/><text fill="rgb(0,0,0)" stroke="none" font-family="Avenir, Helvetica, Arial, sans-serif" font-size="32px" font-style="normal" font-weight="bold" text-decoration="normal" x="903.0000007152557" y="1572.6000014305116" text-anchor="middle" dominant-baseline="text-after-edge" fill-opacity="1">rescue</text><path fill="rgb(225,240,255)" stroke="rgb(29,122,218)" paint-order="fill stroke markers" d=" M 300 1650.6000021457673 L 566 1650.6000021457673 L 566 1650.6000021457673 A 8 8 0 0 1 574 1658.6000021457673 L 574 1720.6000021457673 L 574 1720.6000021457673 A 8 8 0 0 1 566 1728.6000021457673 L 34 1728.6000021457673 L 34 1728.6000021457673 A 8 8 0 0 1 26 1720.6000021457673 L 26 1658.6000021457673 L 26 1658.6000021457673 A 8 8 0 0 1 34 1650.6000021457673 L 300 1650.6000021457673 Z" fill-opacity="1" stroke-opacity="1" stroke-miterlimit="10" stroke-width="5"/><text fill="rgb(0,0,0)" stroke="none" font-family="Avenir, Helvetica, Arial, sans-serif" font-size="32px" font-style="normal" font-weight="bold" text-decoration="normal" x="300" y="1705.6000021457673" text-anchor="middle" dominant-baseline="text-after-edge" fill-opacity="1">alias_ips</text><path fill="rgb(225,240,255)" stroke="rgb(29,122,218)" paint-order="fill stroke markers" d=" M 903.0000007152557 1650.6000021457673 L 1169.0000007152557 1650.6000021457673 L 1169.0000007152557 1650.6000021457673 A 8 8 0 0 1 1177.0000007152557 1658.6000021457673 L 1177.0000007152557 1720.6000021457673 L 1177.0000007152557 1720.6000021457673 A 8 8 0 0 1 1169.0000007152557 1728.6000021457673 L 637.0000007152557 1728.6000021457673 L 637.0000007152557 1728.6000021457673 A 8 8 0 0 1 629.0000007152557 1720.6000021457673 L 629.0000007152557 1658.6000021457673 L 629.0000007152557 1658.6000021457673 A 8 8 0 0 1 637.0000007152557 1650.6000021457673 L 903.0000007152557 1650.6000021457673 Z" fill-opacity="1" stroke-opacity="1" stroke-miterlimit="10" stroke-width="5"/><text fill="rgb(0,0,0)" stroke="none" font-family="Avenir, Helvetica, Arial, sans-serif" font-size="32px" font-style="normal" font-weight="bold" text-decoration="normal" x="903.0000007152557" y="1705.6000021457673" text-anchor="middle" dominant-baseline="text-after-edge" fill-opacity="1">ssh_keys</text><path fill="rgb(225,240,255)" stroke="rgb(29,122,218)" paint-order="fill stroke markers" d=" M 300 1783.600002861023 L 566 1783.600002861023 L 566 1783.600002861023 A 8 8 0 0 1 574 1791.600002861023 L 574 1853.600002861023 L 574 1853.600002861023 A 8 8 0 0 1 566 1861.600002861023 L 34 1861.600002861023 L 34 1861.600002861023 A 8 8 0 0 1 26 1853.600002861023 L 26 1791.600002861023 L 26 1791.600002861023 A 8 8 0 0 1 34 1783.600002861023 L 300 1783.600002861023 Z" fill-opacity="1" stroke-opacity="1" stroke-miterlimit="10" stroke-width="5"/><text fill="rgb(0,0,0)" stroke="none" font-family="Avenir, Helvetica, Arial, sans-serif" font-size="32px" font-style="normal" font-weight="bold" text-decoration="normal" x="300" y="1838.600002861023" text-anchor="middle" dominant-baseline="text-after-edge" fill-opacity="1">rebuild_protection</text><path fill="rgb(225,240,255)" stroke="rgb(29,122,218)" paint-order="fill stroke markers" d=" M 903.0000007152557 1783.600002861023 L 1169.0000007152557 1783.600002861023 L 1169.0000007152557 1783.600002861023 A 8 8 0 0 1 1177.0000007152557 1791.600002861023 L 1177.0000007152557 1853.600002861023 L 1177.0000007152557 1853.600002861023 A 8 8 0 0 1 1169.0000007152557 1861.600002861023 L 637.0000007152557 1861.600002861023 L 637.0000007152557 1861.600002861023 A 8 8 0 0 1 629.0000007152557 1853.600002861023 L 629.0000007152557 1791.600002861023 L 629.0000007152557 1791.600002861023 A 8 8 0 0 1 637.0000007152557 1783.600002861023 L 903.0000007152557 1783.600002861023 Z" fill-opacity="1" stroke-opacity="1" stroke-miterlimit="10" stroke-width="5"/><text fill="rgb(0,0,0)" stroke="none" font-family="Avenir, Helvetica, Arial, sans-serif" font-size="32px" font-style="normal" font-weight="bold" text-decoration="normal" x="903.0000007152557" y="1838.600002861023" text-anchor="middle" dominant-baseline="text-after-edge" fill-opacity="1">backups</text><path fill="rgb(225,240,255)" stroke="rgb(29,122,218)" paint-order="fill stroke markers" d=" M 300 1916.6000035762788 L 566 1916.6000035762788 L 566 1916.6000035762788 A 8 8 0 0 1 574 1924.6000035762788 L 574 1986.6000035762788 L 574 1986.6000035762788 A 8 8 0 0 1 566 1994.6000035762788 L 34 1994.6000035762788 L 34 1994.6000035762788 A 8 8 0 0 1 26 1986.6000035762788 L 26 1924.6000035762788 L 26 1924.6000035762788 A 8 8 0 0 1 34 1916.6000035762788 L 300 1916.6000035762788 Z" fill-opacity="1" stroke-opacity="1" stroke-miterlimit="10" stroke-width="5"/><text fill="rgb(0,0,0)" stroke="none" font-family="Avenir, Helvetica, Arial, sans-serif" font-size="32px" font-style="normal" font-weight="bold" text-decoration="normal" x="300" y="1971.6000035762788" text-anchor="middle" dominant-baseline="text-after-edge" fill-opacity="1">ip</text><path fill="rgb(225,240,255)" stroke="rgb(29,122,218)" paint-order="fill stroke markers" d=" M 903.0000007152557 1916.6000035762788 L 1169.0000007152557 1916.6000035762788 L 1169.0000007152557 1916.6000035762788 A 8 8 0 0 1 1177.0000007152557 1924.6000035762788 L 1177.0000007152557 1986.6000035762788 L 1177.0000007152557 1986.6000035762788 A 8 8 0 0 1 1169.0000007152557 1994.6000035762788 L 637.0000007152557 1994.6000035762788 L 637.0000007152557 1994.6000035762788 A 8 8 0 0 1 629.0000007152557 1986.6000035762788 L 629.0000007152557 1924.6000035762788 L 629.0000007152557 1924.6000035762788 A 8 8 0 0 1 637.0000007152557 1916.6000035762788 L 903.0000007152557 1916.6000035762788 Z" fill-opacity="1" stroke-opacity="1" stroke-miterlimit="10" stroke-width="5"/><text fill="rgb(0,0,0)" stroke="none" font-family="Avenir, Helvetica, Arial, sans-serif" font-size="32px" font-style="normal" font-weight="bold" text-decoration="normal" x="903.0000007152557" y="1971.6000035762788" text-anchor="middle" dominant-baseline="text-after-edge" fill-opacity="1">server_type</text><path fill="rgb(225,240,255)" stroke="rgb(29,122,218)" paint-order="fill stroke markers" d=" M 300 2049.600004291535 L 566 2049.600004291535 L 566 2049.600004291535 A 8 8 0 0 1 574 2057.600004291535 L 574 2119.600004291535 L 574 2119.600004291535 A 8 8 0 0 1 566 2127.600004291535 L 34 2127.600004291535 L 34 2127.600004291535 A 8 8 0 0 1 26 2119.600004291535 L 26 2057.600004291535 L 26 2057.600004291535 A 8 8 0 0 1 34 2049.600004291535 L 300 2049.600004291535 Z" fill-opacity="1" stroke-opacity="1" stroke-miterlimit="10" stroke-width="5"/><text fill="rgb(0,0,0)" stroke="none" font-family="Avenir, Helvetica, Arial, sans-serif" font-size="32px" font-style="normal" font-weight="bold" text-decoration="normal" x="300" y="2104.600004291535" text-anchor="middle" dominant-baseline="text-after-edge" fill-opacity="1">subnet_id</text><path fill="rgb(225,240,255)" stroke="rgb(29,122,218)" paint-order="fill stroke markers" d=" M 903.0000007152557 2049.600004291535 L 1169.0000007152557 2049.600004291535 L 1169.0000007152557 2049.600004291535 A 8 8 0 0 1 1177.0000007152557 2057.600004291535 L 1177.0000007152557 2119.600004291535 L 1177.0000007152557 2119.600004291535 A 8 8 0 0 1 1169.0000007152557 2127.600004291535 L 637.0000007152557 2127.600004291535 L 637.0000007152557 2127.600004291535 A 8 8 0 0 1 629.0000007152557 2119.600004291535 L 629.0000007152557 2057.600004291535 L 629.0000007152557 2057.600004291535 A 8 8 0 0 1 637.0000007152557 2049.600004291535 L 903.0000007152557 2049.600004291535 Z" fill-opacity="1" stroke-opacity="1" stroke-miterlimit="10" stroke-width="5"/><text fill="rgb(0,0,0)" stroke="none" font-family="Avenir, Helvetica, Arial, sans-serif" font-size="32px" font-style="normal" font-weight="bold" text-decoration="normal" x="903.0000007152557" y="2104.600004291535" text-anchor="middle" dominant-baseline="text-after-edge" fill-opacity="1">create_server_network</text><path fill="rgb(225,240,255)" stroke="rgb(29,122,218)" paint-order="fill stroke markers" d=" M 300 2182.6000050067905 L 566 2182.6000050067905 L 566 2182.6000050067905 A 8 8 0 0 1 574 2190.6000050067905 L 574 2252.6000050067905 L 574 2252.6000050067905 A 8 8 0 0 1 566 2260.6000050067905 L 34 2260.6000050067905 L 34 2260.6000050067905 A 8 8 0 0 1 26 2252.6000050067905 L 26 2190.6000050067905 L 26 2190.6000050067905 A 8 8 0 0 1 34 2182.6000050067905 L 300 2182.6000050067905 Z" fill-opacity="1" stroke-opacity="1" stroke-miterlimit="10" stroke-width="5"/><text fill="rgb(0,0,0)" stroke="none" font-family="Avenir, Helvetica, Arial, sans-serif" font-size="32px" font-style="normal" font-weight="bold" text-decoration="normal" x="300" y="2237.6000050067905" text-anchor="middle" dominant-baseline="text-after-edge" fill-opacity="1">labels</text><path fill="rgb(225,240,255)" stroke="rgb(29,122,218)" paint-order="fill stroke markers" d=" M 903.0000007152557 2182.6000050067905 L 1169.0000007152557 2182.6000050067905 L 1169.0000007152557 2182.6000050067905 A 8 8 0 0 1 1177.0000007152557 2190.6000050067905 L 1177.0000007152557 2252.6000050067905 L 1177.0000007152557 2252.6000050067905 A 8 8 0 0 1 1169.0000007152557 2260.6000050067905 L 637.0000007152557 2260.6000050067905 L 637.0000007152557 2260.6000050067905 A 8 8 0 0 1 629.0000007152557 2252.6000050067905 L 629.0000007152557 2190.6000050067905 L 629.0000007152557 2190.6000050067905 A 8 8 0 0 1 637.0000007152557 2182.6000050067905 L 903.0000007152557 2182.6000050067905 Z" fill-opacity="1" stroke-opacity="1" stroke-miterlimit="10" stroke-width="5"/><text fill="rgb(0,0,0)" stroke="none" font-family="Avenir, Helvetica, Arial, sans-serif" font-size="32px" font-style="normal" font-weight="bold" text-decoration="normal" x="903.0000007152557" y="2237.6000050067905" text-anchor="middle" dominant-baseline="text-after-edge" fill-opacity="1">image</text><path fill="rgb(225,240,255)" stroke="rgb(29,122,218)" paint-order="fill stroke markers" d=" M 300 2315.6000057220463 L 566 2315.6000057220463 L 566 2315.6000057220463 A 8 8 0 0 1 574 2323.6000057220463 L 574 2385.6000057220463 L 574 2385.6000057220463 A 8 8 0 0 1 566 2393.6000057220463 L 34 2393.6000057220463 L 34 2393.6000057220463 A 8 8 0 0 1 26 2385.6000057220463 L 26 2323.6000057220463 L 26 2323.6000057220463 A 8 8 0 0 1 34 2315.6000057220463 L 300 2315.6000057220463 Z" fill-opacity="1" stroke-opacity="1" stroke-miterlimit="10" stroke-width="5"/><text fill="rgb(0,0,0)" stroke="none" font-family="Avenir, Helvetica, Arial, sans-serif" font-size="32px" font-style="normal" font-weight="bold" text-decoration="normal" x="300" y="2370.6000057220463" text-anchor="middle" dominant-baseline="text-after-edge" fill-opacity="1">iso</text><path fill="rgb(225,240,255)" stroke="rgb(29,122,218)" paint-order="fill stroke markers" d=" M 903.0000007152557 2315.6000057220463 L 1169.0000007152557 2315.6000057220463 L 1169.0000007152557 2315.6000057220463 A 8 8 0 0 1 1177.0000007152557 2323.6000057220463 L 1177.0000007152557 2385.6000057220463 L 1177.0000007152557 2385.6000057220463 A 8 8 0 0 1 1169.0000007152557 2393.6000057220463 L 637.0000007152557 2393.6000057220463 L 637.0000007152557 2393.6000057220463 A 8 8 0 0 1 629.0000007152557 2385.6000057220463 L 629.0000007152557 2323.6000057220463 L 629.0000007152557 2323.6000057220463 A 8 8 0 0 1 637.0000007152557 2315.6000057220463 L 903.0000007152557 2315.6000057220463 Z" fill-opacity="1" stroke-opacity="1" stroke-miterlimit="10" stroke-width="5"/><text fill="rgb(0,0,0)" stroke="none" font-family="Avenir, Helvetica, Arial, sans-serif" font-size="32px" font-style="normal" font-weight="bold" text-decoration="normal" x="903.0000007152557" y="2370.6000057220463" text-anchor="middle" dominant-baseline="text-after-edge" fill-opacity="1">firewall_ids</text><path fill="rgb(225,240,255)" stroke="rgb(29,122,218)" paint-order="fill stroke markers" d=" M 300 2448.600006437302 L 566 2448.600006437302 L 566 2448.600006437302 A 8 8 0 0 1 574 2456.600006437302 L 574 2518.600006437302 L 574 2518.600006437302 A 8 8 0 0 1 566 2526.600006437302 L 34 2526.600006437302 L 34 2526.600006437302 A 8 8 0 0 1 26 2518.600006437302 L 26 2456.600006437302 L 26 2456.600006437302 A 8 8 0 0 1 34 2448.600006437302 L 300 2448.600006437302 Z" fill-opacity="1" stroke-opacity="1" stroke-miterlimit="10" stroke-width="5"/><text fill="rgb(0,0,0)" stroke="none" font-family="Avenir, Helvetica, Arial, sans-serif" font-size="32px" font-style="normal" font-weight="bold" text-decoration="normal" x="300" y="2503.600006437302" text-anchor="middle" dominant-baseline="text-after-edge" fill-opacity="1">keep_disk</text><path fill="rgb(225,240,255)" stroke="rgb(29,122,218)" paint-order="fill stroke markers" d=" M 903.0000007152557 2448.600006437302 L 1169.0000007152557 2448.600006437302 L 1169.0000007152557 2448.600006437302 A 8 8 0 0 1 1177.0000007152557 2456.600006437302 L 1177.0000007152557 2518.600006437302 L 1177.0000007152557 2518.600006437302 A 8 8 0 0 1 1169.0000007152557 2526.600006437302 L 637.0000007152557 2526.600006437302 L 637.0000007152557 2526.600006437302 A 8 8 0 0 1 629.0000007152557 2518.600006437302 L 629.0000007152557 2456.600006437302 L 629.0000007152557 2456.600006437302 A 8 8 0 0 1 637.0000007152557 2448.600006437302 L 903.0000007152557 2448.600006437302 Z" fill-opacity="1" stroke-opacity="1" stroke-miterlimit="10" stroke-width="5"/><text fill="rgb(0,0,0)" stroke="none" font-family="Avenir, Helvetica, Arial, sans-serif" font-size="32px" font-style="normal" font-weight="bold" text-decoration="normal" x="903.0000007152557" y="2503.600006437302" text-anchor="middle" dominant-baseline="text-after-edge" fill-opacity="1">user_data</text><path fill="rgb(225,240,255)" stroke="rgb(29,122,218)" paint-order="fill stroke markers" d=" M 300 2581.6000071525577 L 566 2581.6000071525577 L 566 2581.6000071525577 A 8 8 0 0 1 574 2589.6000071525577 L 574 2651.6000071525577 L 574 2651.6000071525577 A 8 8 0 0 1 566 2659.6000071525577 L 34 2659.6000071525577 L 34 2659.6000071525577 A 8 8 0 0 1 26 2651.6000071525577 L 26 2589.6000071525577 L 26 2589.6000071525577 A 8 8 0 0 1 34 2581.6000071525577 L 300 2581.6000071525577 Z" fill-opacity="1" stroke-opacity="1" stroke-miterlimit="10" stroke-width="5"/><text fill="rgb(0,0,0)" stroke="none" font-family="Avenir, Helvetica, Arial, sans-serif" font-size="32px" font-style="normal" font-weight="bold" text-decoration="normal" x="300" y="2636.6000071525577" text-anchor="middle" dominant-baseline="text-after-edge" fill-opacity="1">network_id</text><path fill="rgb(225,240,255)" stroke="rgb(29,122,218)" paint-order="fill stroke markers" d=" M 903.0000007152557 2581.6000071525577 L 1169.0000007152557 2581.6000071525577 L 1169.0000007152557 2581.6000071525577 A 8 8 0 0 1 1177.0000007152557 2589.6000071525577 L 1177.0000007152557 2651.6000071525577 L 1177.0000007152557 2651.6000071525577 A 8 8 0 0 1 1169.0000007152557 2659.6000071525577 L 637.0000007152557 2659.6000071525577 L 637.0000007152557 2659.6000071525577 A 8 8 0 0 1 629.0000007152557 2651.6000071525577 L 629.0000007152557 2589.6000071525577 L 629.0000007152557 2589.6000071525577 A 8 8 0 0 1 637.0000007152557 2581.6000071525577 L 903.0000007152557 2581.6000071525577 Z" fill-opacity="1" stroke-opacity="1" stroke-miterlimit="10" stroke-width="5"/><text fill="rgb(0,0,0)" stroke="none" font-family="Avenir, Helvetica, Arial, sans-serif" font-size="32px" font-style="normal" font-weight="bold" text-decoration="normal" x="903.0000007152557" y="2636.6000071525577" text-anchor="middle" dominant-baseline="text-after-edge" fill-opacity="1">location</text><path fill="rgb(225,240,255)" stroke="rgb(29,122,218)" paint-order="fill stroke markers" d=" M 300 2714.6000078678135 L 566 2714.6000078678135 L 566 2714.6000078678135 A 8 8 0 0 1 574 2722.6000078678135 L 574 2784.6000078678135 L 574 2784.6000078678135 A 8 8 0 0 1 566 2792.6000078678135 L 34 2792.6000078678135 L 34 2792.6000078678135 A 8 8 0 0 1 26 2784.6000078678135 L 26 2722.6000078678135 L 26 2722.6000078678135 A 8 8 0 0 1 34 2714.6000078678135 L 300 2714.6000078678135 Z" fill-opacity="1" stroke-opacity="1" stroke-miterlimit="10" stroke-width="5"/><text fill="rgb(0,0,0)" stroke="none" font-family="Avenir, Helvetica, Arial, sans-serif" font-size="32px" font-style="normal" font-weight="bold" text-decoration="normal" x="300" y="2769.6000078678135" text-anchor="middle" dominant-baseline="text-after-edge" fill-opacity="1">datacenter</text><path fill="rgb(225,240,255)" stroke="rgb(29,122,218)" paint-order="fill stroke markers" d=" M 903.0000007152557 2714.6000078678135 L 1169.0000007152557 2714.6000078678135 L 1169.0000007152557 2714.6000078678135 A 8 8 0 0 1 1177.0000007152557 2722.6000078678135 L 1177.0000007152557 2784.6000078678135 L 1177.0000007152557 2784.6000078678135 A 8 8 0 0 1 1169.0000007152557 2792.6000078678135 L 637.0000007152557 2792.6000078678135 L 637.0000007152557 2792.6000078678135 A 8 8 0 0 1 629.0000007152557 2784.6000078678135 L 629.0000007152557 2722.6000078678135 L 629.0000007152557 2722.6000078678135 A 8 8 0 0 1 637.0000007152557 2714.6000078678135 L 903.0000007152557 2714.6000078678135 Z" fill-opacity="1" stroke-opacity="1" stroke-miterlimit="10" stroke-width="5"/><text fill="rgb(0,0,0)" stroke="none" font-family="Avenir, Helvetica, Arial, sans-serif" font-size="32px" font-style="normal" font-weight="bold" text-decoration="normal" x="903.0000007152557" y="2769.6000078678135" text-anchor="middle" dominant-baseline="text-after-edge" fill-opacity="1">name</text><path fill="rgb(40,167,69)" stroke="none" paint-order="stroke fill markers" d=" M 1403.0000007152557 361 L 1669.0000007152557 361 L 1669.0000007152557 361 A 8 8 0 0 1 1677.0000007152557 369 L 1677.0000007152557 431 L 1677.0000007152557 431 A 8 8 0 0 1 1669.0000007152557 439 L 1137.0000007152557 439 L 1137.0000007152557 439 A 8 8 0 0 1 1129.0000007152557 431 L 1129.0000007152557 369 L 1129.0000007152557 369 A 8 8 0 0 1 1137.0000007152557 361 L 1403.0000007152557 361 Z" fill-opacity="1"/><text fill="rgb(255,255,255)" stroke="none" font-family="Avenir, Helvetica, Arial, sans-serif" font-size="32px" font-style="normal" font-weight="bold" text-decoration="normal" x="1403.0000007152557" y="416" text-anchor="middle" dominant-baseline="text-after-edge" fill-opacity="1">default</text><path fill="rgb(40,167,69)" stroke="none" paint-order="stroke fill markers" d=" M 1503.0000007152557 789.2000007152558 L 1769.0000007152557 789.2000007152558 L 1769.0000007152557 789.2000007152558 A 8 8 0 0 1 1777.0000007152557 797.2000007152558 L 1777.0000007152557 859.2000007152558 L 1777.0000007152557 859.2000007152558 A 8 8 0 0 1 1769.0000007152557 867.2000007152558 L 1237.0000007152557 867.2000007152558 L 1237.0000007152557 867.2000007152558 A 8 8 0 0 1 1229.0000007152557 859.2000007152558 L 1229.0000007152557 797.2000007152558 L 1229.0000007152557 797.2000007152558 A 8 8 0 0 1 1237.0000007152557 789.2000007152558 L 1503.0000007152557 789.2000007152558 Z" fill-opacity="1"/><text fill="rgb(255,255,255)" stroke="none" font-family="Avenir, Helvetica, Arial, sans-serif" font-size="32px" font-style="normal" font-weight="bold" text-decoration="normal" x="1503.0000007152557" y="844.2000007152558" text-anchor="middle" dominant-baseline="text-after-edge" fill-opacity="1">default[0]</text><g transform="scale(10,10) translate(-28.1,-4.75)"/></g></svg>