<svg version="1.1" xmlns="http://www.w3.org/2000/svg" xmlns:xlink="http://www.w3.org/1999/xlink" width="635.2" height="950.4000000000001"><defs><linearGradient id="NVIOxcwEFDnF" x1="1303.0000007152557px" x2="1164.6000003576278px" y1="341.5px" y2="1314.5000035762787px" gradientUnits="userSpaceOnUse"><stop offset="0" stop-color="rgb(255,193,7)" stop-opacity="1"/><stop offset="1" stop-color="rgb(132,80,186)" stop-opacity="1"/></linearGradient><linearGradient id="SBefkaMeQDyP" x1="1303.0000007152557px" x2="1164.6000003576278px" y1="341.5px" y2="1314.5000035762787px" gradientUnits="userSpaceOnUse"><stop offset="0" stop-color="rgb(255,193,7)" stop-opacity="1"/><stop offset="1" stop-color="rgb(132,80,186)" stop-opacity="1"/></linearGradient><linearGradient id="DfeKiTvMQEzB" x1="1303.0000007152557px" x2="1164.6000003576278px" y1="474.50000071525574px" y2="1314.5000035762787px" gradientUnits="userSpaceOnUse"><stop offset="0" stop-color="rgb(255,193,7)" stop-opacity="1"/><stop offset="1" stop-color="rgb(132,80,186)" stop-opacity="1"/></linearGradient><linearGradient id="PEzubnPfyPmO" x1="1303.0000007152557px" x2="1164.6000003576278px" y1="474.50000071525574px" y2="1314.5000035762787px" gradientUnits="userSpaceOnUse"><stop offset="0" stop-color="rgb(255,193,7)" stop-opacity="1"/><stop offset="1" stop-color="rgb(132,80,186)" stop-opacity="1"/></linearGradient><linearGradient id="OiHzdkeeIZGP" x1="1303.0000007152557px" x2="1164.6000003576278px" y1="607.5000014305115px" y2="1314.5000035762787px" gradientUnits="userSpaceOnUse"><stop offset="0" stop-color="rgb(255,193,7)" stop-opacity="1"/><stop offset="1" stop-color="rgb(132,80,186)" stop-opacity="1"/></linearGradient><linearGradient id="UJmdTTUnoTCu" x1="1303.0000007152557px" x2="1164.6000003576278px" y1="607.5000014305115px" y2="1314.5000035762787px" gradientUnits="userSpaceOnUse"><stop offset="0" stop-color="rgb(255,193,7)" stop-opacity="1"/><stop offset="1" stop-color="rgb(132,80,186)" stop-opacity="1"/></linearGradient><linearGradient id="PthwPxrZZXMt" x1="1164.6000003576278px" x2="2306.0000014305115px" y1="1314.5000035762787px" y2="341.5px" gradientUnits="userSpaceOnUse"><stop offset="0" stop-color="rgb(132,80,186)" stop-opacity="1"/><stop offset="1" stop-color="rgb(0,0,0)" stop-opacity="1"/></linearGradient><linearGradient id="looFqdLxfEpL" x1="1164.6000003576278px" x2="2306.0000014305115px" y1="1314.5000035762787px" y2="474.50000071525574px" gradientUnits="userSpaceOnUse"><stop offset="0" stop-color="rgb(132,80,186)" stop-opacity="1"/><stop offset="1" stop-color="rgb(0,0,0)" stop-opacity="1"/></linearGradient><linearGradient id="iehFUagvAQpX" x1="1164.6000003576278px" x2="2306.0000014305115px" y1="1314.5000035762787px" y2="607.5000014305115px" gradientUnits="userSpaceOnUse"><stop offset="0" stop-color="rgb(132,80,186)" stop-opacity="1"/><stop offset="1" stop-color="rgb(0,0,0)" stop-opacity="1"/></linearGradient><linearGradient id="VLTHthgudqgZ" x1="1164.6000003576278px" x2="2306.0000014305115px" y1="1314.5000035762787px" y2="740.5000021457672px" gradientUnits="userSpaceOnUse"><stop offset="0" stop-color="rgb(132,80,186)" stop-opacity="1"/><stop offset="1" stop-color="rgb(0,0,0)" stop-opacity="1"/></linearGradient><linearGradient id="LdUpKtafVVau" x1="1164.6000003576278px" x2="2306.0000014305115px" y1="1314.5000035762787px" y2="873.500002861023px" gradientUnits="userSpaceOnUse"><stop offset="0" stop-color="rgb(132,80,186)" stop-opacity="1"/><stop offset="1" stop-color="rgb(0,0,0)" stop-opacity="1"/></linearGradient><linearGradient id="noslhEOxSkKS" x1="776.5px" x2="1329.0000007152557px" y1="1698.0000042915344px" y2="1665.0000035762787px" gradientUnits="userSpaceOnUse"><stop offset="0" stop-color="rgb(255,193,7)" stop-opacity="1"/><stop offset="1" stop-color="rgb(211,211,211)" stop-opacity="1"/></linearGradient><linearGradient id="NpChyPJUEMTT" x1="776.5px" x2="1329.0000007152557px" y1="1831.0000050067902px" y2="1665.0000035762787px" gradientUnits="userSpaceOnUse"><stop offset="0" stop-color="rgb(255,193,7)" stop-opacity="1"/><stop offset="1" stop-color="rgb(211,211,211)" stop-opacity="1"/></linearGradient><linearGradient id="QbQgeleghvAf" x1="776.5px" x2="1329.0000007152557px" y1="1964.000005722046px" y2="1665.0000035762787px" gradientUnits="userSpaceOnUse"><stop offset="0" stop-color="rgb(255,193,7)" stop-opacity="1"/><stop offset="1" stop-color="rgb(211,211,211)" stop-opacity="1"/></linearGradient><linearGradient id="TRLDMnrVHAmC" x1="1603.0000007152557px" x2="1103.0000007152557px" y1="1704.0000035762787px" y2="2780.1000050067905px" gradientUnits="userSpaceOnUse"><stop offset="0" stop-color="rgb(211,211,211)" stop-opacity="1"/><stop offset="1" stop-color="rgb(29,122,218)" stop-opacity="1"/></linearGradient><linearGradient id="mCqKcvpTLyhi" x1="1603.0000007152557px" x2="1103.0000007152557px" y1="1704.0000035762787px" y2="3312.1000078678135px" gradientUnits="userSpaceOnUse"><stop offset="0" stop-color="rgb(211,211,211)" stop-opacity="1"/><stop offset="1" stop-color="rgb(29,122,218)" stop-opacity="1"/></linearGradient><linearGradient id="UybUAbexIcRH" x1="1603.0000007152557px" x2="1103.0000007152557px" y1="1704.0000035762787px" y2="3046.100006437302px" gradientUnits="userSpaceOnUse"><stop offset="0" stop-color="rgb(211,211,211)" stop-opacity="1"/><stop offset="1" stop-color="rgb(29,122,218)" stop-opacity="1"/></linearGradient><linearGradient id="ffRoFttroayM" x1="1603.0000007152557px" x2="1103.0000007152557px" y1="1704.0000035762787px" y2="3977.100011444092px" gradientUnits="userSpaceOnUse"><stop offset="0" stop-color="rgb(211,211,211)" stop-opacity="1"/><stop offset="1" stop-color="rgb(29,122,218)" stop-opacity="1"/></linearGradient><linearGradient id="TUIqlqzcrGpW" x1="1603.0000007152557px" x2="1103.0000007152557px" y1="1704.0000035762787px" y2="3578.100009298325px" gradientUnits="userSpaceOnUse"><stop offset="0" stop-color="rgb(211,211,211)" stop-opacity="1"/><stop offset="1" stop-color="rgb(29,122,218)" stop-opacity="1"/></linearGradient><linearGradient id="VcrOmpAtmtaL" x1="1603.0000007152557px" x2="500px" y1="1704.0000035762787px" y2="2780.1000050067905px" gradientUnits="userSpaceOnUse"><stop offset="0" stop-color="rgb(211,211,211)" stop-opacity="1"/><stop offset="1" stop-color="rgb(29,122,218)" stop-opacity="1"/></linearGradient><linearGradient id="pqAnvBVSyDXW" x1="1603.0000007152557px" x2="500px" y1="1704.0000035762787px" y2="3445.100008583069px" gradientUnits="userSpaceOnUse"><stop offset="0" stop-color="rgb(211,211,211)" stop-opacity="1"/><stop offset="1" stop-color="rgb(29,122,218)" stop-opacity="1"/></linearGradient><linearGradient id="esoSSnDCKzrK" x1="1603.0000007152557px" x2="1103.0000007152557px" y1="1704.0000035762787px" y2="3179.1000071525577px" gradientUnits="userSpaceOnUse"><stop offset="0" stop-color="rgb(211,211,211)" stop-opacity="1"/><stop offset="1" stop-color="rgb(29,122,218)" stop-opacity="1"/></linearGradient><linearGradient id="xaHwKcQyJfLr" x1="1603.0000007152557px" x2="500px" y1="1704.0000035762787px" y2="3844.1000107288364px" gradientUnits="userSpaceOnUse"><stop offset="0" stop-color="rgb(211,211,211)" stop-opacity="1"/><stop offset="1" stop-color="rgb(29,122,218)" stop-opacity="1"/></linearGradient><linearGradient id="TutTvZTfOLmW" x1="1603.0000007152557px" x2="1103.0000007152557px" y1="1704.0000035762787px" y2="3445.100008583069px" gradientUnits="userSpaceOnUse"><stop offset="0" stop-color="rgb(211,211,211)" stop-opacity="1"/><stop offset="1" stop-color="rgb(29,122,218)" stop-opacity="1"/></linearGradient><linearGradient id="mfoUPQTekPnU" x1="1603.0000007152557px" x2="500px" y1="1704.0000035762787px" y2="3179.1000071525577px" gradientUnits="userSpaceOnUse"><stop offset="0" stop-color="rgb(211,211,211)" stop-opacity="1"/><stop offset="1" stop-color="rgb(29,122,218)" stop-opacity="1"/></linearGradient><linearGradient id="lCCgFIwtTlas" x1="1603.0000007152557px" x2="1103.0000007152557px" y1="1704.0000035762787px" y2="4110.100012159348px" gradientUnits="userSpaceOnUse"><stop offset="0" stop-color="rgb(211,211,211)" stop-opacity="1"/><stop offset="1" stop-color="rgb(29,122,218)" stop-opacity="1"/></linearGradient><linearGradient id="ckMzTRtLXtvW" x1="1603.0000007152557px" x2="1103.0000007152557px" y1="1704.0000035762787px" y2="2913.1000057220463px" gradientUnits="userSpaceOnUse"><stop offset="0" stop-color="rgb(211,211,211)" stop-opacity="1"/><stop offset="1" stop-color="rgb(29,122,218)" stop-opacity="1"/></linearGradient><linearGradient id="OVHiclNlFnpD" x1="1603.0000007152557px" x2="500px" y1="1704.0000035762787px" y2="3578.100009298325px" gradientUnits="userSpaceOnUse"><stop offset="0" stop-color="rgb(211,211,211)" stop-opacity="1"/><stop offset="1" stop-color="rgb(29,122,218)" stop-opacity="1"/></linearGradient><linearGradient id="Iilgigbtugdt" x1="1603.0000007152557px" x2="500px" y1="1704.0000035762787px" y2="4110.100012159348px" gradientUnits="userSpaceOnUse"><stop offset="0" stop-color="rgb(211,211,211)" stop-opacity="1"/><stop offset="1" stop-color="rgb(29,122,218)" stop-opacity="1"/></linearGradient><linearGradient id="byisldxVvisq" x1="1703.0000007152557px" x2="500px" y1="2190.7000042915342px" y2="3312.1000078678135px" gradientUnits="userSpaceOnUse"><stop offset="0" stop-color="rgb(211,211,211)" stop-opacity="1"/><stop offset="1" stop-color="rgb(29,122,218)" stop-opacity="1"/></linearGradient><linearGradient id="mautqefxoEpQ" x1="1703.0000007152557px" x2="1603.0000007152557px" y1="1995.7000042915342px" y2="1704.0000035762787px" gradientUnits="userSpaceOnUse"><stop offset="0" stop-color="rgb(211,211,211)" stop-opacity="1"/><stop offset="1" stop-color="rgb(211,211,211)" stop-opacity="1"/></linearGradient></defs><g transform="translate(57.7,9.200000000000001) scale(0.2,0.2)"><path fill="rgb(244,236,255)" stroke="rgb(255,255,255)" paint-order="fill stroke markers" d=" M 1299.2500007152557 -44 L 2877.0000014305115 -44 L 2877.0000014305115 -44 A 8 8 0 0 1 2885.0000014305115 -36 L 2885.0000014305115 4695.100012159348 L 2885.0000014305115 4695.100012159348 A 8 8 0 0 1 2877.0000014305115 4703.100012159348 L -278.5 4703.100012159348 L -278.5 4703.100012159348 A 8 8 0 0 1 -286.5 4695.100012159348 L -286.5 -36 L -286.5 -36 A 8 8 0 0 1 -278.5 -44 L 1299.2500007152557 -44 Z" fill-opacity="1" stroke-opacity="1" stroke-miterlimit="10" stroke-width="2"/><text fill="rgb(0,0,0)" stroke="none" font-family="Avenir, Helvetica, Arial, sans-serif" font-size="32px" font-style="normal" font-weight="bold" text-decoration="normal" x="1299.2500007152557" y="31" text-anchor="middle" dominant-baseline="text-after-edge" fill-opacity="1">.</text><path fill="rgb(255,255,255)" stroke="rgb(211,211,211)" paint-order="fill stroke markers" d=" M 300 157.5 L 669.5 157.5 L 669.5 157.5 A 8 8 0 0 1 677.5 165.5 L 677.5 434.5 L 677.5 434.5 A 8 8 0 0 1 669.5 442.5 L -69.5 442.5 L -69.5 442.5 A 8 8 0 0 1 -77.5 434.5 L -77.5 165.5 L -77.5 165.5 A 8 8 0 0 1 -69.5 157.5 L 300 157.5 Z" fill-opacity="1" stroke-opacity="1" stroke-miterlimit="10"/><text fill="rgb(0,0,0)" stroke="none" font-family="Avenir, Helvetica, Arial, sans-serif" font-size="32px" font-style="normal" font-weight="bold" text-decoration="normal" x="300" y="232.5" text-anchor="middle" dominant-baseline="text-after-edge" fill-opacity="1">variables.tf</text><path fill="rgb(255,255,255)" stroke="rgb(211,211,211)" paint-order="fill stroke markers" d=" M 1164.6000003576278 1213.5000035762787 L 2406.2000007152556 1213.5000035762787 L 2406.2000007152556 1213.5000035762787 A 8 8 0 0 1 2414.2000007152556 1221.5000035762787 L 2414.2000007152556 4493.600012159348 L 2414.2000007152556 4493.600012159348 A 8 8 0 0 1 2406.2000007152556 4501.600012159348 L -77 4501.600012159348 L -77 4501.600012159348 A 8 8 0 0 1 -85 4493.600012159348 L -85 1221.5000035762787 L -85 1221.5000035762787 A 8 8 0 0 1 -77 1213.5000035762787 L 1164.6000003576278 1213.5000035762787 Z" fill-opacity="1" stroke-opacity="1" stroke-miterlimit="10"/><text fill="rgb(0,0,0)" stroke="none" font-family="Avenir, Helvetica, Arial, sans-serif" font-size="32px" font-style="normal" font-weight="bold" text-decoration="normal" x="1164.6000003576278" y="1288.5000035762787" text-anchor="middle" dominant-baseline="text-after-edge" fill-opacity="1">main.tf</text><path fill="rgb(255,255,255)" stroke="rgb(211,211,211)" paint-order="fill stroke markers" d=" M 2306.0000014305115 157.5 L 2675.5000014305115 157.5 L 2675.5000014305115 157.5 A 8 8 0 0 1 2683.5000014305115 165.5 L 2683.5000014305115 966.500002861023 L 2683.5000014305115 966.500002861023 A 8 8 0 0 1 2675.5000014305115 974.500002861023 L 1936.5000014305115 974.500002861023 L 1936.5000014305115 974.500002861023 A 8 8 0 0 1 1928.5000014305115 966.500002861023 L 1928.5000014305115 165.5 L 1928.5000014305115 165.5 A 8 8 0 0 1 1936.5000014305115 157.5 L 2306.0000014305115 157.5 Z" fill-opacity="1" stroke-opacity="1" stroke-miterlimit="10"/><text fill="rgb(0,0,0)" stroke="none" font-family="Avenir, Helvetica, Arial, sans-serif" font-size="32px" font-style="normal" font-weight="bold" text-decoration="normal" x="2306.0000014305115" y="232.5" text-anchor="middle" dominant-baseline="text-after-edge" fill-opacity="1">unknown file</text><path fill="rgb(255,255,255)" stroke="rgb(211,211,211)" paint-order="fill stroke markers" d=" M 1303.0000007152557 157.5 L 1672.5000007152557 157.5 L 1672.5000007152557 157.5 A 8 8 0 0 1 1680.5000007152557 165.5 L 1680.5000007152557 700.5000014305115 L 1680.5000007152557 700.5000014305115 A 8 8 0 0 1 1672.5000007152557 708.5000014305115 L 933.5000007152557 708.5000014305115 L 933.5000007152557 708.5000014305115 A 8 8 0 0 1 925.5000007152557 700.5000014305115 L 925.5000007152557 165.5 L 925.5000007152557 165.5 A 8 8 0 0 1 933.5000007152557 157.5 L 1303.0000007152557 157.5 Z" fill-opacity="1" stroke-opacity="1" stroke-miterlimit="10"/><text fill="rgb(0,0,0)" stroke="none" font-family="Avenir, Helvetica, Arial, sans-serif" font-size="32px" font-style="normal" font-weight="bold" text-decoration="normal" x="1303.0000007152557" y="232.5" text-anchor="middle" dominant-baseline="text-after-edge" fill-opacity="1">outputs.tf</text><path fill="rgb(255,255,255)" stroke="rgb(132,80,186)" paint-order="fill stroke markers" d=" M 1164.6000003576278 1319.5000035762787 L 2300.2000007152556 1319.5000035762787 L 2300.2000007152556 1319.5000035762787 A 8 8 0 0 1 2308.2000007152556 1327.5000035762787 L 2308.2000007152556 4387.600012159348 L 2308.2000007152556 4387.600012159348 A 8 8 0 0 1 2300.2000007152556 4395.600012159348 L 29 4395.600012159348 L 29 4395.600012159348 A 8 8 0 0 1 21 4387.600012159348 L 21 1327.5000035762787 L 21 1327.5000035762787 A 8 8 0 0 1 29 1319.5000035762787 L 1164.6000003576278 1319.5000035762787 Z" fill-opacity="1" stroke-opacity="1" stroke-miterlimit="10" stroke-width="10"/><text fill="rgb(132,80,186)" stroke="none" font-family="Avenir, Helvetica, Arial, sans-serif" font-size="32px" font-style="normal" font-weight="bold" text-decoration="normal" x="1164.6000003576278" y="1379.5000035762787" text-anchor="middle" dominant-baseline="text-after-edge" fill-opacity="1">hcloud_server</text><path fill="rgb(255,255,255)" stroke="rgb(211,211,211)" paint-order="fill stroke markers" d=" M 500 1422.5000035762787 L 869.5 1422.5000035762787 L 869.5 1422.5000035762787 A 8 8 0 0 1 877.5 1430.5000035762787 L 877.5 2098.500005722046 L 877.5 2098.500005722046 A 8 8 0 0 1 869.5 2106.500005722046 L 130.5 2106.500005722046 L 130.5 2106.500005722046 A 8 8 0 0 1 122.5 2098.500005722046 L 122.5 1430.5000035762787 L 122.5 1430.5000035762787 A 8 8 0 0 1 130.5 1422.5000035762787 L 500 1422.5000035762787 Z" fill-opacity="1" stroke-opacity="1" stroke-miterlimit="10"/><text fill="rgb(0,0,0)" stroke="none" font-family="Avenir, Helvetica, Arial, sans-serif" font-size="32px" font-style="normal" font-weight="bold" text-decoration="normal" x="500" y="1497.5000035762787" text-anchor="middle" dominant-baseline="text-after-edge" fill-opacity="1">outputs.tf</text><path fill="rgb(255,255,255)" stroke="rgb(211,211,211)" paint-order="fill stroke markers" d=" M 801.5000003576279 2679.1000050067905 L 1472.5000007152557 2679.1000050067905 L 1472.5000007152557 2679.1000050067905 A 8 8 0 0 1 1480.5000007152557 2687.1000050067905 L 1480.5000007152557 4286.100012159348 L 1480.5000007152557 4286.100012159348 A 8 8 0 0 1 1472.5000007152557 4294.100012159348 L 130.5 4294.100012159348 L 130.5 4294.100012159348 A 8 8 0 0 1 122.5 4286.100012159348 L 122.5 2687.1000050067905 L 122.5 2687.1000050067905 A 8 8 0 0 1 130.5 2679.1000050067905 L 801.5000003576279 2679.1000050067905 Z" fill-opacity="1" stroke-opacity="1" stroke-miterlimit="10"/><text fill="rgb(0,0,0)" stroke="none" font-family="Avenir, Helvetica, Arial, sans-serif" font-size="32px" font-style="normal" font-weight="bold" text-decoration="normal" x="801.5000003576279" y="2754.1000050067905" text-anchor="middle" dominant-baseline="text-after-edge" fill-opacity="1">variables.tf</text><path fill="rgb(255,255,255)" stroke="rgb(211,211,211)" paint-order="fill stroke markers" d=" M 1688.1000007152556 1421.0000035762787 L 2198.7000007152556 1421.0000035762787 L 2198.7000007152556 1421.0000035762787 A 8 8 0 0 1 2206.7000007152556 1429.0000035762787 L 2206.7000007152556 2353.900004291534 L 2206.7000007152556 2353.900004291534 A 8 8 0 0 1 2198.7000007152556 2361.900004291534 L 1177.5000007152557 2361.900004291534 L 1177.5000007152557 2361.900004291534 A 8 8 0 0 1 1169.5000007152557 2353.900004291534 L 1169.5000007152557 1429.0000035762787 L 1169.5000007152557 1429.0000035762787 A 8 8 0 0 1 1177.5000007152557 1421.0000035762787 L 1688.1000007152556 1421.0000035762787 Z" fill-opacity="1" stroke-opacity="1" stroke-miterlimit="10"/><text fill="rgb(0,0,0)" stroke="none" font-family="Avenir, Helvetica, Arial, sans-serif" font-size="32px" font-style="normal" font-weight="bold" text-decoration="normal" x="1688.1000007152556" y="1496.0000035762787" text-anchor="middle" dominant-baseline="text-after-edge" fill-opacity="1">main.tf</text><path fill="rgb(255,255,255)" stroke="rgb(0,0,0)" paint-order="fill stroke markers" d=" M 1603.0000007152557 1570.0000035762787 L 1925.0000007152557 1570.0000035762787 L 1925.0000007152557 1570.0000035762787 A 8 8 0 0 1 1933.0000007152557 1578.0000035762787 L 1933.0000007152557 1752.0000035762787 L 1933.0000007152557 1752.0000035762787 A 8 8 0 0 1 1925.0000007152557 1760.0000035762787 L 1281.0000007152557 1760.0000035762787 L 1281.0000007152557 1760.0000035762787 A 8 8 0 0 1 1273.0000007152557 1752.0000035762787 L 1273.0000007152557 1578.0000035762787 L 1273.0000007152557 1578.0000035762787 A 8 8 0 0 1 1281.0000007152557 1570.0000035762787 L 1603.0000007152557 1570.0000035762787 Z" fill-opacity="1" stroke-opacity="1" stroke-miterlimit="10" stroke-width="5"/><rect fill="rgb(255,255,255)" stroke="none" x="1466.5000007152557" y="1521.0000035762787" width="273" height="96" fill-opacity="1"/><text fill="rgb(0,0,0)" stroke="none" font-family="Avenir, Helvetica, Arial, sans-serif" font-size="32px" font-style="normal" font-weight="bold" text-decoration="normal" x="1603.0000007152557" y="1585.0000035762787" text-anchor="middle" dominant-baseline="text-after-edge" fill-opacity="1">hcloud_server</text><path fill="rgb(255,255,255)" stroke="rgb(0,0,0)" paint-order="fill stroke markers" d=" M 1703.0000007152557 1882.5000042915342 L 2095.2000007152556 1882.5000042915342 L 2095.2000007152556 1882.5000042915342 A 8 8 0 0 1 2103.2000007152556 1890.5000042915342 L 2103.2000007152556 2250.400004291534 L 2103.2000007152556 2250.400004291534 A 8 8 0 0 1 2095.2000007152556 2258.400004291534 L 1310.8000007152557 2258.400004291534 L 1310.8000007152557 2258.400004291534 A 8 8 0 0 1 1302.8000007152557 2250.400004291534 L 1302.8000007152557 1890.5000042915342 L 1302.8000007152557 1890.5000042915342 A 8 8 0 0 1 1310.8000007152557 1882.5000042915342 L 1703.0000007152557 1882.5000042915342 Z" fill-opacity="1" stroke-opacity="1" stroke-miterlimit="10" stroke-width="5"/><rect fill="rgb(255,255,255)" stroke="none" x="1545.5000007152557" y="1833.5000042915342" width="315" height="96" fill-opacity="1"/><text fill="rgb(0,0,0)" stroke="none" font-family="Avenir, Helvetica, Arial, sans-serif" font-size="32px" font-style="normal" font-weight="bold" text-decoration="normal" x="1703.0000007152557" y="1897.5000042915342" text-anchor="middle" dominant-baseline="text-after-edge" fill-opacity="1">hcloud_snapshot</text><path fill="rgb(255,255,255)" stroke="rgb(0,0,0)" paint-order="fill stroke markers" d=" M 1703.0000007152557 1998.2000042915342 L 2025.0000007152557 1998.2000042915342 L 2025.0000007152557 1998.2000042915342 A 8 8 0 0 1 2033.0000007152557 2006.2000042915342 L 2033.0000007152557 2180.2000042915342 L 2033.0000007152557 2180.2000042915342 A 8 8 0 0 1 2025.0000007152557 2188.2000042915342 L 1381.0000007152557 2188.2000042915342 L 1381.0000007152557 2188.2000042915342 A 8 8 0 0 1 1373.0000007152557 2180.2000042915342 L 1373.0000007152557 2006.2000042915342 L 1373.0000007152557 2006.2000042915342 A 8 8 0 0 1 1381.0000007152557 1998.2000042915342 L 1703.0000007152557 1998.2000042915342 Z" fill-opacity="1" stroke-opacity="1" stroke-miterlimit="10" stroke-width="5"/><rect fill="rgb(255,255,255)" stroke="none" x="1618.0000007152557" y="1949.2000042915342" width="170" height="96" fill-opacity="1"/><text fill="rgb(0,0,0)" stroke="none" font-family="Avenir, Helvetica, Arial, sans-serif" font-size="32px" font-style="normal" font-weight="bold" text-decoration="normal" x="1703.0000007152557" y="2013.2000042915342" text-anchor="middle" dominant-baseline="text-after-edge" fill-opacity="1">default</text><path fill="none" stroke="url(#NVIOxcwEFDnF)" paint-order="fill stroke markers" d=" M 1303.0000007152557 341.5 L 1303.0000007152557 828.0000017881393 L 1164.6000003576278 828.0000017881393 L 1164.6000003576278 1314.5000035762787" stroke-linejoin="round" stroke-miterlimit="10" stroke-width="10"/><path fill="none" stroke="url(#SBefkaMeQDyP)" paint-order="fill stroke markers" d=" M 1303.0000007152557 341.5 L 1303.0000007152557 828.0000017881393 L 1164.6000003576278 828.0000017881393 L 1164.6000003576278 1314.5000035762787" stroke-linejoin="round" stroke-miterlimit="10" stroke-width="10"/><path fill="none" stroke="url(#DfeKiTvMQEzB)" paint-order="fill stroke markers" d=" M 1303.0000007152557 474.50000071525574 L 1303.0000007152557 894.5000021457672 L 1164.6000003576278 894.5000021457672 L 1164.6000003576278 1314.5000035762787" stroke-linejoin="round" stroke-miterlimit="10" stroke-width="10"/><path fill="none" stroke="url(#PEzubnPfyPmO)" paint-order="fill stroke markers" d=" M 1303.0000007152557 474.50000071525574 L 1303.0000007152557 894.5000021457672 L 1164.6000003576278 894.5000021457672 L 1164.6000003576278 1314.5000035762787" stroke-linejoin="round" stroke-miterlimit="10" stroke-width="10"/><path fill="none" stroke="url(#OiHzdkeeIZGP)" paint-order="fill stroke markers" d=" M 1303.0000007152557 607.5000014305115 L 1303.0000007152557 961.0000025033951 L 1164.6000003576278 961.0000025033951 L 1164.6000003576278 1314.5000035762787" stroke-linejoin="round" stroke-miterlimit="10" stroke-width="10"/><path fill="none" stroke="url(#UJmdTTUnoTCu)" paint-order="fill stroke markers" d=" M 1303.0000007152557 607.5000014305115 L 1303.0000007152557 961.0000025033951 L 1164.6000003576278 961.0000025033951 L 1164.6000003576278 1314.5000035762787" stroke-linejoin="round" stroke-miterlimit="10" stroke-width="10"/><path fill="none" stroke="url(#PthwPxrZZXMt)" paint-order="fill stroke markers" d=" M 1164.6000003576278 1314.5000035762787 L 1164.6000003576278 828.0000017881393 L 2306.0000014305115 828.0000017881393 L 2306.0000014305115 341.5" stroke-linejoin="round" stroke-miterlimit="10" stroke-width="10"/><path fill="none" stroke="url(#looFqdLxfEpL)" paint-order="fill stroke markers" d=" M 1164.6000003576278 1314.5000035762787 L 1164.6000003576278 894.5000021457672 L 2306.0000014305115 894.5000021457672 L 2306.0000014305115 474.50000071525574" stroke-linejoin="round" stroke-miterlimit="10" stroke-width="10"/><path fill="none" stroke="url(#iehFUagvAQpX)" paint-order="fill stroke markers" d=" M 1164.6000003576278 1314.5000035762787 L 1164.6000003576278 961.0000025033951 L 2306.0000014305115 961.0000025033951 L 2306.0000014305115 607.5000014305115" stroke-linejoin="round" stroke-miterlimit="10" stroke-width="10"/><path fill="none" stroke="url(#VLTHthgudqgZ)" paint-order="fill stroke markers" d=" M 1164.6000003576278 1314.5000035762787 L 1164.6000003576278 1027.500002861023 L 2306.0000014305115 1027.500002861023 L 2306.0000014305115 740.5000021457672" stroke-linejoin="round" stroke-miterlimit="10" stroke-width="10"/><path fill="none" stroke="url(#LdUpKtafVVau)" paint-order="fill stroke markers" d=" M 1164.6000003576278 1314.5000035762787 L 1164.6000003576278 1094.0000032186508 L 2306.0000014305115 1094.0000032186508 L 2306.0000014305115 873.500002861023" stroke-linejoin="round" stroke-miterlimit="10" stroke-width="10"/><path fill="none" stroke="url(#noslhEOxSkKS)" paint-order="fill stroke markers" d=" M 776.5 1698.0000042915344 L 1052.7500003576279 1698.0000042915344 L 1052.7500003576279 1665.0000035762787 L 1329.0000007152557 1665.0000035762787" stroke-linejoin="round" stroke-miterlimit="10" stroke-width="10"/><path fill="none" stroke="url(#NpChyPJUEMTT)" paint-order="fill stroke markers" d=" M 776.5 1831.0000050067902 L 1052.7500003576279 1831.0000050067902 L 1052.7500003576279 1665.0000035762787 L 1329.0000007152557 1665.0000035762787" stroke-linejoin="round" stroke-miterlimit="10" stroke-width="10"/><path fill="none" stroke="url(#QbQgeleghvAf)" paint-order="fill stroke markers" d=" M 776.5 1964.000005722046 L 1052.7500003576279 1964.000005722046 L 1052.7500003576279 1665.0000035762787 L 1329.0000007152557 1665.0000035762787" stroke-linejoin="round" stroke-miterlimit="10" stroke-width="10"/><path fill="none" stroke="url(#TRLDMnrVHAmC)" paint-order="fill stroke markers" d=" M 1603.0000007152557 1704.0000035762787 L 1603.0000007152557 2242.0500042915346 L 1103.0000007152557 2242.0500042915346 L 1103.0000007152557 2780.1000050067905" stroke-linejoin="round" stroke-miterlimit="10" stroke-width="10"/><path fill="none" stroke="url(#mCqKcvpTLyhi)" paint-order="fill stroke markers" d=" M 1603.0000007152557 1704.0000035762787 L 1603.0000007152557 2508.050005722046 L 1103.0000007152557 2508.050005722046 L 1103.0000007152557 3312.1000078678135" stroke-linejoin="round" stroke-miterlimit="10" stroke-width="10"/><path fill="none" stroke="url(#UybUAbexIcRH)" paint-order="fill stroke markers" d=" M 1603.0000007152557 1704.0000035762787 L 1603.0000007152557 2375.0500050067903 L 1103.0000007152557 2375.0500050067903 L 1103.0000007152557 3046.100006437302" stroke-linejoin="round" stroke-miterlimit="10" stroke-width="10"/><path fill="none" stroke="url(#ffRoFttroayM)" paint-order="fill stroke markers" d=" M 1603.0000007152557 1704.0000035762787 L 1603.0000007152557 2840.5500075101854 L 1103.0000007152557 2840.5500075101854 L 1103.0000007152557 3977.100011444092" stroke-linejoin="round" stroke-miterlimit="10" stroke-width="10"/><path fill="none" stroke="url(#TUIqlqzcrGpW)" paint-order="fill stroke markers" d=" M 1603.0000007152557 1704.0000035762787 L 1603.0000007152557 2641.050006437302 L 1103.0000007152557 2641.050006437302 L 1103.0000007152557 3578.100009298325" stroke-linejoin="round" stroke-miterlimit="10" stroke-width="10"/><path fill="none" stroke="url(#VcrOmpAtmtaL)" paint-order="fill stroke markers" d=" M 1603.0000007152557 1704.0000035762787 L 1603.0000007152557 2242.0500042915346 L 500 2242.0500042915346 L 500 2780.1000050067905" stroke-linejoin="round" stroke-miterlimit="10" stroke-width="10"/><path fill="none" stroke="url(#pqAnvBVSyDXW)" paint-order="fill stroke markers" d=" M 1603.0000007152557 1704.0000035762787 L 1603.0000007152557 2574.550006079674 L 500 2574.550006079674 L 500 3445.100008583069" stroke-linejoin="round" stroke-miterlimit="10" stroke-width="10"/><path fill="none" stroke="url(#esoSSnDCKzrK)" paint-order="fill stroke markers" d=" M 1603.0000007152557 1704.0000035762787 L 1603.0000007152557 2441.550005364418 L 1103.0000007152557 2441.550005364418 L 1103.0000007152557 3179.1000071525577" stroke-linejoin="round" stroke-miterlimit="10" stroke-width="10"/><path fill="none" stroke="url(#xaHwKcQyJfLr)" paint-order="fill stroke markers" d=" M 1603.0000007152557 1704.0000035762787 L 1603.0000007152557 2774.0500071525576 L 500 2774.0500071525576 L 500 3844.1000107288364" stroke-linejoin="round" stroke-miterlimit="10" stroke-width="10"/><path fill="none" stroke="url(#TutTvZTfOLmW)" paint-order="fill stroke markers" d=" M 1603.0000007152557 1704.0000035762787 L 1603.0000007152557 2574.550006079674 L 1103.0000007152557 2574.550006079674 L 1103.0000007152557 3445.100008583069" stroke-linejoin="round" stroke-miterlimit="10" stroke-width="10"/><path fill="none" stroke="url(#mfoUPQTekPnU)" paint-order="fill stroke markers" d=" M 1603.0000007152557 1704.0000035762787 L 1603.0000007152557 2441.550005364418 L 500 2441.550005364418 L 500 3179.1000071525577" stroke-linejoin="round" stroke-miterlimit="10" stroke-width="10"/><path fill="none" stroke="url(#lCCgFIwtTlas)" paint-order="fill stroke markers" d=" M 1603.0000007152557 1704.0000035762787 L 1603.0000007152557 2907.0500078678133 L 1103.0000007152557 2907.0500078678133 L 1103.0000007152557 4110.100012159348" stroke-linejoin="round" stroke-miterlimit="10" stroke-width="10"/><path fill="none" stroke="url(#ckMzTRtLXtvW)" paint-order="fill stroke markers" d=" M 1603.0000007152557 1704.0000035762787 L 1603.0000007152557 2308.5500046491625 L 1103.0000007152557 2308.5500046491625 L 1103.0000007152557 2913.1000057220463" stroke-linejoin="round" stroke-miterlimit="10" stroke-width="10"/><path fill="none" stroke="url(#OVHiclNlFnpD)" paint-order="fill stroke markers" d=" M 1603.0000007152557 1704.0000035762787 L 1603.0000007152557 2641.050006437302 L 500 2641.050006437302 L 500 3578.100009298325" stroke-linejoin="round" stroke-miterlimit="10" stroke-width="10"/><path fill="none" stroke="url(#Iilgigbtugdt)" paint-order="fill stroke markers" d=" M 1603.0000007152557 1704.0000035762787 L 1603.0000007152557 2907.0500078678133 L 500 2907.0500078678133 L 500 4110.100012159348" stroke-linejoin="round" stroke-miterlimit="10" stroke-width="10"/><path fill="none" stroke="url(#byisldxVvisq)" paint-order="fill stroke markers" d=" M 1703.0000007152557 2190.7000042915342 L 1703.0000007152557 2751.400006079674 L 500 2751.400006079674 L 500 3312.1000078678135" stroke-linejoin="round" stroke-miterlimit="10" stroke-width="10"/><path fill="none" stroke="url(#mautqefxoEpQ)" paint-order="fill stroke markers" d=" M 1703.0000007152557 1995.7000042915342 L 1703.0000007152557 1849.8500039339065 L 1603.0000007152557 1849.8500039339065 L 1603.0000007152557 1704.0000035762787" stroke-linejoin="round" stroke-miterlimit="10" stroke-width="10"/><path fill="rgb(225,240,255)" stroke="rgb(29,122,218)" paint-order="fill stroke markers" d=" M 300 261 L 566 261 L 566 261 A 8 8 0 0 1 574 269 L 574 331 L 574 331 A 8 8 0 0 1 566 339 L 34 339 L 34 339 A 8 8 0 0 1 26 331 L 26 269 L 26 269 A 8 8 0 0 1 34 261 L 300 261 Z" fill-opacity="1" stroke-opacity="1" stroke-miterlimit="10" stroke-width="5"/><text fill="rgb(0,0,0)" stroke="none" font-family="Avenir, Helvetica, Arial, sans-serif" font-size="32px" font-style="normal" font-weight="bold" text-decoration="normal" x="300" y="316" text-anchor="middle" dominant-baseline="text-after-edge" fill-opacity="1">token</text><path fill="rgb(255,247,224)" stroke="rgb(255,193,7)" paint-order="fill stroke markers" d=" M 500 1526.0000035762787 L 766 1526.0000035762787 L 766 1526.0000035762787 A 8 8 0 0 1 774 1534.0000035762787 L 774 1596.0000035762787 L 774 1596.0000035762787 A 8 8 0 0 1 766 1604.0000035762787 L 234 1604.0000035762787 L 234 1604.0000035762787 A 8 8 0 0 1 226 1596.0000035762787 L 226 1534.0000035762787 L 226 1534.0000035762787 A 8 8 0 0 1 234 1526.0000035762787 L 500 1526.0000035762787 Z" fill-opacity="1" stroke-opacity="1" stroke-miterlimit="10" stroke-width="5"/><text fill="rgb(0,0,0)" stroke="none" font-family="Avenir, Helvetica, Arial, sans-serif" font-size="32px" font-style="normal" font-weight="bold" text-decoration="normal" x="500" y="1581.0000035762787" text-anchor="middle" dominant-baseline="text-after-edge" fill-opacity="1">ipv4_address_private</text><path fill="rgb(255,247,224)" stroke="rgb(255,193,7)" paint-order="fill stroke markers" d=" M 500 1659.0000042915344 L 766 1659.0000042915344 L 766 1659.0000042915344 A 8 8 0 0 1 774 1667.0000042915344 L 774 1729.0000042915344 L 774 1729.0000042915344 A 8 8 0 0 1 766 1737.0000042915344 L 234 1737.0000042915344 L 234 1737.0000042915344 A 8 8 0 0 1 226 1729.0000042915344 L 226 1667.0000042915344 L 226 1667.0000042915344 A 8 8 0 0 1 234 1659.0000042915344 L 500 1659.0000042915344 Z" fill-opacity="1" stroke-opacity="1" stroke-miterlimit="10" stroke-width="5"/><text fill="rgb(0,0,0)" stroke="none" font-family="Avenir, Helvetica, Arial, sans-serif" font-size="32px" font-style="normal" font-weight="bold" text-decoration="normal" x="500" y="1714.0000042915344" text-anchor="middle" dominant-baseline="text-after-edge" fill-opacity="1">id</text><path fill="rgb(255,247,224)" stroke="rgb(255,193,7)" paint-order="fill stroke markers" d=" M 500 1792.0000050067902 L 766 1792.0000050067902 L 766 1792.0000050067902 A 8 8 0 0 1 774 1800.0000050067902 L 774 1862.0000050067902 L 774 1862.0000050067902 A 8 8 0 0 1 766 1870.0000050067902 L 234 1870.0000050067902 L 234 1870.0000050067902 A 8 8 0 0 1 226 1862.0000050067902 L 226 1800.0000050067902 L 226 1800.0000050067902 A 8 8 0 0 1 234 1792.0000050067902 L 500 1792.0000050067902 Z" fill-opacity="1" stroke-opacity="1" stroke-miterlimit="10" stroke-width="5"/><text fill="rgb(0,0,0)" stroke="none" font-family="Avenir, Helvetica, Arial, sans-serif" font-size="32px" font-style="normal" font-weight="bold" text-decoration="normal" x="500" y="1847.0000050067902" text-anchor="middle" dominant-baseline="text-after-edge" fill-opacity="1">name</text><path fill="rgb(255,247,224)" stroke="rgb(255,193,7)" paint-order="fill stroke markers" d=" M 500 1925.000005722046 L 766 1925.000005722046 L 766 1925.000005722046 A 8 8 0 0 1 774 1933.000005722046 L 774 1995.000005722046 L 774 1995.000005722046 A 8 8 0 0 1 766 2003.000005722046 L 234 2003.000005722046 L 234 2003.000005722046 A 8 8 0 0 1 226 1995.000005722046 L 226 1933.000005722046 L 226 1933.000005722046 A 8 8 0 0 1 234 1925.000005722046 L 500 1925.000005722046 Z" fill-opacity="1" stroke-opacity="1" stroke-miterlimit="10" stroke-width="5"/><text fill="rgb(0,0,0)" stroke="none" font-family="Avenir, Helvetica, Arial, sans-serif" font-size="32px" font-style="normal" font-weight="bold" text-decoration="normal" x="500" y="1980.000005722046" text-anchor="middle" dominant-baseline="text-after-edge" fill-opacity="1">ipv4_address_public</text><path fill="rgb(225,240,255)" stroke="rgb(29,122,218)" paint-order="fill stroke markers" d=" M 500 2782.6000050067905 L 766 2782.6000050067905 L 766 2782.6000050067905 A 8 8 0 0 1 774 2790.6000050067905 L 774 2852.6000050067905 L 774 2852.6000050067905 A 8 8 0 0 1 766 2860.6000050067905 L 234 2860.6000050067905 L 234 2860.6000050067905 A 8 8 0 0 1 226 2852.6000050067905 L 226 2790.6000050067905 L 226 2790.6000050067905 A 8 8 0 0 1 234 2782.6000050067905 L 500 2782.6000050067905 Z" fill-opacity="1" stroke-opacity="1" stroke-miterlimit="10" stroke-width="5"/><text fill="rgb(0,0,0)" stroke="none" font-family="Avenir, Helvetica, Arial, sans-serif" font-size="32px" font-style="normal" font-weight="bold" text-decoration="normal" x="500" y="2837.6000050067905" text-anchor="middle" dominant-baseline="text-after-edge" fill-opacity="1">iso</text><path fill="rgb(225,240,255)" stroke="rgb(29,122,218)" paint-order="fill stroke markers" d=" M 1103.0000007152557 2782.6000050067905 L 1369.0000007152557 2782.6000050067905 L 1369.0000007152557 2782.6000050067905 A 8 8 0 0 1 1377.0000007152557 2790.6000050067905 L 1377.0000007152557 2852.6000050067905 L 1377.0000007152557 2852.6000050067905 A 8 8 0 0 1 1369.0000007152557 2860.6000050067905 L 837.0000007152557 2860.6000050067905 L 837.0000007152557 2860.6000050067905 A 8 8 0 0 1 829.0000007152557 2852.6000050067905 L 829.0000007152557 2790.6000050067905 L 829.0000007152557 2790.6000050067905 A 8 8 0 0 1 837.0000007152557 2782.6000050067905 L 1103.0000007152557 2782.6000050067905 Z" fill-opacity="1" stroke-opacity="1" stroke-miterlimit="10" stroke-width="5"/><text fill="rgb(0,0,0)" stroke="none" font-family="Avenir, Helvetica, Arial, sans-serif" font-size="32px" font-style="normal" font-weight="bold" text-decoration="normal" x="1103.0000007152557" y="2837.6000050067905" text-anchor="middle" dominant-baseline="text-after-edge" fill-opacity="1">labels</text><path fill="rgb(225,240,255)" stroke="rgb(29,122,218)" paint-order="fill stroke markers" d=" M 500 2915.6000057220463 L 766 2915.6000057220463 L 766 2915.6000057220463 A 8 8 0 0 1 774 2923.6000057220463 L 774 2985.6000057220463 L 774 2985.6000057220463 A 8 8 0 0 1 766 2993.6000057220463 L 234 2993.6000057220463 L 234 2993.6000057220463 A 8 8 0 0 1 226 2985.6000057220463 L 226 2923.6000057220463 L 226 2923.6000057220463 A 8 8 0 0 1 234 2915.6000057220463 L 500 2915.6000057220463 Z" fill-opacity="1" stroke-opacity="1" stroke-miterlimit="10" stroke-width="5"/><text fill="rgb(0,0,0)" stroke="none" font-family="Avenir, Helvetica, Arial, sans-serif" font-size="32px" font-style="normal" font-weight="bold" text-decoration="normal" x="500" y="2970.6000057220463" text-anchor="middle" dominant-baseline="text-after-edge" fill-opacity="1">create_snapshot</text><path fill="rgb(225,240,255)" stroke="rgb(29,122,218)" paint-order="fill stroke markers" d=" M 1103.0000007152557 2915.6000057220463 L 1369.0000007152557 2915.6000057220463 L 1369.0000007152557 2915.6000057220463 A 8 8 0 0 1 1377.0000007152557 2923.6000057220463 L 1377.0000007152557 2985.6000057220463 L 1377.0000007152557 2985.6000057220463 A 8 8 0 0 1 1369.0000007152557 2993.6000057220463 L 837.0000007152557 2993.6000057220463 L 837.0000007152557 2993.6000057220463 A 8 8 0 0 1 829.0000007152557 2985.6000057220463 L 829.0000007152557 2923.6000057220463 L 829.0000007152557 2923.6000057220463 A 8 8 0 0 1 837.0000007152557 2915.6000057220463 L 1103.0000007152557 2915.6000057220463 Z" fill-opacity="1" stroke-opacity="1" stroke-miterlimit="10" stroke-width="5"/><text fill="rgb(0,0,0)" stroke="none" font-family="Avenir, Helvetica, Arial, sans-serif" font-size="32px" font-style="normal" font-weight="bold" text-decoration="normal" x="1103.0000007152557" y="2970.6000057220463" text-anchor="middle" dominant-baseline="text-after-edge" fill-opacity="1">keep_disk</text><path fill="rgb(225,240,255)" stroke="rgb(29,122,218)" paint-order="fill stroke markers" d=" M 500 3048.600006437302 L 766 3048.600006437302 L 766 3048.600006437302 A 8 8 0 0 1 774 3056.600006437302 L 774 3118.600006437302 L 774 3118.600006437302 A 8 8 0 0 1 766 3126.600006437302 L 234 3126.600006437302 L 234 3126.600006437302 A 8 8 0 0 1 226 3118.600006437302 L 226 3056.600006437302 L 226 3056.600006437302 A 8 8 0 0 1 234 3048.600006437302 L 500 3048.600006437302 Z" fill-opacity="1" stroke-opacity="1" stroke-miterlimit="10" stroke-width="5"/><text fill="rgb(0,0,0)" stroke="none" font-family="Avenir, Helvetica, Arial, sans-serif" font-size="32px" font-style="normal" font-weight="bold" text-decoration="normal" x="500" y="3103.600006437302" text-anchor="middle" dominant-baseline="text-after-edge" fill-opacity="1">alias_ips</text><path fill="rgb(225,240,255)" stroke="rgb(29,122,218)" paint-order="fill stroke markers" d=" M 1103.0000007152557 3048.600006437302 L 1369.0000007152557 3048.600006437302 L 1369.0000007152557 3048.600006437302 A 8 8 0 0 1 1377.0000007152557 3056.600006437302 L 1377.0000007152557 3118.600006437302 L 1377.0000007152557 3118.600006437302 A 8 8 0 0 1 1369.0000007152557 3126.600006437302 L 837.0000007152557 3126.600006437302 L 837.0000007152557 3126.600006437302 A 8 8 0 0 1 829.0000007152557 3118.600006437302 L 829.0000007152557 3056.600006437302 L 829.0000007152557 3056.600006437302 A 8 8 0 0 1 837.0000007152557 3048.600006437302 L 1103.0000007152557 3048.600006437302 Z" fill-opacity="1" stroke-opacity="1" stroke-miterlimit="10" stroke-width="5"/><text fill="rgb(0,0,0)" stroke="none" font-family="Avenir, Helvetica, Arial, sans-serif" font-size="32px" font-style="normal" font-weight="bold" text-decoration="normal" x="1103.0000007152557" y="3103.600006437302" text-anchor="middle" dominant-baseline="text-after-edge" fill-opacity="1">ssh_keys</text><path fill="rgb(225,240,255)" stroke="rgb(29,122,218)" paint-order="fill stroke markers" d=" M 500 3181.6000071525577 L 766 3181.6000071525577 L 766 3181.6000071525577 A 8 8 0 0 1 774 3189.6000071525577 L 774 3251.6000071525577 L 774 3251.6000071525577 A 8 8 0 0 1 766 3259.6000071525577 L 234 3259.6000071525577 L 234 3259.6000071525577 A 8 8 0 0 1 226 3251.6000071525577 L 226 3189.6000071525577 L 226 3189.6000071525577 A 8 8 0 0 1 234 3181.6000071525577 L 500 3181.6000071525577 Z" fill-opacity="1" stroke-opacity="1" stroke-miterlimit="10" stroke-width="5"/><text fill="rgb(0,0,0)" stroke="none" font-family="Avenir, Helvetica, Arial, sans-serif" font-size="32px" font-style="normal" font-weight="bold" text-decoration="normal" x="500" y="3236.6000071525577" text-anchor="middle" dominant-baseline="text-after-edge" fill-opacity="1">delete_protection</text><path fill="rgb(225,240,255)" stroke="rgb(29,122,218)" paint-order="fill stroke markers" d=" M 1103.0000007152557 3181.6000071525577 L 1369.0000007152557 3181.6000071525577 L 1369.0000007152557 3181.6000071525577 A 8 8 0 0 1 1377.0000007152557 3189.6000071525577 L 1377.0000007152557 3251.6000071525577 L 1377.0000007152557 3251.6000071525577 A 8 8 0 0 1 1369.0000007152557 3259.6000071525577 L 837.0000007152557 3259.6000071525577 L 837.0000007152557 3259.6000071525577 A 8 8 0 0 1 829.0000007152557 3251.6000071525577 L 829.0000007152557 3189.6000071525577 L 829.0000007152557 3189.6000071525577 A 8 8 0 0 1 837.0000007152557 3181.6000071525577 L 1103.0000007152557 3181.6000071525577 Z" fill-opacity="1" stroke-opacity="1" stroke-miterlimit="10" stroke-width="5"/><text fill="rgb(0,0,0)" stroke="none" font-family="Avenir, Helvetica, Arial, sans-serif" font-size="32px" font-style="normal" font-weight="bold" text-decoration="normal" x="1103.0000007152557" y="3236.6000071525577" text-anchor="middle" dominant-baseline="text-after-edge" fill-opacity="1">rescue</text><path fill="rgb(225,240,255)" stroke="rgb(29,122,218)" paint-order="fill stroke markers" d=" M 500 3314.6000078678135 L 766 3314.6000078678135 L 766 3314.6000078678135 A 8 8 0 0 1 774 3322.6000078678135 L 774 3384.6000078678135 L 774 3384.6000078678135 A 8 8 0 0 1 766 3392.6000078678135 L 234 3392.6000078678135 L 234 3392.6000078678135 A 8 8 0 0 1 226 3384.6000078678135 L 226 3322.6000078678135 L 226 3322.6000078678135 A 8 8 0 0 1 234 3314.6000078678135 L 500 3314.6000078678135 Z" fill-opacity="1" stroke-opacity="1" stroke-miterlimit="10" stroke-width="5"/><text fill="rgb(0,0,0)" stroke="none" font-family="Avenir, Helvetica, Arial, sans-serif" font-size="32px" font-style="normal" font-weight="bold" text-decoration="normal" x="500" y="3369.6000078678135" text-anchor="middle" dominant-baseline="text-after-edge" fill-opacity="1">description</text><path fill="rgb(225,240,255)" stroke="rgb(29,122,218)" paint-order="fill stroke markers" d=" M 1103.0000007152557 3314.6000078678135 L 1369.0000007152557 3314.6000078678135 L 1369.0000007152557 3314.6000078678135 A 8 8 0 0 1 1377.0000007152557 3322.6000078678135 L 1377.0000007152557 3384.6000078678135 L 1377.0000007152557 3384.6000078678135 A 8 8 0 0 1 1369.0000007152557 3392.6000078678135 L 837.0000007152557 3392.6000078678135 L 837.0000007152557 3392.6000078678135 A 8 8 0 0 1 829.0000007152557 3384.6000078678135 L 829.0000007152557 3322.6000078678135 L 829.0000007152557 3322.6000078678135 A 8 8 0 0 1 837.0000007152557 3314.6000078678135 L 1103.0000007152557 3314.6000078678135 Z" fill-opacity="1" stroke-opacity="1" stroke-miterlimit="10" stroke-width="5"/><text fill="rgb(0,0,0)" stroke="none" font-family="Avenir, Helvetica, Arial, sans-serif" font-size="32px" font-style="normal" font-weight="bold" text-decoration="normal" x="1103.0000007152557" y="3369.6000078678135" text-anchor="middle" dominant-baseline="text-after-edge" fill-opacity="1">rebuild_protection</text><path fill="rgb(225,240,255)" stroke="rgb(29,122,218)" paint-order="fill stroke markers" d=" M 500 3447.600008583069 L 766 3447.600008583069 L 766 3447.600008583069 A 8 8 0 0 1 774 3455.600008583069 L 774 3517.600008583069 L 774 3517.600008583069 A 8 8 0 0 1 766 3525.600008583069 L 234 3525.600008583069 L 234 3525.600008583069 A 8 8 0 0 1 226 3517.600008583069 L 226 3455.600008583069 L 226 3455.600008583069 A 8 8 0 0 1 234 3447.600008583069 L 500 3447.600008583069 Z" fill-opacity="1" stroke-opacity="1" stroke-miterlimit="10" stroke-width="5"/><text fill="rgb(0,0,0)" stroke="none" font-family="Avenir, Helvetica, Arial, sans-serif" font-size="32px" font-style="normal" font-weight="bold" text-decoration="normal" x="500" y="3502.600008583069" text-anchor="middle" dominant-baseline="text-after-edge" fill-opacity="1">location</text><path fill="rgb(225,240,255)" stroke="rgb(29,122,218)" paint-order="fill stroke markers" d=" M 1103.0000007152557 3447.600008583069 L 1369.0000007152557 3447.600008583069 L 1369.0000007152557 3447.600008583069 A 8 8 0 0 1 1377.0000007152557 3455.600008583069 L 1377.0000007152557 3517.600008583069 L 1377.0000007152557 3517.600008583069 A 8 8 0 0 1 1369.0000007152557 3525.600008583069 L 837.0000007152557 3525.600008583069 L 837.0000007152557 3525.600008583069 A 8 8 0 0 1 829.0000007152557 3517.600008583069 L 829.0000007152557 3455.600008583069 L 829.0000007152557 3455.600008583069 A 8 8 0 0 1 837.0000007152557 3447.600008583069 L 1103.0000007152557 3447.600008583069 Z" fill-opacity="1" stroke-opacity="1" stroke-miterlimit="10" stroke-width="5"/><text fill="rgb(0,0,0)" stroke="none" font-family="Avenir, Helvetica, Arial, sans-serif" font-size="32px" font-style="normal" font-weight="bold" text-decoration="normal" x="1103.0000007152557" y="3502.600008583069" text-anchor="middle" dominant-baseline="text-after-edge" fill-opacity="1">backups</text><path fill="rgb(225,240,255)" stroke="rgb(29,122,218)" paint-order="fill stroke markers" d=" M 500 3580.600009298325 L 766 3580.600009298325 L 766 3580.600009298325 A 8 8 0 0 1 774 3588.600009298325 L 774 3650.600009298325 L 774 3650.600009298325 A 8 8 0 0 1 766 3658.600009298325 L 234 3658.600009298325 L 234 3658.600009298325 A 8 8 0 0 1 226 3650.600009298325 L 226 3588.600009298325 L 226 3588.600009298325 A 8 8 0 0 1 234 3580.600009298325 L 500 3580.600009298325 Z" fill-opacity="1" stroke-opacity="1" stroke-miterlimit="10" stroke-width="5"/><text fill="rgb(0,0,0)" stroke="none" font-family="Avenir, Helvetica, Arial, sans-serif" font-size="32px" font-style="normal" font-weight="bold" text-decoration="normal" x="500" y="3635.600009298325" text-anchor="middle" dominant-baseline="text-after-edge" fill-opacity="1">name</text><path fill="rgb(225,240,255)" stroke="rgb(29,122,218)" paint-order="fill stroke markers" d=" M 1103.0000007152557 3580.600009298325 L 1369.0000007152557 3580.600009298325 L 1369.0000007152557 3580.600009298325 A 8 8 0 0 1 1377.0000007152557 3588.600009298325 L 1377.0000007152557 3650.600009298325 L 1377.0000007152557 3650.600009298325 A 8 8 0 0 1 1369.0000007152557 3658.600009298325 L 837.0000007152557 3658.600009298325 L 837.0000007152557 3658.600009298325 A 8 8 0 0 1 829.0000007152557 3650.600009298325 L 829.0000007152557 3588.600009298325 L 829.0000007152557 3588.600009298325 A 8 8 0 0 1 837.0000007152557 3580.600009298325 L 1103.0000007152557 3580.600009298325 Z" fill-opacity="1" stroke-opacity="1" stroke-miterlimit="10" stroke-width="5"/><text fill="rgb(0,0,0)" stroke="none" font-family="Avenir, Helvetica, Arial, sans-serif" font-size="32px" font-style="normal" font-weight="bold" text-decoration="normal" x="1103.0000007152557" y="3635.600009298325" text-anchor="middle" dominant-baseline="text-after-edge" fill-opacity="1">firewall_ids</text><path fill="rgb(225,240,255)" stroke="rgb(29,122,218)" paint-order="fill stroke markers" d=" M 500 3713.6000100135807 L 766 3713.6000100135807 L 766 3713.6000100135807 A 8 8 0 0 1 774 3721.6000100135807 L 774 3783.6000100135807 L 774 3783.6000100135807 A 8 8 0 0 1 766 3791.6000100135807 L 234 3791.6000100135807 L 234 3791.6000100135807 A 8 8 0 0 1 226 3783.6000100135807 L 226 3721.6000100135807 L 226 3721.6000100135807 A 8 8 0 0 1 234 3713.6000100135807 L 500 3713.6000100135807 Z" fill-opacity="1" stroke-opacity="1" stroke-miterlimit="10" stroke-width="5"/><text fill="rgb(0,0,0)" stroke="none" font-family="Avenir, Helvetica, Arial, sans-serif" font-size="32px" font-style="normal" font-weight="bold" text-decoration="normal" x="500" y="3768.6000100135807" text-anchor="middle" dominant-baseline="text-after-edge" fill-opacity="1">create_server_network</text><path fill="rgb(225,240,255)" stroke="rgb(29,122,218)" paint-order="fill stroke markers" d=" M 1103.0000007152557 3713.6000100135807 L 1369.0000007152557 3713.6000100135807 L 1369.0000007152557 3713.6000100135807 A 8 8 0 0 1 1377.0000007152557 3721.6000100135807 L 1377.0000007152557 3783.6000100135807 L 1377.0000007152557 3783.6000100135807 A 8 8 0 0 1 1369.0000007152557 3791.6000100135807 L 837.0000007152557 3791.6000100135807 L 837.0000007152557 3791.6000100135807 A 8 8 0 0 1 829.0000007152557 3783.6000100135807 L 829.0000007152557 3721.6000100135807 L 829.0000007152557 3721.6000100135807 A 8 8 0 0 1 837.0000007152557 3713.6000100135807 L 1103.0000007152557 3713.6000100135807 Z" fill-opacity="1" stroke-opacity="1" stroke-miterlimit="10" stroke-width="5"/><text fill="rgb(0,0,0)" stroke="none" font-family="Avenir, Helvetica, Arial, sans-serif" font-size="32px" font-style="normal" font-weight="bold" text-decoration="normal" x="1103.0000007152557" y="3768.6000100135807" text-anchor="middle" dominant-baseline="text-after-edge" fill-opacity="1">ip</text><path fill="rgb(225,240,255)" stroke="rgb(29,122,218)" paint-order="fill stroke markers" d=" M 500 3846.6000107288364 L 766 3846.6000107288364 L 766 3846.6000107288364 A 8 8 0 0 1 774 3854.6000107288364 L 774 3916.6000107288364 L 774 3916.6000107288364 A 8 8 0 0 1 766 3924.6000107288364 L 234 3924.6000107288364 L 234 3924.6000107288364 A 8 8 0 0 1 226 3916.6000107288364 L 226 3854.6000107288364 L 226 3854.6000107288364 A 8 8 0 0 1 234 3846.6000107288364 L 500 3846.6000107288364 Z" fill-opacity="1" stroke-opacity="1" stroke-miterlimit="10" stroke-width="5"/><text fill="rgb(0,0,0)" stroke="none" font-family="Avenir, Helvetica, Arial, sans-serif" font-size="32px" font-style="normal" font-weight="bold" text-decoration="normal" x="500" y="3901.6000107288364" text-anchor="middle" dominant-baseline="text-after-edge" fill-opacity="1">server_type</text><path fill="rgb(225,240,255)" stroke="rgb(29,122,218)" paint-order="fill stroke markers" d=" M 1103.0000007152557 3846.6000107288364 L 1369.0000007152557 3846.6000107288364 L 1369.0000007152557 3846.6000107288364 A 8 8 0 0 1 1377.0000007152557 3854.6000107288364 L 1377.0000007152557 3916.6000107288364 L 1377.0000007152557 3916.6000107288364 A 8 8 0 0 1 1369.0000007152557 3924.6000107288364 L 837.0000007152557 3924.6000107288364 L 837.0000007152557 3924.6000107288364 A 8 8 0 0 1 829.0000007152557 3916.6000107288364 L 829.0000007152557 3854.6000107288364 L 829.0000007152557 3854.6000107288364 A 8 8 0 0 1 837.0000007152557 3846.6000107288364 L 1103.0000007152557 3846.6000107288364 Z" fill-opacity="1" stroke-opacity="1" stroke-miterlimit="10" stroke-width="5"/><text fill="rgb(0,0,0)" stroke="none" font-family="Avenir, Helvetica, Arial, sans-serif" font-size="32px" font-style="normal" font-weight="bold" text-decoration="normal" x="1103.0000007152557" y="3901.6000107288364" text-anchor="middle" dominant-baseline="text-after-edge" fill-opacity="1">network_id</text><path fill="rgb(225,240,255)" stroke="rgb(29,122,218)" paint-order="fill stroke markers" d=" M 500 3979.600011444092 L 766 3979.600011444092 L 766 3979.600011444092 A 8 8 0 0 1 774 3987.600011444092 L 774 4049.600011444092 L 774 4049.600011444092 A 8 8 0 0 1 766 4057.600011444092 L 234 4057.600011444092 L 234 4057.600011444092 A 8 8 0 0 1 226 4049.600011444092 L 226 3987.600011444092 L 226 3987.600011444092 A 8 8 0 0 1 234 3979.600011444092 L 500 3979.600011444092 Z" fill-opacity="1" stroke-opacity="1" stroke-miterlimit="10" stroke-width="5"/><text fill="rgb(0,0,0)" stroke="none" font-family="Avenir, Helvetica, Arial, sans-serif" font-size="32px" font-style="normal" font-weight="bold" text-decoration="normal" x="500" y="4034.600011444092" text-anchor="middle" dominant-baseline="text-after-edge" fill-opacity="1">subnet_id</text><path fill="rgb(225,240,255)" stroke="rgb(29,122,218)" paint-order="fill stroke markers" d=" M 1103.0000007152557 3979.600011444092 L 1369.0000007152557 3979.600011444092 L 1369.0000007152557 3979.600011444092 A 8 8 0 0 1 1377.0000007152557 3987.600011444092 L 1377.0000007152557 4049.600011444092 L 1377.0000007152557 4049.600011444092 A 8 8 0 0 1 1369.0000007152557 4057.600011444092 L 837.0000007152557 4057.600011444092 L 837.0000007152557 4057.600011444092 A 8 8 0 0 1 829.0000007152557 4049.600011444092 L 829.0000007152557 3987.600011444092 L 829.0000007152557 3987.600011444092 A 8 8 0 0 1 837.0000007152557 3979.600011444092 L 1103.0000007152557 3979.600011444092 Z" fill-opacity="1" stroke-opacity="1" stroke-miterlimit="10" stroke-width="5"/><text fill="rgb(0,0,0)" stroke="none" font-family="Avenir, Helvetica, Arial, sans-serif" font-size="32px" font-style="normal" font-weight="bold" text-decoration="normal" x="1103.0000007152557" y="4034.600011444092" text-anchor="middle" dominant-baseline="text-after-edge" fill-opacity="1">datacenter</text><path fill="rgb(225,240,255)" stroke="rgb(29,122,218)" paint-order="fill stroke markers" d=" M 500 4112.600012159348 L 766 4112.600012159348 L 766 4112.600012159348 A 8 8 0 0 1 774 4120.600012159348 L 774 4182.600012159348 L 774 4182.600012159348 A 8 8 0 0 1 766 4190.600012159348 L 234 4190.600012159348 L 234 4190.600012159348 A 8 8 0 0 1 226 4182.600012159348 L 226 4120.600012159348 L 226 4120.600012159348 A 8 8 0 0 1 234 4112.600012159348 L 500 4112.600012159348 Z" fill-opacity="1" stroke-opacity="1" stroke-miterlimit="10" stroke-width="5"/><text fill="rgb(0,0,0)" stroke="none" font-family="Avenir, Helvetica, Arial, sans-serif" font-size="32px" font-style="normal" font-weight="bold" text-decoration="normal" x="500" y="4167.600012159348" text-anchor="middle" dominant-baseline="text-after-edge" fill-opacity="1">user_data</text><path fill="rgb(225,240,255)" stroke="rgb(29,122,218)" paint-order="fill stroke markers" d=" M 1103.0000007152557 4112.600012159348 L 1369.0000007152557 4112.600012159348 L 1369.0000007152557 4112.600012159348 A 8 8 0 0 1 1377.0000007152557 4120.600012159348 L 1377.0000007152557 4182.600012159348 L 1377.0000007152557 4182.600012159348 A 8 8 0 0 1 1369.0000007152557 4190.600012159348 L 837.0000007152557 4190.600012159348 L 837.0000007152557 4190.600012159348 A 8 8 0 0 1 829.0000007152557 4182.600012159348 L 829.0000007152557 4120.600012159348 L 829.0000007152557 4120.600012159348 A 8 8 0 0 1 837.0000007152557 4112.600012159348 L 1103.0000007152557 4112.600012159348 Z" fill-opacity="1" stroke-opacity="1" stroke-miterlimit="10" stroke-width="5"/><text fill="rgb(0,0,0)" stroke="none" font-family="Avenir, Helvetica, Arial, sans-serif" font-size="32px" font-style="normal" font-weight="bold" text-decoration="normal" x="1103.0000007152557" y="4167.600012159348" text-anchor="middle" dominant-baseline="text-after-edge" fill-opacity="1">image</text><path fill="rgb(40,167,69)" stroke="none" paint-order="stroke fill markers" d=" M 1603.0000007152557 1626.0000035762787 L 1869.0000007152557 1626.0000035762787 L 1869.0000007152557 1626.0000035762787 A 8 8 0 0 1 1877.0000007152557 1634.0000035762787 L 1877.0000007152557 1696.0000035762787 L 1877.0000007152557 1696.0000035762787 A 8 8 0 0 1 1869.0000007152557 1704.0000035762787 L 1337.0000007152557 1704.0000035762787 L 1337.0000007152557 1704.0000035762787 A 8 8 0 0 1 1329.0000007152557 1696.0000035762787 L 1329.0000007152557 1634.0000035762787 L 1329.0000007152557 1634.0000035762787 A 8 8 0 0 1 1337.0000007152557 1626.0000035762787 L 1603.0000007152557 1626.0000035762787 Z" fill-opacity="1"/><text fill="rgb(255,255,255)" stroke="none" font-family="Avenir, Helvetica, Arial, sans-serif" font-size="32px" font-style="normal" font-weight="bold" text-decoration="normal" x="1603.0000007152557" y="1681.0000035762787" text-anchor="middle" dominant-baseline="text-after-edge" fill-opacity="1">default</text><path fill="rgb(40,167,69)" stroke="none" paint-order="stroke fill markers" d=" M 1703.0000007152557 2054.2000042915342 L 1969.0000007152557 2054.2000042915342 L 1969.0000007152557 2054.2000042915342 A 8 8 0 0 1 1977.0000007152557 2062.2000042915342 L 1977.0000007152557 2124.2000042915342 L 1977.0000007152557 2124.2000042915342 A 8 8 0 0 1 1969.0000007152557 2132.2000042915342 L 1437.0000007152557 2132.2000042915342 L 1437.0000007152557 2132.2000042915342 A 8 8 0 0 1 1429.0000007152557 2124.2000042915342 L 1429.0000007152557 2062.2000042915342 L 1429.0000007152557 2062.2000042915342 A 8 8 0 0 1 1437.0000007152557 2054.2000042915342 L 1703.0000007152557 2054.2000042915342 Z" fill-opacity="1"/><text fill="rgb(255,255,255)" stroke="none" font-family="Avenir, Helvetica, Arial, sans-serif" font-size="32px" font-style="normal" font-weight="bold" text-decoration="normal" x="1703.0000007152557" y="2109.2000042915342" text-anchor="middle" dominant-baseline="text-after-edge" fill-opacity="1">default[0]</text><path fill="rgb(0,0,0)" stroke="rgb(0,0,0)" paint-order="fill stroke markers" d=" M 2306.0000014305115 261 L 2572.0000014305115 261 L 2572.0000014305115 261 A 8 8 0 0 1 2580.0000014305115 269 L 2580.0000014305115 331 L 2580.0000014305115 331 A 8 8 0 0 1 2572.0000014305115 339 L 2040.0000014305115 339 L 2040.0000014305115 339 A 8 8 0 0 1 2032.0000014305115 331 L 2032.0000014305115 269 L 2032.0000014305115 269 A 8 8 0 0 1 2040.0000014305115 261 L 2306.0000014305115 261 Z" fill-opacity="1" stroke-opacity="1" stroke-miterlimit="10" stroke-width="5"/><text fill="rgb(255,255,255)" stroke="none" font-family="Avenir, Helvetica, Arial, sans-serif" font-size="32px" font-style="normal" font-weight="bold" text-decoration="normal" x="2306.0000014305115" y="316" text-anchor="middle" dominant-baseline="text-after-edge" fill-opacity="1">create_snapshot</text><path fill="rgb(0,0,0)" stroke="rgb(0,0,0)" paint-order="fill stroke markers" d=" M 2306.0000014305115 394.00000071525574 L 2572.0000014305115 394.00000071525574 L 2572.0000014305115 394.00000071525574 A 8 8 0 0 1 2580.0000014305115 402.00000071525574 L 2580.0000014305115 464.00000071525574 L 2580.0000014305115 464.00000071525574 A 8 8 0 0 1 2572.0000014305115 472.00000071525574 L 2040.0000014305115 472.00000071525574 L 2040.0000014305115 472.00000071525574 A 8 8 0 0 1 2032.0000014305115 464.00000071525574 L 2032.0000014305115 402.00000071525574 L 2032.0000014305115 402.00000071525574 A 8 8 0 0 1 2040.0000014305115 394.00000071525574 L 2306.0000014305115 394.00000071525574 Z" fill-opacity="1" stroke-opacity="1" stroke-miterlimit="10" stroke-width="5"/><text fill="rgb(255,255,255)" stroke="none" font-family="Avenir, Helvetica, Arial, sans-serif" font-size="32px" font-style="normal" font-weight="bold" text-decoration="normal" x="2306.0000014305115" y="449.00000071525574" text-anchor="middle" dominant-baseline="text-after-edge" fill-opacity="1">description</text><path fill="rgb(0,0,0)" stroke="rgb(0,0,0)" paint-order="fill stroke markers" d=" M 2306.0000014305115 527.0000014305115 L 2572.0000014305115 527.0000014305115 L 2572.0000014305115 527.0000014305115 A 8 8 0 0 1 2580.0000014305115 535.0000014305115 L 2580.0000014305115 597.0000014305115 L 2580.0000014305115 597.0000014305115 A 8 8 0 0 1 2572.0000014305115 605.0000014305115 L 2040.0000014305115 605.0000014305115 L 2040.0000014305115 605.0000014305115 A 8 8 0 0 1 2032.0000014305115 597.0000014305115 L 2032.0000014305115 535.0000014305115 L 2032.0000014305115 535.0000014305115 A 8 8 0 0 1 2040.0000014305115 527.0000014305115 L 2306.0000014305115 527.0000014305115 Z" fill-opacity="1" stroke-opacity="1" stroke-miterlimit="10" stroke-width="5"/><text fill="rgb(255,255,255)" stroke="none" font-family="Avenir, Helvetica, Arial, sans-serif" font-size="32px" font-style="normal" font-weight="bold" text-decoration="normal" x="2306.0000014305115" y="582.0000014305115" text-anchor="middle" dominant-baseline="text-after-edge" fill-opacity="1">image</text><path fill="rgb(0,0,0)" stroke="rgb(0,0,0)" paint-order="fill stroke markers" d=" M 2306.0000014305115 660.0000021457672 L 2572.0000014305115 660.0000021457672 L 2572.0000014305115 660.0000021457672 A 8 8 0 0 1 2580.0000014305115 668.0000021457672 L 2580.0000014305115 730.0000021457672 L 2580.0000014305115 730.0000021457672 A 8 8 0 0 1 2572.0000014305115 738.0000021457672 L 2040.0000014305115 738.0000021457672 L 2040.0000014305115 738.0000021457672 A 8 8 0 0 1 2032.0000014305115 730.0000021457672 L 2032.0000014305115 668.0000021457672 L 2032.0000014305115 668.0000021457672 A 8 8 0 0 1 2040.0000014305115 660.0000021457672 L 2306.0000014305115 660.0000021457672 Z" fill-opacity="1" stroke-opacity="1" stroke-miterlimit="10" stroke-width="5"/><text fill="rgb(255,255,255)" stroke="none" font-family="Avenir, Helvetica, Arial, sans-serif" font-size="32px" font-style="normal" font-weight="bold" text-decoration="normal" x="2306.0000014305115" y="715.0000021457672" text-anchor="middle" dominant-baseline="text-after-edge" fill-opacity="1">server_name</text><path fill="rgb(0,0,0)" stroke="rgb(0,0,0)" paint-order="fill stroke markers" d=" M 2306.0000014305115 793.000002861023 L 2572.0000014305115 793.000002861023 L 2572.0000014305115 793.000002861023 A 8 8 0 0 1 2580.0000014305115 801.000002861023 L 2580.0000014305115 863.000002861023 L 2580.0000014305115 863.000002861023 A 8 8 0 0 1 2572.0000014305115 871.000002861023 L 2040.0000014305115 871.000002861023 L 2040.0000014305115 871.000002861023 A 8 8 0 0 1 2032.0000014305115 863.000002861023 L 2032.0000014305115 801.000002861023 L 2032.0000014305115 801.000002861023 A 8 8 0 0 1 2040.0000014305115 793.000002861023 L 2306.0000014305115 793.000002861023 Z" fill-opacity="1" stroke-opacity="1" stroke-miterlimit="10" stroke-width="5"/><text fill="rgb(255,255,255)" stroke="none" font-family="Avenir, Helvetica, Arial, sans-serif" font-size="32px" font-style="normal" font-weight="bold" text-decoration="normal" x="2306.0000014305115" y="848.000002861023" text-anchor="middle" dominant-baseline="text-after-edge" fill-opacity="1">server_type</text><path fill="rgb(255,247,224)" stroke="rgb(255,193,7)" paint-order="fill stroke markers" d=" M 1303.0000007152557 261 L 1569.0000007152557 261 L 1569.0000007152557 261 A 8 8 0 0 1 1577.0000007152557 269 L 1577.0000007152557 331 L 1577.0000007152557 331 A 8 8 0 0 1 1569.0000007152557 339 L 1037.0000007152557 339 L 1037.0000007152557 339 A 8 8 0 0 1 1029.0000007152557 331 L 1029.0000007152557 269 L 1029.0000007152557 269 A 8 8 0 0 1 1037.0000007152557 261 L 1303.0000007152557 261 Z" fill-opacity="1" stroke-opacity="1" stroke-miterlimit="10" stroke-width="5"/><text fill="rgb(0,0,0)" stroke="none" font-family="Avenir, Helvetica, Arial, sans-serif" font-size="32px" font-style="normal" font-weight="bold" text-decoration="normal" x="1303.0000007152557" y="316" text-anchor="middle" dominant-baseline="text-after-edge" fill-opacity="1">server_id</text><path fill="rgb(255,247,224)" stroke="rgb(255,193,7)" paint-order="fill stroke markers" d=" M 1303.0000007152557 394.00000071525574 L 1569.0000007152557 394.00000071525574 L 1569.0000007152557 394.00000071525574 A 8 8 0 0 1 1577.0000007152557 402.00000071525574 L 1577.0000007152557 464.00000071525574 L 1577.0000007152557 464.00000071525574 A 8 8 0 0 1 1569.0000007152557 472.00000071525574 L 1037.0000007152557 472.00000071525574 L 1037.0000007152557 472.00000071525574 A 8 8 0 0 1 1029.0000007152557 464.00000071525574 L 1029.0000007152557 402.00000071525574 L 1029.0000007152557 402.00000071525574 A 8 8 0 0 1 1037.0000007152557 394.00000071525574 L 1303.0000007152557 394.00000071525574 Z" fill-opacity="1" stroke-opacity="1" stroke-miterlimit="10" stroke-width="5"/><text fill="rgb(0,0,0)" stroke="none" font-family="Avenir, Helvetica, Arial, sans-serif" font-size="32px" font-style="normal" font-weight="bold" text-decoration="normal" x="1303.0000007152557" y="449.00000071525574" text-anchor="middle" dominant-baseline="text-after-edge" fill-opacity="1">server_name</text><path fill="rgb(255,247,224)" stroke="rgb(255,193,7)" paint-order="fill stroke markers" d=" M 1303.0000007152557 527.0000014305115 L 1569.0000007152557 527.0000014305115 L 1569.0000007152557 527.0000014305115 A 8 8 0 0 1 1577.0000007152557 535.0000014305115 L 1577.0000007152557 597.0000014305115 L 1577.0000007152557 597.0000014305115 A 8 8 0 0 1 1569.0000007152557 605.0000014305115 L 1037.0000007152557 605.0000014305115 L 1037.0000007152557 605.0000014305115 A 8 8 0 0 1 1029.0000007152557 597.0000014305115 L 1029.0000007152557 535.0000014305115 L 1029.0000007152557 535.0000014305115 A 8 8 0 0 1 1037.0000007152557 527.0000014305115 L 1303.0000007152557 527.0000014305115 Z" fill-opacity="1" stroke-opacity="1" stroke-miterlimit="10" stroke-width="5"/><text fill="rgb(0,0,0)" stroke="none" font-family="Avenir, Helvetica, Arial, sans-serif" font-size="32px" font-style="normal" font-weight="bold" text-decoration="normal" x="1303.0000007152557" y="582.0000014305115" text-anchor="middle" dominant-baseline="text-after-edge" fill-opacity="1">server_ipv4_address_public</text><g transform="scale(5,5) translate(-57.7,-9.200000000000001)"/></g></svg>