<svg version="1.1" xmlns="http://www.w3.org/2000/svg" xmlns:xlink="http://www.w3.org/1999/xlink" width="635.2" height="805.6"><defs><linearGradient id="pXZTkLDZsdhK" x1="1303.0000007152557px" x2="1099.1000003576278px" y1="341.5px" y2="1048.5000021457672px" gradientUnits="userSpaceOnUse"><stop offset="0" stop-color="rgb(255,193,7)" stop-opacity="1"/><stop offset="1" stop-color="rgb(132,80,186)" stop-opacity="1"/></linearGradient><linearGradient id="LarHyBBKTViR" x1="1303.0000007152557px" x2="1099.1000003576278px" y1="341.5px" y2="1048.5000021457672px" gradientUnits="userSpaceOnUse"><stop offset="0" stop-color="rgb(255,193,7)" stop-opacity="1"/><stop offset="1" stop-color="rgb(132,80,186)" stop-opacity="1"/></linearGradient><linearGradient id="cSsVsyOBmJCy" x1="1303.0000007152557px" x2="1099.1000003576278px" y1="474.50000071525574px" y2="1048.5000021457672px" gradientUnits="userSpaceOnUse"><stop offset="0" stop-color="rgb(255,193,7)" stop-opacity="1"/><stop offset="1" stop-color="rgb(132,80,186)" stop-opacity="1"/></linearGradient><linearGradient id="OcOffIaBZEOB" x1="1303.0000007152557px" x2="1099.1000003576278px" y1="474.50000071525574px" y2="1048.5000021457672px" gradientUnits="userSpaceOnUse"><stop offset="0" stop-color="rgb(255,193,7)" stop-opacity="1"/><stop offset="1" stop-color="rgb(132,80,186)" stop-opacity="1"/></linearGradient><linearGradient id="XUEONOFxQEdi" x1="1303.0000007152557px" x2="1099.1000003576278px" y1="607.5000014305115px" y2="1048.5000021457672px" gradientUnits="userSpaceOnUse"><stop offset="0" stop-color="rgb(255,193,7)" stop-opacity="1"/><stop offset="1" stop-color="rgb(132,80,186)" stop-opacity="1"/></linearGradient><linearGradient id="lumIBCdScXTi" x1="1303.0000007152557px" x2="1099.1000003576278px" y1="607.5000014305115px" y2="1048.5000021457672px" gradientUnits="userSpaceOnUse"><stop offset="0" stop-color="rgb(255,193,7)" stop-opacity="1"/><stop offset="1" stop-color="rgb(132,80,186)" stop-opacity="1"/></linearGradient><linearGradient id="cQtysTVTNSxM" x1="1099.1000003576278px" x2="2306.0000014305115px" y1="1048.5000021457672px" y2="607.5000014305115px" gradientUnits="userSpaceOnUse"><stop offset="0" stop-color="rgb(132,80,186)" stop-opacity="1"/><stop offset="1" stop-color="rgb(0,0,0)" stop-opacity="1"/></linearGradient><linearGradient id="QSkAWkDqLfrp" x1="1099.1000003576278px" x2="2306.0000014305115px" y1="1048.5000021457672px" y2="341.5px" gradientUnits="userSpaceOnUse"><stop offset="0" stop-color="rgb(132,80,186)" stop-opacity="1"/><stop offset="1" stop-color="rgb(0,0,0)" stop-opacity="1"/></linearGradient><linearGradient id="ZdLlTgqTlRPF" x1="1099.1000003576278px" x2="2306.0000014305115px" y1="1048.5000021457672px" y2="474.50000071525574px" gradientUnits="userSpaceOnUse"><stop offset="0" stop-color="rgb(132,80,186)" stop-opacity="1"/><stop offset="1" stop-color="rgb(0,0,0)" stop-opacity="1"/></linearGradient><linearGradient id="MHQNaBSwQFMJ" x1="1421.7000007152558px" x2="874px" y1="1299.0000021457672px" y2="1399.0000021457672px" gradientUnits="userSpaceOnUse"><stop offset="0" stop-color="rgb(255,193,7)" stop-opacity="1"/><stop offset="1" stop-color="rgb(211,211,211)" stop-opacity="1"/></linearGradient><linearGradient id="FviBpGiqHVwB" x1="1421.7000007152558px" x2="874px" y1="1432.000002861023px" y2="1399.0000021457672px" gradientUnits="userSpaceOnUse"><stop offset="0" stop-color="rgb(255,193,7)" stop-opacity="1"/><stop offset="1" stop-color="rgb(211,211,211)" stop-opacity="1"/></linearGradient><linearGradient id="eqRbyTmOLaSM" x1="1421.7000007152558px" x2="874px" y1="1698.0000042915344px" y2="1399.0000021457672px" gradientUnits="userSpaceOnUse"><stop offset="0" stop-color="rgb(255,193,7)" stop-opacity="1"/><stop offset="1" stop-color="rgb(211,211,211)" stop-opacity="1"/></linearGradient><linearGradient id="NKPPEofbHvha" x1="600px" x2="1103.0000007152557px" y1="1438.0000021457672px" y2="3386.500011444092px" gradientUnits="userSpaceOnUse"><stop offset="0" stop-color="rgb(211,211,211)" stop-opacity="1"/><stop offset="1" stop-color="rgb(29,122,218)" stop-opacity="1"/></linearGradient><linearGradient id="HQuzZANsOqCo" x1="600px" x2="1103.0000007152557px" y1="1438.0000021457672px" y2="2721.500007867813px" gradientUnits="userSpaceOnUse"><stop offset="0" stop-color="rgb(211,211,211)" stop-opacity="1"/><stop offset="1" stop-color="rgb(29,122,218)" stop-opacity="1"/></linearGradient><linearGradient id="PBIFNrWhMUJf" x1="600px" x2="500px" y1="1438.0000021457672px" y2="3386.500011444092px" gradientUnits="userSpaceOnUse"><stop offset="0" stop-color="rgb(211,211,211)" stop-opacity="1"/><stop offset="1" stop-color="rgb(29,122,218)" stop-opacity="1"/></linearGradient><linearGradient id="EWLywTNUuqMu" x1="600px" x2="500px" y1="1438.0000021457672px" y2="2189.50000500679px" gradientUnits="userSpaceOnUse"><stop offset="0" stop-color="rgb(211,211,211)" stop-opacity="1"/><stop offset="1" stop-color="rgb(29,122,218)" stop-opacity="1"/></linearGradient><linearGradient id="rePyFbpopWTM" x1="600px" x2="500px" y1="1438.0000021457672px" y2="2588.5000071525574px" gradientUnits="userSpaceOnUse"><stop offset="0" stop-color="rgb(211,211,211)" stop-opacity="1"/><stop offset="1" stop-color="rgb(29,122,218)" stop-opacity="1"/></linearGradient><linearGradient id="AFTqvvoEvxfn" x1="600px" x2="1103.0000007152557px" y1="1438.0000021457672px" y2="3120.5000100135803px" gradientUnits="userSpaceOnUse"><stop offset="0" stop-color="rgb(211,211,211)" stop-opacity="1"/><stop offset="1" stop-color="rgb(29,122,218)" stop-opacity="1"/></linearGradient><linearGradient id="hBrHvAnHrrIQ" x1="600px" x2="1103.0000007152557px" y1="1438.0000021457672px" y2="2189.50000500679px" gradientUnits="userSpaceOnUse"><stop offset="0" stop-color="rgb(211,211,211)" stop-opacity="1"/><stop offset="1" stop-color="rgb(29,122,218)" stop-opacity="1"/></linearGradient><linearGradient id="qyfzEZAgzvVl" x1="600px" x2="500px" y1="1438.0000021457672px" y2="2987.5000092983246px" gradientUnits="userSpaceOnUse"><stop offset="0" stop-color="rgb(211,211,211)" stop-opacity="1"/><stop offset="1" stop-color="rgb(29,122,218)" stop-opacity="1"/></linearGradient><linearGradient id="cIbrTyVcVQgs" x1="600px" x2="1103.0000007152557px" y1="1438.0000021457672px" y2="2455.5000064373016px" gradientUnits="userSpaceOnUse"><stop offset="0" stop-color="rgb(211,211,211)" stop-opacity="1"/><stop offset="1" stop-color="rgb(29,122,218)" stop-opacity="1"/></linearGradient><linearGradient id="knLhClrLrmFZ" x1="600px" x2="1103.0000007152557px" y1="1438.0000021457672px" y2="2854.500008583069px" gradientUnits="userSpaceOnUse"><stop offset="0" stop-color="rgb(211,211,211)" stop-opacity="1"/><stop offset="1" stop-color="rgb(29,122,218)" stop-opacity="1"/></linearGradient><linearGradient id="NaAnhSGeWWFe" x1="600px" x2="500px" y1="1438.0000021457672px" y2="2721.500007867813px" gradientUnits="userSpaceOnUse"><stop offset="0" stop-color="rgb(211,211,211)" stop-opacity="1"/><stop offset="1" stop-color="rgb(29,122,218)" stop-opacity="1"/></linearGradient><linearGradient id="wVmaqMxsVFMC" x1="600px" x2="500px" y1="1438.0000021457672px" y2="3120.5000100135803px" gradientUnits="userSpaceOnUse"><stop offset="0" stop-color="rgb(211,211,211)" stop-opacity="1"/><stop offset="1" stop-color="rgb(29,122,218)" stop-opacity="1"/></linearGradient><linearGradient id="ipOCIuBTgpap" x1="600px" x2="500px" y1="1438.0000021457672px" y2="3253.500010728836px" gradientUnits="userSpaceOnUse"><stop offset="0" stop-color="rgb(211,211,211)" stop-opacity="1"/><stop offset="1" stop-color="rgb(29,122,218)" stop-opacity="1"/></linearGradient><linearGradient id="TMfKutTBoiCc" x1="600px" x2="1103.0000007152557px" y1="1438.0000021457672px" y2="2987.5000092983246px" gradientUnits="userSpaceOnUse"><stop offset="0" stop-color="rgb(211,211,211)" stop-opacity="1"/><stop offset="1" stop-color="rgb(29,122,218)" stop-opacity="1"/></linearGradient><linearGradient id="XitEoKJMnGwG" x1="600px" x2="500px" y1="1438.0000021457672px" y2="2854.500008583069px" gradientUnits="userSpaceOnUse"><stop offset="0" stop-color="rgb(211,211,211)" stop-opacity="1"/><stop offset="1" stop-color="rgb(29,122,218)" stop-opacity="1"/></linearGradient></defs><g transform="translate(57.7,9.200000000000001) scale(0.2,0.2)"><path fill="rgb(244,236,255)" stroke="rgb(255,255,255)" paint-order="fill stroke markers" d=" M 1299.2500007152557 -44 L 2877.0000014305115 -44 L 2877.0000014305115 -44 A 8 8 0 0 1 2885.0000014305115 -36 L 2885.0000014305115 3971.500011444092 L 2885.0000014305115 3971.500011444092 A 8 8 0 0 1 2877.0000014305115 3979.500011444092 L -278.5 3979.500011444092 L -278.5 3979.500011444092 A 8 8 0 0 1 -286.5 3971.500011444092 L -286.5 -36 L -286.5 -36 A 8 8 0 0 1 -278.5 -44 L 1299.2500007152557 -44 Z" fill-opacity="1" stroke-opacity="1" stroke-miterlimit="10" stroke-width="2"/><text fill="rgb(0,0,0)" stroke="none" font-family="Avenir, Helvetica, Arial, sans-serif" font-size="32px" font-style="normal" font-weight="bold" text-decoration="normal" x="1299.2500007152557" y="31" text-anchor="middle" dominant-baseline="text-after-edge" fill-opacity="1">.</text><path fill="rgb(255,255,255)" stroke="rgb(211,211,211)" paint-order="fill stroke markers" d=" M 1303.0000007152557 157.5 L 1672.5000007152557 157.5 L 1672.5000007152557 157.5 A 8 8 0 0 1 1680.5000007152557 165.5 L 1680.5000007152557 700.5000014305115 L 1680.5000007152557 700.5000014305115 A 8 8 0 0 1 1672.5000007152557 708.5000014305115 L 933.5000007152557 708.5000014305115 L 933.5000007152557 708.5000014305115 A 8 8 0 0 1 925.5000007152557 700.5000014305115 L 925.5000007152557 165.5 L 925.5000007152557 165.5 A 8 8 0 0 1 933.5000007152557 157.5 L 1303.0000007152557 157.5 Z" fill-opacity="1" stroke-opacity="1" stroke-miterlimit="10"/><text fill="rgb(0,0,0)" stroke="none" font-family="Avenir, Helvetica, Arial, sans-serif" font-size="32px" font-style="normal" font-weight="bold" text-decoration="normal" x="1303.0000007152557" y="232.5" text-anchor="middle" dominant-baseline="text-after-edge" fill-opacity="1">outputs.tf</text><path fill="rgb(255,255,255)" stroke="rgb(211,211,211)" paint-order="fill stroke markers" d=" M 300 157.5 L 669.5 157.5 L 669.5 157.5 A 8 8 0 0 1 677.5 165.5 L 677.5 434.5 L 677.5 434.5 A 8 8 0 0 1 669.5 442.5 L -69.5 442.5 L -69.5 442.5 A 8 8 0 0 1 -77.5 434.5 L -77.5 165.5 L -77.5 165.5 A 8 8 0 0 1 -69.5 157.5 L 300 157.5 Z" fill-opacity="1" stroke-opacity="1" stroke-miterlimit="10"/><text fill="rgb(0,0,0)" stroke="none" font-family="Avenir, Helvetica, Arial, sans-serif" font-size="32px" font-style="normal" font-weight="bold" text-decoration="normal" x="300" y="232.5" text-anchor="middle" dominant-baseline="text-after-edge" fill-opacity="1">variables.tf</text><path fill="rgb(255,255,255)" stroke="rgb(211,211,211)" paint-order="fill stroke markers" d=" M 1099.1000003576278 947.5000021457672 L 2275.2000007152556 947.5000021457672 L 2275.2000007152556 947.5000021457672 A 8 8 0 0 1 2283.2000007152556 955.5000021457672 L 2283.2000007152556 3770.000011444092 L 2283.2000007152556 3770.000011444092 A 8 8 0 0 1 2275.2000007152556 3778.000011444092 L -77 3778.000011444092 L -77 3778.000011444092 A 8 8 0 0 1 -85 3770.000011444092 L -85 955.5000021457672 L -85 955.5000021457672 A 8 8 0 0 1 -77 947.5000021457672 L 1099.1000003576278 947.5000021457672 Z" fill-opacity="1" stroke-opacity="1" stroke-miterlimit="10"/><text fill="rgb(0,0,0)" stroke="none" font-family="Avenir, Helvetica, Arial, sans-serif" font-size="32px" font-style="normal" font-weight="bold" text-decoration="normal" x="1099.1000003576278" y="1022.5000021457672" text-anchor="middle" dominant-baseline="text-after-edge" fill-opacity="1">main.tf</text><path fill="rgb(255,255,255)" stroke="rgb(211,211,211)" paint-order="fill stroke markers" d=" M 2306.0000014305115 157.5 L 2675.5000014305115 157.5 L 2675.5000014305115 157.5 A 8 8 0 0 1 2683.5000014305115 165.5 L 2683.5000014305115 700.5000014305115 L 2683.5000014305115 700.5000014305115 A 8 8 0 0 1 2675.5000014305115 708.5000014305115 L 1936.5000014305115 708.5000014305115 L 1936.5000014305115 708.5000014305115 A 8 8 0 0 1 1928.5000014305115 700.5000014305115 L 1928.5000014305115 165.5 L 1928.5000014305115 165.5 A 8 8 0 0 1 1936.5000014305115 157.5 L 2306.0000014305115 157.5 Z" fill-opacity="1" stroke-opacity="1" stroke-miterlimit="10"/><text fill="rgb(0,0,0)" stroke="none" font-family="Avenir, Helvetica, Arial, sans-serif" font-size="32px" font-style="normal" font-weight="bold" text-decoration="normal" x="2306.0000014305115" y="232.5" text-anchor="middle" dominant-baseline="text-after-edge" fill-opacity="1">unknown file</text><path fill="rgb(255,255,255)" stroke="rgb(132,80,186)" paint-order="fill stroke markers" d=" M 1099.1000003576278 1053.5000021457672 L 2169.2000007152556 1053.5000021457672 L 2169.2000007152556 1053.5000021457672 A 8 8 0 0 1 2177.2000007152556 1061.5000021457672 L 2177.2000007152556 3664.000011444092 L 2177.2000007152556 3664.000011444092 A 8 8 0 0 1 2169.2000007152556 3672.000011444092 L 29 3672.000011444092 L 29 3672.000011444092 A 8 8 0 0 1 21 3664.000011444092 L 21 1061.5000021457672 L 21 1061.5000021457672 A 8 8 0 0 1 29 1053.5000021457672 L 1099.1000003576278 1053.5000021457672 Z" fill-opacity="1" stroke-opacity="1" stroke-miterlimit="10" stroke-width="10"/><text fill="rgb(132,80,186)" stroke="none" font-family="Avenir, Helvetica, Arial, sans-serif" font-size="32px" font-style="normal" font-weight="bold" text-decoration="normal" x="1099.1000003576278" y="1113.5000021457672" text-anchor="middle" dominant-baseline="text-after-edge" fill-opacity="1">hcloud_server</text><path fill="rgb(255,255,255)" stroke="rgb(211,211,211)" paint-order="fill stroke markers" d=" M 1698.2000007152558 1156.5000021457672 L 2067.7000007152556 1156.5000021457672 L 2067.7000007152556 1156.5000021457672 A 8 8 0 0 1 2075.7000007152556 1164.5000021457672 L 2075.7000007152556 1832.5000042915344 L 2075.7000007152556 1832.5000042915344 A 8 8 0 0 1 2067.7000007152556 1840.5000042915344 L 1328.7000007152558 1840.5000042915344 L 1328.7000007152558 1840.5000042915344 A 8 8 0 0 1 1320.7000007152558 1832.5000042915344 L 1320.7000007152558 1164.5000021457672 L 1320.7000007152558 1164.5000021457672 A 8 8 0 0 1 1328.7000007152558 1156.5000021457672 L 1698.2000007152558 1156.5000021457672 Z" fill-opacity="1" stroke-opacity="1" stroke-miterlimit="10"/><text fill="rgb(0,0,0)" stroke="none" font-family="Avenir, Helvetica, Arial, sans-serif" font-size="32px" font-style="normal" font-weight="bold" text-decoration="normal" x="1698.2000007152558" y="1231.5000021457672" text-anchor="middle" dominant-baseline="text-after-edge" fill-opacity="1">outputs.tf</text><path fill="rgb(255,255,255)" stroke="rgb(211,211,211)" paint-order="fill stroke markers" d=" M 801.5000003576279 2088.50000500679 L 1472.5000007152557 2088.50000500679 L 1472.5000007152557 2088.50000500679 A 8 8 0 0 1 1480.5000007152557 2096.50000500679 L 1480.5000007152557 3562.500011444092 L 1480.5000007152557 3562.500011444092 A 8 8 0 0 1 1472.5000007152557 3570.500011444092 L 130.5 3570.500011444092 L 130.5 3570.500011444092 A 8 8 0 0 1 122.5 3562.500011444092 L 122.5 2096.50000500679 L 122.5 2096.50000500679 A 8 8 0 0 1 130.5 2088.50000500679 L 801.5000003576279 2088.50000500679 Z" fill-opacity="1" stroke-opacity="1" stroke-miterlimit="10"/><text fill="rgb(0,0,0)" stroke="none" font-family="Avenir, Helvetica, Arial, sans-serif" font-size="32px" font-style="normal" font-weight="bold" text-decoration="normal" x="801.5000003576279" y="2163.50000500679" text-anchor="middle" dominant-baseline="text-after-edge" fill-opacity="1">variables.tf</text><path fill="rgb(255,255,255)" stroke="rgb(211,211,211)" paint-order="fill stroke markers" d=" M 600 1155.0000021457672 L 1025.5 1155.0000021457672 L 1025.5 1155.0000021457672 A 8 8 0 0 1 1033.5 1163.0000021457672 L 1033.5 1589.5000021457672 L 1033.5 1589.5000021457672 A 8 8 0 0 1 1025.5 1597.5000021457672 L 174.5 1597.5000021457672 L 174.5 1597.5000021457672 A 8 8 0 0 1 166.5 1589.5000021457672 L 166.5 1163.0000021457672 L 166.5 1163.0000021457672 A 8 8 0 0 1 174.5 1155.0000021457672 L 600 1155.0000021457672 Z" fill-opacity="1" stroke-opacity="1" stroke-miterlimit="10"/><text fill="rgb(0,0,0)" stroke="none" font-family="Avenir, Helvetica, Arial, sans-serif" font-size="32px" font-style="normal" font-weight="bold" text-decoration="normal" x="600" y="1230.0000021457672" text-anchor="middle" dominant-baseline="text-after-edge" fill-opacity="1">main.tf</text><path fill="rgb(255,255,255)" stroke="rgb(0,0,0)" paint-order="fill stroke markers" d=" M 600 1304.0000021457672 L 922 1304.0000021457672 L 922 1304.0000021457672 A 8 8 0 0 1 930 1312.0000021457672 L 930 1486.0000021457672 L 930 1486.0000021457672 A 8 8 0 0 1 922 1494.0000021457672 L 278 1494.0000021457672 L 278 1494.0000021457672 A 8 8 0 0 1 270 1486.0000021457672 L 270 1312.0000021457672 L 270 1312.0000021457672 A 8 8 0 0 1 278 1304.0000021457672 L 600 1304.0000021457672 Z" fill-opacity="1" stroke-opacity="1" stroke-miterlimit="10" stroke-width="5"/><rect fill="rgb(255,255,255)" stroke="none" x="463.5" y="1255.0000021457672" width="273" height="96" fill-opacity="1"/><text fill="rgb(0,0,0)" stroke="none" font-family="Avenir, Helvetica, Arial, sans-serif" font-size="32px" font-style="normal" font-weight="bold" text-decoration="normal" x="600" y="1319.0000021457672" text-anchor="middle" dominant-baseline="text-after-edge" fill-opacity="1">hcloud_server</text><path fill="none" stroke="url(#pXZTkLDZsdhK)" paint-order="fill stroke markers" d=" M 1303.0000007152557 341.5 L 1303.0000007152557 695.0000010728836 L 1099.1000003576278 695.0000010728836 L 1099.1000003576278 1048.5000021457672" stroke-linejoin="round" stroke-miterlimit="10" stroke-width="10"/><path fill="none" stroke="url(#LarHyBBKTViR)" paint-order="fill stroke markers" d=" M 1303.0000007152557 341.5 L 1303.0000007152557 695.0000010728836 L 1099.1000003576278 695.0000010728836 L 1099.1000003576278 1048.5000021457672" stroke-linejoin="round" stroke-miterlimit="10" stroke-width="10"/><path fill="none" stroke="url(#cSsVsyOBmJCy)" paint-order="fill stroke markers" d=" M 1303.0000007152557 474.50000071525574 L 1303.0000007152557 761.5000014305115 L 1099.1000003576278 761.5000014305115 L 1099.1000003576278 1048.5000021457672" stroke-linejoin="round" stroke-miterlimit="10" stroke-width="10"/><path fill="none" stroke="url(#OcOffIaBZEOB)" paint-order="fill stroke markers" d=" M 1303.0000007152557 474.50000071525574 L 1303.0000007152557 761.5000014305115 L 1099.1000003576278 761.5000014305115 L 1099.1000003576278 1048.5000021457672" stroke-linejoin="round" stroke-miterlimit="10" stroke-width="10"/><path fill="none" stroke="url(#XUEONOFxQEdi)" paint-order="fill stroke markers" d=" M 1303.0000007152557 607.5000014305115 L 1303.0000007152557 828.0000017881393 L 1099.1000003576278 828.0000017881393 L 1099.1000003576278 1048.5000021457672" stroke-linejoin="round" stroke-miterlimit="10" stroke-width="10"/><path fill="none" stroke="url(#lumIBCdScXTi)" paint-order="fill stroke markers" d=" M 1303.0000007152557 607.5000014305115 L 1303.0000007152557 828.0000017881393 L 1099.1000003576278 828.0000017881393 L 1099.1000003576278 1048.5000021457672" stroke-linejoin="round" stroke-miterlimit="10" stroke-width="10"/><path fill="none" stroke="url(#cQtysTVTNSxM)" paint-order="fill stroke markers" d=" M 1099.1000003576278 1048.5000021457672 L 1099.1000003576278 828.0000017881393 L 2306.0000014305115 828.0000017881393 L 2306.0000014305115 607.5000014305115" stroke-linejoin="round" stroke-miterlimit="10" stroke-width="10"/><path fill="none" stroke="url(#QSkAWkDqLfrp)" paint-order="fill stroke markers" d=" M 1099.1000003576278 1048.5000021457672 L 1099.1000003576278 695.0000010728836 L 2306.0000014305115 695.0000010728836 L 2306.0000014305115 341.5" stroke-linejoin="round" stroke-miterlimit="10" stroke-width="10"/><path fill="none" stroke="url(#ZdLlTgqTlRPF)" paint-order="fill stroke markers" d=" M 1099.1000003576278 1048.5000021457672 L 1099.1000003576278 761.5000014305115 L 2306.0000014305115 761.5000014305115 L 2306.0000014305115 474.50000071525574" stroke-linejoin="round" stroke-miterlimit="10" stroke-width="10"/><path fill="none" stroke="url(#MHQNaBSwQFMJ)" paint-order="fill stroke markers" d=" M 1421.7000007152558 1299.0000021457672 L 1147.8500003576278 1299.0000021457672 L 1147.8500003576278 1399.0000021457672 L 874 1399.0000021457672" stroke-linejoin="round" stroke-miterlimit="10" stroke-width="10"/><path fill="none" stroke="url(#FviBpGiqHVwB)" paint-order="fill stroke markers" d=" M 1421.7000007152558 1432.000002861023 L 1147.8500003576278 1432.000002861023 L 1147.8500003576278 1399.0000021457672 L 874 1399.0000021457672" stroke-linejoin="round" stroke-miterlimit="10" stroke-width="10"/><path fill="none" stroke="url(#eqRbyTmOLaSM)" paint-order="fill stroke markers" d=" M 1421.7000007152558 1698.0000042915344 L 1147.8500003576278 1698.0000042915344 L 1147.8500003576278 1399.0000021457672 L 874 1399.0000021457672" stroke-linejoin="round" stroke-miterlimit="10" stroke-width="10"/><path fill="none" stroke="url(#NKPPEofbHvha)" paint-order="fill stroke markers" d=" M 600 1438.0000021457672 L 600 2412.2500067949295 L 1103.0000007152557 2412.2500067949295 L 1103.0000007152557 3386.500011444092" stroke-linejoin="round" stroke-miterlimit="10" stroke-width="10"/><path fill="none" stroke="url(#HQuzZANsOqCo)" paint-order="fill stroke markers" d=" M 600 1438.0000021457672 L 600 2079.75000500679 L 1103.0000007152557 2079.75000500679 L 1103.0000007152557 2721.500007867813" stroke-linejoin="round" stroke-miterlimit="10" stroke-width="10"/><path fill="none" stroke="url(#PBIFNrWhMUJf)" paint-order="fill stroke markers" d=" M 600 1438.0000021457672 L 600 2412.2500067949295 L 500 2412.2500067949295 L 500 3386.500011444092" stroke-linejoin="round" stroke-miterlimit="10" stroke-width="10"/><path fill="none" stroke="url(#EWLywTNUuqMu)" paint-order="fill stroke markers" d=" M 600 1438.0000021457672 L 600 1813.7500035762787 L 500 1813.7500035762787 L 500 2189.50000500679" stroke-linejoin="round" stroke-miterlimit="10" stroke-width="10"/><path fill="none" stroke="url(#rePyFbpopWTM)" paint-order="fill stroke markers" d=" M 600 1438.0000021457672 L 600 2013.2500046491623 L 500 2013.2500046491623 L 500 2588.5000071525574" stroke-linejoin="round" stroke-miterlimit="10" stroke-width="10"/><path fill="none" stroke="url(#AFTqvvoEvxfn)" paint-order="fill stroke markers" d=" M 600 1438.0000021457672 L 600 2279.2500060796738 L 1103.0000007152557 2279.2500060796738 L 1103.0000007152557 3120.5000100135803" stroke-linejoin="round" stroke-miterlimit="10" stroke-width="10"/><path fill="none" stroke="url(#hBrHvAnHrrIQ)" paint-order="fill stroke markers" d=" M 600 1438.0000021457672 L 600 1813.7500035762787 L 1103.0000007152557 1813.7500035762787 L 1103.0000007152557 2189.50000500679" stroke-linejoin="round" stroke-miterlimit="10" stroke-width="10"/><path fill="none" stroke="url(#qyfzEZAgzvVl)" paint-order="fill stroke markers" d=" M 600 1438.0000021457672 L 600 2212.750005722046 L 500 2212.750005722046 L 500 2987.5000092983246" stroke-linejoin="round" stroke-miterlimit="10" stroke-width="10"/><path fill="none" stroke="url(#cIbrTyVcVQgs)" paint-order="fill stroke markers" d=" M 600 1438.0000021457672 L 600 1946.7500042915344 L 1103.0000007152557 1946.7500042915344 L 1103.0000007152557 2455.5000064373016" stroke-linejoin="round" stroke-miterlimit="10" stroke-width="10"/><path fill="none" stroke="url(#knLhClrLrmFZ)" paint-order="fill stroke markers" d=" M 600 1438.0000021457672 L 600 2146.250005364418 L 1103.0000007152557 2146.250005364418 L 1103.0000007152557 2854.500008583069" stroke-linejoin="round" stroke-miterlimit="10" stroke-width="10"/><path fill="none" stroke="url(#NaAnhSGeWWFe)" paint-order="fill stroke markers" d=" M 600 1438.0000021457672 L 600 2079.75000500679 L 500 2079.75000500679 L 500 2721.500007867813" stroke-linejoin="round" stroke-miterlimit="10" stroke-width="10"/><path fill="none" stroke="url(#wVmaqMxsVFMC)" paint-order="fill stroke markers" d=" M 600 1438.0000021457672 L 600 2279.2500060796738 L 500 2279.2500060796738 L 500 3120.5000100135803" stroke-linejoin="round" stroke-miterlimit="10" stroke-width="10"/><path fill="none" stroke="url(#ipOCIuBTgpap)" paint-order="fill stroke markers" d=" M 600 1438.0000021457672 L 600 2345.7500064373016 L 500 2345.7500064373016 L 500 3253.500010728836" stroke-linejoin="round" stroke-miterlimit="10" stroke-width="10"/><path fill="none" stroke="url(#TMfKutTBoiCc)" paint-order="fill stroke markers" d=" M 600 1438.0000021457672 L 600 2212.750005722046 L 1103.0000007152557 2212.750005722046 L 1103.0000007152557 2987.5000092983246" stroke-linejoin="round" stroke-miterlimit="10" stroke-width="10"/><path fill="none" stroke="url(#XitEoKJMnGwG)" paint-order="fill stroke markers" d=" M 600 1438.0000021457672 L 600 2146.250005364418 L 500 2146.250005364418 L 500 2854.500008583069" stroke-linejoin="round" stroke-miterlimit="10" stroke-width="10"/><path fill="rgb(255,247,224)" stroke="rgb(255,193,7)" paint-order="fill stroke markers" d=" M 1303.0000007152557 261 L 1569.0000007152557 261 L 1569.0000007152557 261 A 8 8 0 0 1 1577.0000007152557 269 L 1577.0000007152557 331 L 1577.0000007152557 331 A 8 8 0 0 1 1569.0000007152557 339 L 1037.0000007152557 339 L 1037.0000007152557 339 A 8 8 0 0 1 1029.0000007152557 331 L 1029.0000007152557 269 L 1029.0000007152557 269 A 8 8 0 0 1 1037.0000007152557 261 L 1303.0000007152557 261 Z" fill-opacity="1" stroke-opacity="1" stroke-miterlimit="10" stroke-width="5"/><text fill="rgb(0,0,0)" stroke="none" font-family="Avenir, Helvetica, Arial, sans-serif" font-size="32px" font-style="normal" font-weight="bold" text-decoration="normal" x="1303.0000007152557" y="316" text-anchor="middle" dominant-baseline="text-after-edge" fill-opacity="1">server_id</text><path fill="rgb(255,247,224)" stroke="rgb(255,193,7)" paint-order="fill stroke markers" d=" M 1303.0000007152557 394.00000071525574 L 1569.0000007152557 394.00000071525574 L 1569.0000007152557 394.00000071525574 A 8 8 0 0 1 1577.0000007152557 402.00000071525574 L 1577.0000007152557 464.00000071525574 L 1577.0000007152557 464.00000071525574 A 8 8 0 0 1 1569.0000007152557 472.00000071525574 L 1037.0000007152557 472.00000071525574 L 1037.0000007152557 472.00000071525574 A 8 8 0 0 1 1029.0000007152557 464.00000071525574 L 1029.0000007152557 402.00000071525574 L 1029.0000007152557 402.00000071525574 A 8 8 0 0 1 1037.0000007152557 394.00000071525574 L 1303.0000007152557 394.00000071525574 Z" fill-opacity="1" stroke-opacity="1" stroke-miterlimit="10" stroke-width="5"/><text fill="rgb(0,0,0)" stroke="none" font-family="Avenir, Helvetica, Arial, sans-serif" font-size="32px" font-style="normal" font-weight="bold" text-decoration="normal" x="1303.0000007152557" y="449.00000071525574" text-anchor="middle" dominant-baseline="text-after-edge" fill-opacity="1">server_name</text><path fill="rgb(255,247,224)" stroke="rgb(255,193,7)" paint-order="fill stroke markers" d=" M 1303.0000007152557 527.0000014305115 L 1569.0000007152557 527.0000014305115 L 1569.0000007152557 527.0000014305115 A 8 8 0 0 1 1577.0000007152557 535.0000014305115 L 1577.0000007152557 597.0000014305115 L 1577.0000007152557 597.0000014305115 A 8 8 0 0 1 1569.0000007152557 605.0000014305115 L 1037.0000007152557 605.0000014305115 L 1037.0000007152557 605.0000014305115 A 8 8 0 0 1 1029.0000007152557 597.0000014305115 L 1029.0000007152557 535.0000014305115 L 1029.0000007152557 535.0000014305115 A 8 8 0 0 1 1037.0000007152557 527.0000014305115 L 1303.0000007152557 527.0000014305115 Z" fill-opacity="1" stroke-opacity="1" stroke-miterlimit="10" stroke-width="5"/><text fill="rgb(0,0,0)" stroke="none" font-family="Avenir, Helvetica, Arial, sans-serif" font-size="32px" font-style="normal" font-weight="bold" text-decoration="normal" x="1303.0000007152557" y="582.0000014305115" text-anchor="middle" dominant-baseline="text-after-edge" fill-opacity="1">server_ipv4_address_public</text><path fill="rgb(225,240,255)" stroke="rgb(29,122,218)" paint-order="fill stroke markers" d=" M 300 261 L 566 261 L 566 261 A 8 8 0 0 1 574 269 L 574 331 L 574 331 A 8 8 0 0 1 566 339 L 34 339 L 34 339 A 8 8 0 0 1 26 331 L 26 269 L 26 269 A 8 8 0 0 1 34 261 L 300 261 Z" fill-opacity="1" stroke-opacity="1" stroke-miterlimit="10" stroke-width="5"/><text fill="rgb(0,0,0)" stroke="none" font-family="Avenir, Helvetica, Arial, sans-serif" font-size="32px" font-style="normal" font-weight="bold" text-decoration="normal" x="300" y="316" text-anchor="middle" dominant-baseline="text-after-edge" fill-opacity="1">token</text><path fill="rgb(255,247,224)" stroke="rgb(255,193,7)" paint-order="fill stroke markers" d=" M 1698.2000007152558 1260.0000021457672 L 1964.2000007152558 1260.0000021457672 L 1964.2000007152558 1260.0000021457672 A 8 8 0 0 1 1972.2000007152558 1268.0000021457672 L 1972.2000007152558 1330.0000021457672 L 1972.2000007152558 1330.0000021457672 A 8 8 0 0 1 1964.2000007152558 1338.0000021457672 L 1432.2000007152558 1338.0000021457672 L 1432.2000007152558 1338.0000021457672 A 8 8 0 0 1 1424.2000007152558 1330.0000021457672 L 1424.2000007152558 1268.0000021457672 L 1424.2000007152558 1268.0000021457672 A 8 8 0 0 1 1432.2000007152558 1260.0000021457672 L 1698.2000007152558 1260.0000021457672 Z" fill-opacity="1" stroke-opacity="1" stroke-miterlimit="10" stroke-width="5"/><text fill="rgb(0,0,0)" stroke="none" font-family="Avenir, Helvetica, Arial, sans-serif" font-size="32px" font-style="normal" font-weight="bold" text-decoration="normal" x="1698.2000007152558" y="1315.0000021457672" text-anchor="middle" dominant-baseline="text-after-edge" fill-opacity="1">name</text><path fill="rgb(255,247,224)" stroke="rgb(255,193,7)" paint-order="fill stroke markers" d=" M 1698.2000007152558 1393.000002861023 L 1964.2000007152558 1393.000002861023 L 1964.2000007152558 1393.000002861023 A 8 8 0 0 1 1972.2000007152558 1401.000002861023 L 1972.2000007152558 1463.000002861023 L 1972.2000007152558 1463.000002861023 A 8 8 0 0 1 1964.2000007152558 1471.000002861023 L 1432.2000007152558 1471.000002861023 L 1432.2000007152558 1471.000002861023 A 8 8 0 0 1 1424.2000007152558 1463.000002861023 L 1424.2000007152558 1401.000002861023 L 1424.2000007152558 1401.000002861023 A 8 8 0 0 1 1432.2000007152558 1393.000002861023 L 1698.2000007152558 1393.000002861023 Z" fill-opacity="1" stroke-opacity="1" stroke-miterlimit="10" stroke-width="5"/><text fill="rgb(0,0,0)" stroke="none" font-family="Avenir, Helvetica, Arial, sans-serif" font-size="32px" font-style="normal" font-weight="bold" text-decoration="normal" x="1698.2000007152558" y="1448.000002861023" text-anchor="middle" dominant-baseline="text-after-edge" fill-opacity="1">ipv4_address_public</text><path fill="rgb(255,247,224)" stroke="rgb(255,193,7)" paint-order="fill stroke markers" d=" M 1698.2000007152558 1526.0000035762787 L 1964.2000007152558 1526.0000035762787 L 1964.2000007152558 1526.0000035762787 A 8 8 0 0 1 1972.2000007152558 1534.0000035762787 L 1972.2000007152558 1596.0000035762787 L 1972.2000007152558 1596.0000035762787 A 8 8 0 0 1 1964.2000007152558 1604.0000035762787 L 1432.2000007152558 1604.0000035762787 L 1432.2000007152558 1604.0000035762787 A 8 8 0 0 1 1424.2000007152558 1596.0000035762787 L 1424.2000007152558 1534.0000035762787 L 1424.2000007152558 1534.0000035762787 A 8 8 0 0 1 1432.2000007152558 1526.0000035762787 L 1698.2000007152558 1526.0000035762787 Z" fill-opacity="1" stroke-opacity="1" stroke-miterlimit="10" stroke-width="5"/><text fill="rgb(0,0,0)" stroke="none" font-family="Avenir, Helvetica, Arial, sans-serif" font-size="32px" font-style="normal" font-weight="bold" text-decoration="normal" x="1698.2000007152558" y="1581.0000035762787" text-anchor="middle" dominant-baseline="text-after-edge" fill-opacity="1">ipv4_address_private</text><path fill="rgb(255,247,224)" stroke="rgb(255,193,7)" paint-order="fill stroke markers" d=" M 1698.2000007152558 1659.0000042915344 L 1964.2000007152558 1659.0000042915344 L 1964.2000007152558 1659.0000042915344 A 8 8 0 0 1 1972.2000007152558 1667.0000042915344 L 1972.2000007152558 1729.0000042915344 L 1972.2000007152558 1729.0000042915344 A 8 8 0 0 1 1964.2000007152558 1737.0000042915344 L 1432.2000007152558 1737.0000042915344 L 1432.2000007152558 1737.0000042915344 A 8 8 0 0 1 1424.2000007152558 1729.0000042915344 L 1424.2000007152558 1667.0000042915344 L 1424.2000007152558 1667.0000042915344 A 8 8 0 0 1 1432.2000007152558 1659.0000042915344 L 1698.2000007152558 1659.0000042915344 Z" fill-opacity="1" stroke-opacity="1" stroke-miterlimit="10" stroke-width="5"/><text fill="rgb(0,0,0)" stroke="none" font-family="Avenir, Helvetica, Arial, sans-serif" font-size="32px" font-style="normal" font-weight="bold" text-decoration="normal" x="1698.2000007152558" y="1714.0000042915344" text-anchor="middle" dominant-baseline="text-after-edge" fill-opacity="1">id</text><path fill="rgb(225,240,255)" stroke="rgb(29,122,218)" paint-order="fill stroke markers" d=" M 500 2192.00000500679 L 766 2192.00000500679 L 766 2192.00000500679 A 8 8 0 0 1 774 2200.00000500679 L 774 2262.00000500679 L 774 2262.00000500679 A 8 8 0 0 1 766 2270.00000500679 L 234 2270.00000500679 L 234 2270.00000500679 A 8 8 0 0 1 226 2262.00000500679 L 226 2200.00000500679 L 226 2200.00000500679 A 8 8 0 0 1 234 2192.00000500679 L 500 2192.00000500679 Z" fill-opacity="1" stroke-opacity="1" stroke-miterlimit="10" stroke-width="5"/><text fill="rgb(0,0,0)" stroke="none" font-family="Avenir, Helvetica, Arial, sans-serif" font-size="32px" font-style="normal" font-weight="bold" text-decoration="normal" x="500" y="2247.00000500679" text-anchor="middle" dominant-baseline="text-after-edge" fill-opacity="1">iso</text><path fill="rgb(225,240,255)" stroke="rgb(29,122,218)" paint-order="fill stroke markers" d=" M 1103.0000007152557 2192.00000500679 L 1369.0000007152557 2192.00000500679 L 1369.0000007152557 2192.00000500679 A 8 8 0 0 1 1377.0000007152557 2200.00000500679 L 1377.0000007152557 2262.00000500679 L 1377.0000007152557 2262.00000500679 A 8 8 0 0 1 1369.0000007152557 2270.00000500679 L 837.0000007152557 2270.00000500679 L 837.0000007152557 2270.00000500679 A 8 8 0 0 1 829.0000007152557 2262.00000500679 L 829.0000007152557 2200.00000500679 L 829.0000007152557 2200.00000500679 A 8 8 0 0 1 837.0000007152557 2192.00000500679 L 1103.0000007152557 2192.00000500679 Z" fill-opacity="1" stroke-opacity="1" stroke-miterlimit="10" stroke-width="5"/><text fill="rgb(0,0,0)" stroke="none" font-family="Avenir, Helvetica, Arial, sans-serif" font-size="32px" font-style="normal" font-weight="bold" text-decoration="normal" x="1103.0000007152557" y="2247.00000500679" text-anchor="middle" dominant-baseline="text-after-edge" fill-opacity="1">firewall_ids</text><path fill="rgb(225,240,255)" stroke="rgb(29,122,218)" paint-order="fill stroke markers" d=" M 500 2325.000005722046 L 766 2325.000005722046 L 766 2325.000005722046 A 8 8 0 0 1 774 2333.000005722046 L 774 2395.000005722046 L 774 2395.000005722046 A 8 8 0 0 1 766 2403.000005722046 L 234 2403.000005722046 L 234 2403.000005722046 A 8 8 0 0 1 226 2395.000005722046 L 226 2333.000005722046 L 226 2333.000005722046 A 8 8 0 0 1 234 2325.000005722046 L 500 2325.000005722046 Z" fill-opacity="1" stroke-opacity="1" stroke-miterlimit="10" stroke-width="5"/><text fill="rgb(0,0,0)" stroke="none" font-family="Avenir, Helvetica, Arial, sans-serif" font-size="32px" font-style="normal" font-weight="bold" text-decoration="normal" x="500" y="2380.000005722046" text-anchor="middle" dominant-baseline="text-after-edge" fill-opacity="1">network_id</text><path fill="rgb(225,240,255)" stroke="rgb(29,122,218)" paint-order="fill stroke markers" d=" M 1103.0000007152557 2325.000005722046 L 1369.0000007152557 2325.000005722046 L 1369.0000007152557 2325.000005722046 A 8 8 0 0 1 1377.0000007152557 2333.000005722046 L 1377.0000007152557 2395.000005722046 L 1377.0000007152557 2395.000005722046 A 8 8 0 0 1 1369.0000007152557 2403.000005722046 L 837.0000007152557 2403.000005722046 L 837.0000007152557 2403.000005722046 A 8 8 0 0 1 829.0000007152557 2395.000005722046 L 829.0000007152557 2333.000005722046 L 829.0000007152557 2333.000005722046 A 8 8 0 0 1 837.0000007152557 2325.000005722046 L 1103.0000007152557 2325.000005722046 Z" fill-opacity="1" stroke-opacity="1" stroke-miterlimit="10" stroke-width="5"/><text fill="rgb(0,0,0)" stroke="none" font-family="Avenir, Helvetica, Arial, sans-serif" font-size="32px" font-style="normal" font-weight="bold" text-decoration="normal" x="1103.0000007152557" y="2380.000005722046" text-anchor="middle" dominant-baseline="text-after-edge" fill-opacity="1">create_server_network</text><path fill="rgb(225,240,255)" stroke="rgb(29,122,218)" paint-order="fill stroke markers" d=" M 500 2458.0000064373016 L 766 2458.0000064373016 L 766 2458.0000064373016 A 8 8 0 0 1 774 2466.0000064373016 L 774 2528.0000064373016 L 774 2528.0000064373016 A 8 8 0 0 1 766 2536.0000064373016 L 234 2536.0000064373016 L 234 2536.0000064373016 A 8 8 0 0 1 226 2528.0000064373016 L 226 2466.0000064373016 L 226 2466.0000064373016 A 8 8 0 0 1 234 2458.0000064373016 L 500 2458.0000064373016 Z" fill-opacity="1" stroke-opacity="1" stroke-miterlimit="10" stroke-width="5"/><text fill="rgb(0,0,0)" stroke="none" font-family="Avenir, Helvetica, Arial, sans-serif" font-size="32px" font-style="normal" font-weight="bold" text-decoration="normal" x="500" y="2513.0000064373016" text-anchor="middle" dominant-baseline="text-after-edge" fill-opacity="1">alias_ips</text><path fill="rgb(225,240,255)" stroke="rgb(29,122,218)" paint-order="fill stroke markers" d=" M 1103.0000007152557 2458.0000064373016 L 1369.0000007152557 2458.0000064373016 L 1369.0000007152557 2458.0000064373016 A 8 8 0 0 1 1377.0000007152557 2466.0000064373016 L 1377.0000007152557 2528.0000064373016 L 1377.0000007152557 2528.0000064373016 A 8 8 0 0 1 1369.0000007152557 2536.0000064373016 L 837.0000007152557 2536.0000064373016 L 837.0000007152557 2536.0000064373016 A 8 8 0 0 1 829.0000007152557 2528.0000064373016 L 829.0000007152557 2466.0000064373016 L 829.0000007152557 2466.0000064373016 A 8 8 0 0 1 837.0000007152557 2458.0000064373016 L 1103.0000007152557 2458.0000064373016 Z" fill-opacity="1" stroke-opacity="1" stroke-miterlimit="10" stroke-width="5"/><text fill="rgb(0,0,0)" stroke="none" font-family="Avenir, Helvetica, Arial, sans-serif" font-size="32px" font-style="normal" font-weight="bold" text-decoration="normal" x="1103.0000007152557" y="2513.0000064373016" text-anchor="middle" dominant-baseline="text-after-edge" fill-opacity="1">location</text><path fill="rgb(225,240,255)" stroke="rgb(29,122,218)" paint-order="fill stroke markers" d=" M 500 2591.0000071525574 L 766 2591.0000071525574 L 766 2591.0000071525574 A 8 8 0 0 1 774 2599.0000071525574 L 774 2661.0000071525574 L 774 2661.0000071525574 A 8 8 0 0 1 766 2669.0000071525574 L 234 2669.0000071525574 L 234 2669.0000071525574 A 8 8 0 0 1 226 2661.0000071525574 L 226 2599.0000071525574 L 226 2599.0000071525574 A 8 8 0 0 1 234 2591.0000071525574 L 500 2591.0000071525574 Z" fill-opacity="1" stroke-opacity="1" stroke-miterlimit="10" stroke-width="5"/><text fill="rgb(0,0,0)" stroke="none" font-family="Avenir, Helvetica, Arial, sans-serif" font-size="32px" font-style="normal" font-weight="bold" text-decoration="normal" x="500" y="2646.0000071525574" text-anchor="middle" dominant-baseline="text-after-edge" fill-opacity="1">rescue</text><path fill="rgb(225,240,255)" stroke="rgb(29,122,218)" paint-order="fill stroke markers" d=" M 1103.0000007152557 2591.0000071525574 L 1369.0000007152557 2591.0000071525574 L 1369.0000007152557 2591.0000071525574 A 8 8 0 0 1 1377.0000007152557 2599.0000071525574 L 1377.0000007152557 2661.0000071525574 L 1377.0000007152557 2661.0000071525574 A 8 8 0 0 1 1369.0000007152557 2669.0000071525574 L 837.0000007152557 2669.0000071525574 L 837.0000007152557 2669.0000071525574 A 8 8 0 0 1 829.0000007152557 2661.0000071525574 L 829.0000007152557 2599.0000071525574 L 829.0000007152557 2599.0000071525574 A 8 8 0 0 1 837.0000007152557 2591.0000071525574 L 1103.0000007152557 2591.0000071525574 Z" fill-opacity="1" stroke-opacity="1" stroke-miterlimit="10" stroke-width="5"/><text fill="rgb(0,0,0)" stroke="none" font-family="Avenir, Helvetica, Arial, sans-serif" font-size="32px" font-style="normal" font-weight="bold" text-decoration="normal" x="1103.0000007152557" y="2646.0000071525574" text-anchor="middle" dominant-baseline="text-after-edge" fill-opacity="1">subnet_id</text><path fill="rgb(225,240,255)" stroke="rgb(29,122,218)" paint-order="fill stroke markers" d=" M 500 2724.000007867813 L 766 2724.000007867813 L 766 2724.000007867813 A 8 8 0 0 1 774 2732.000007867813 L 774 2794.000007867813 L 774 2794.000007867813 A 8 8 0 0 1 766 2802.000007867813 L 234 2802.000007867813 L 234 2802.000007867813 A 8 8 0 0 1 226 2794.000007867813 L 226 2732.000007867813 L 226 2732.000007867813 A 8 8 0 0 1 234 2724.000007867813 L 500 2724.000007867813 Z" fill-opacity="1" stroke-opacity="1" stroke-miterlimit="10" stroke-width="5"/><text fill="rgb(0,0,0)" stroke="none" font-family="Avenir, Helvetica, Arial, sans-serif" font-size="32px" font-style="normal" font-weight="bold" text-decoration="normal" x="500" y="2779.000007867813" text-anchor="middle" dominant-baseline="text-after-edge" fill-opacity="1">backups</text><path fill="rgb(225,240,255)" stroke="rgb(29,122,218)" paint-order="fill stroke markers" d=" M 1103.0000007152557 2724.000007867813 L 1369.0000007152557 2724.000007867813 L 1369.0000007152557 2724.000007867813 A 8 8 0 0 1 1377.0000007152557 2732.000007867813 L 1377.0000007152557 2794.000007867813 L 1377.0000007152557 2794.000007867813 A 8 8 0 0 1 1369.0000007152557 2802.000007867813 L 837.0000007152557 2802.000007867813 L 837.0000007152557 2802.000007867813 A 8 8 0 0 1 829.0000007152557 2794.000007867813 L 829.0000007152557 2732.000007867813 L 829.0000007152557 2732.000007867813 A 8 8 0 0 1 837.0000007152557 2724.000007867813 L 1103.0000007152557 2724.000007867813 Z" fill-opacity="1" stroke-opacity="1" stroke-miterlimit="10" stroke-width="5"/><text fill="rgb(0,0,0)" stroke="none" font-family="Avenir, Helvetica, Arial, sans-serif" font-size="32px" font-style="normal" font-weight="bold" text-decoration="normal" x="1103.0000007152557" y="2779.000007867813" text-anchor="middle" dominant-baseline="text-after-edge" fill-opacity="1">ssh_keys</text><path fill="rgb(225,240,255)" stroke="rgb(29,122,218)" paint-order="fill stroke markers" d=" M 500 2857.000008583069 L 766 2857.000008583069 L 766 2857.000008583069 A 8 8 0 0 1 774 2865.000008583069 L 774 2927.000008583069 L 774 2927.000008583069 A 8 8 0 0 1 766 2935.000008583069 L 234 2935.000008583069 L 234 2935.000008583069 A 8 8 0 0 1 226 2927.000008583069 L 226 2865.000008583069 L 226 2865.000008583069 A 8 8 0 0 1 234 2857.000008583069 L 500 2857.000008583069 Z" fill-opacity="1" stroke-opacity="1" stroke-miterlimit="10" stroke-width="5"/><text fill="rgb(0,0,0)" stroke="none" font-family="Avenir, Helvetica, Arial, sans-serif" font-size="32px" font-style="normal" font-weight="bold" text-decoration="normal" x="500" y="2912.000008583069" text-anchor="middle" dominant-baseline="text-after-edge" fill-opacity="1">rebuild_protection</text><path fill="rgb(225,240,255)" stroke="rgb(29,122,218)" paint-order="fill stroke markers" d=" M 1103.0000007152557 2857.000008583069 L 1369.0000007152557 2857.000008583069 L 1369.0000007152557 2857.000008583069 A 8 8 0 0 1 1377.0000007152557 2865.000008583069 L 1377.0000007152557 2927.000008583069 L 1377.0000007152557 2927.000008583069 A 8 8 0 0 1 1369.0000007152557 2935.000008583069 L 837.0000007152557 2935.000008583069 L 837.0000007152557 2935.000008583069 A 8 8 0 0 1 829.0000007152557 2927.000008583069 L 829.0000007152557 2865.000008583069 L 829.0000007152557 2865.000008583069 A 8 8 0 0 1 837.0000007152557 2857.000008583069 L 1103.0000007152557 2857.000008583069 Z" fill-opacity="1" stroke-opacity="1" stroke-miterlimit="10" stroke-width="5"/><text fill="rgb(0,0,0)" stroke="none" font-family="Avenir, Helvetica, Arial, sans-serif" font-size="32px" font-style="normal" font-weight="bold" text-decoration="normal" x="1103.0000007152557" y="2912.000008583069" text-anchor="middle" dominant-baseline="text-after-edge" fill-opacity="1">name</text><path fill="rgb(225,240,255)" stroke="rgb(29,122,218)" paint-order="fill stroke markers" d=" M 500 2990.0000092983246 L 766 2990.0000092983246 L 766 2990.0000092983246 A 8 8 0 0 1 774 2998.0000092983246 L 774 3060.0000092983246 L 774 3060.0000092983246 A 8 8 0 0 1 766 3068.0000092983246 L 234 3068.0000092983246 L 234 3068.0000092983246 A 8 8 0 0 1 226 3060.0000092983246 L 226 2998.0000092983246 L 226 2998.0000092983246 A 8 8 0 0 1 234 2990.0000092983246 L 500 2990.0000092983246 Z" fill-opacity="1" stroke-opacity="1" stroke-miterlimit="10" stroke-width="5"/><text fill="rgb(0,0,0)" stroke="none" font-family="Avenir, Helvetica, Arial, sans-serif" font-size="32px" font-style="normal" font-weight="bold" text-decoration="normal" x="500" y="3045.0000092983246" text-anchor="middle" dominant-baseline="text-after-edge" fill-opacity="1">user_data</text><path fill="rgb(225,240,255)" stroke="rgb(29,122,218)" paint-order="fill stroke markers" d=" M 1103.0000007152557 2990.0000092983246 L 1369.0000007152557 2990.0000092983246 L 1369.0000007152557 2990.0000092983246 A 8 8 0 0 1 1377.0000007152557 2998.0000092983246 L 1377.0000007152557 3060.0000092983246 L 1377.0000007152557 3060.0000092983246 A 8 8 0 0 1 1369.0000007152557 3068.0000092983246 L 837.0000007152557 3068.0000092983246 L 837.0000007152557 3068.0000092983246 A 8 8 0 0 1 829.0000007152557 3060.0000092983246 L 829.0000007152557 2998.0000092983246 L 829.0000007152557 2998.0000092983246 A 8 8 0 0 1 837.0000007152557 2990.0000092983246 L 1103.0000007152557 2990.0000092983246 Z" fill-opacity="1" stroke-opacity="1" stroke-miterlimit="10" stroke-width="5"/><text fill="rgb(0,0,0)" stroke="none" font-family="Avenir, Helvetica, Arial, sans-serif" font-size="32px" font-style="normal" font-weight="bold" text-decoration="normal" x="1103.0000007152557" y="3045.0000092983246" text-anchor="middle" dominant-baseline="text-after-edge" fill-opacity="1">image</text><path fill="rgb(225,240,255)" stroke="rgb(29,122,218)" paint-order="fill stroke markers" d=" M 500 3123.0000100135803 L 766 3123.0000100135803 L 766 3123.0000100135803 A 8 8 0 0 1 774 3131.0000100135803 L 774 3193.0000100135803 L 774 3193.0000100135803 A 8 8 0 0 1 766 3201.0000100135803 L 234 3201.0000100135803 L 234 3201.0000100135803 A 8 8 0 0 1 226 3193.0000100135803 L 226 3131.0000100135803 L 226 3131.0000100135803 A 8 8 0 0 1 234 3123.0000100135803 L 500 3123.0000100135803 Z" fill-opacity="1" stroke-opacity="1" stroke-miterlimit="10" stroke-width="5"/><text fill="rgb(0,0,0)" stroke="none" font-family="Avenir, Helvetica, Arial, sans-serif" font-size="32px" font-style="normal" font-weight="bold" text-decoration="normal" x="500" y="3178.0000100135803" text-anchor="middle" dominant-baseline="text-after-edge" fill-opacity="1">keep_disk</text><path fill="rgb(225,240,255)" stroke="rgb(29,122,218)" paint-order="fill stroke markers" d=" M 1103.0000007152557 3123.0000100135803 L 1369.0000007152557 3123.0000100135803 L 1369.0000007152557 3123.0000100135803 A 8 8 0 0 1 1377.0000007152557 3131.0000100135803 L 1377.0000007152557 3193.0000100135803 L 1377.0000007152557 3193.0000100135803 A 8 8 0 0 1 1369.0000007152557 3201.0000100135803 L 837.0000007152557 3201.0000100135803 L 837.0000007152557 3201.0000100135803 A 8 8 0 0 1 829.0000007152557 3193.0000100135803 L 829.0000007152557 3131.0000100135803 L 829.0000007152557 3131.0000100135803 A 8 8 0 0 1 837.0000007152557 3123.0000100135803 L 1103.0000007152557 3123.0000100135803 Z" fill-opacity="1" stroke-opacity="1" stroke-miterlimit="10" stroke-width="5"/><text fill="rgb(0,0,0)" stroke="none" font-family="Avenir, Helvetica, Arial, sans-serif" font-size="32px" font-style="normal" font-weight="bold" text-decoration="normal" x="1103.0000007152557" y="3178.0000100135803" text-anchor="middle" dominant-baseline="text-after-edge" fill-opacity="1">datacenter</text><path fill="rgb(225,240,255)" stroke="rgb(29,122,218)" paint-order="fill stroke markers" d=" M 500 3256.000010728836 L 766 3256.000010728836 L 766 3256.000010728836 A 8 8 0 0 1 774 3264.000010728836 L 774 3326.000010728836 L 774 3326.000010728836 A 8 8 0 0 1 766 3334.000010728836 L 234 3334.000010728836 L 234 3334.000010728836 A 8 8 0 0 1 226 3326.000010728836 L 226 3264.000010728836 L 226 3264.000010728836 A 8 8 0 0 1 234 3256.000010728836 L 500 3256.000010728836 Z" fill-opacity="1" stroke-opacity="1" stroke-miterlimit="10" stroke-width="5"/><text fill="rgb(0,0,0)" stroke="none" font-family="Avenir, Helvetica, Arial, sans-serif" font-size="32px" font-style="normal" font-weight="bold" text-decoration="normal" x="500" y="3311.000010728836" text-anchor="middle" dominant-baseline="text-after-edge" fill-opacity="1">labels</text><path fill="rgb(225,240,255)" stroke="rgb(29,122,218)" paint-order="fill stroke markers" d=" M 1103.0000007152557 3256.000010728836 L 1369.0000007152557 3256.000010728836 L 1369.0000007152557 3256.000010728836 A 8 8 0 0 1 1377.0000007152557 3264.000010728836 L 1377.0000007152557 3326.000010728836 L 1377.0000007152557 3326.000010728836 A 8 8 0 0 1 1369.0000007152557 3334.000010728836 L 837.0000007152557 3334.000010728836 L 837.0000007152557 3334.000010728836 A 8 8 0 0 1 829.0000007152557 3326.000010728836 L 829.0000007152557 3264.000010728836 L 829.0000007152557 3264.000010728836 A 8 8 0 0 1 837.0000007152557 3256.000010728836 L 1103.0000007152557 3256.000010728836 Z" fill-opacity="1" stroke-opacity="1" stroke-miterlimit="10" stroke-width="5"/><text fill="rgb(0,0,0)" stroke="none" font-family="Avenir, Helvetica, Arial, sans-serif" font-size="32px" font-style="normal" font-weight="bold" text-decoration="normal" x="1103.0000007152557" y="3311.000010728836" text-anchor="middle" dominant-baseline="text-after-edge" fill-opacity="1">ip</text><path fill="rgb(225,240,255)" stroke="rgb(29,122,218)" paint-order="fill stroke markers" d=" M 500 3389.000011444092 L 766 3389.000011444092 L 766 3389.000011444092 A 8 8 0 0 1 774 3397.000011444092 L 774 3459.000011444092 L 774 3459.000011444092 A 8 8 0 0 1 766 3467.000011444092 L 234 3467.000011444092 L 234 3467.000011444092 A 8 8 0 0 1 226 3459.000011444092 L 226 3397.000011444092 L 226 3397.000011444092 A 8 8 0 0 1 234 3389.000011444092 L 500 3389.000011444092 Z" fill-opacity="1" stroke-opacity="1" stroke-miterlimit="10" stroke-width="5"/><text fill="rgb(0,0,0)" stroke="none" font-family="Avenir, Helvetica, Arial, sans-serif" font-size="32px" font-style="normal" font-weight="bold" text-decoration="normal" x="500" y="3444.000011444092" text-anchor="middle" dominant-baseline="text-after-edge" fill-opacity="1">delete_protection</text><path fill="rgb(225,240,255)" stroke="rgb(29,122,218)" paint-order="fill stroke markers" d=" M 1103.0000007152557 3389.000011444092 L 1369.0000007152557 3389.000011444092 L 1369.0000007152557 3389.000011444092 A 8 8 0 0 1 1377.0000007152557 3397.000011444092 L 1377.0000007152557 3459.000011444092 L 1377.0000007152557 3459.000011444092 A 8 8 0 0 1 1369.0000007152557 3467.000011444092 L 837.0000007152557 3467.000011444092 L 837.0000007152557 3467.000011444092 A 8 8 0 0 1 829.0000007152557 3459.000011444092 L 829.0000007152557 3397.000011444092 L 829.0000007152557 3397.000011444092 A 8 8 0 0 1 837.0000007152557 3389.000011444092 L 1103.0000007152557 3389.000011444092 Z" fill-opacity="1" stroke-opacity="1" stroke-miterlimit="10" stroke-width="5"/><text fill="rgb(0,0,0)" stroke="none" font-family="Avenir, Helvetica, Arial, sans-serif" font-size="32px" font-style="normal" font-weight="bold" text-decoration="normal" x="1103.0000007152557" y="3444.000011444092" text-anchor="middle" dominant-baseline="text-after-edge" fill-opacity="1">server_type</text><path fill="rgb(40,167,69)" stroke="none" paint-order="stroke fill markers" d=" M 600 1360.0000021457672 L 866 1360.0000021457672 L 866 1360.0000021457672 A 8 8 0 0 1 874 1368.0000021457672 L 874 1430.0000021457672 L 874 1430.0000021457672 A 8 8 0 0 1 866 1438.0000021457672 L 334 1438.0000021457672 L 334 1438.0000021457672 A 8 8 0 0 1 326 1430.0000021457672 L 326 1368.0000021457672 L 326 1368.0000021457672 A 8 8 0 0 1 334 1360.0000021457672 L 600 1360.0000021457672 Z" fill-opacity="1"/><text fill="rgb(255,255,255)" stroke="none" font-family="Avenir, Helvetica, Arial, sans-serif" font-size="32px" font-style="normal" font-weight="bold" text-decoration="normal" x="600" y="1415.0000021457672" text-anchor="middle" dominant-baseline="text-after-edge" fill-opacity="1">default</text><path fill="rgb(0,0,0)" stroke="rgb(0,0,0)" paint-order="fill stroke markers" d=" M 2306.0000014305115 261 L 2572.0000014305115 261 L 2572.0000014305115 261 A 8 8 0 0 1 2580.0000014305115 269 L 2580.0000014305115 331 L 2580.0000014305115 331 A 8 8 0 0 1 2572.0000014305115 339 L 2040.0000014305115 339 L 2040.0000014305115 339 A 8 8 0 0 1 2032.0000014305115 331 L 2032.0000014305115 269 L 2032.0000014305115 269 A 8 8 0 0 1 2040.0000014305115 261 L 2306.0000014305115 261 Z" fill-opacity="1" stroke-opacity="1" stroke-miterlimit="10" stroke-width="5"/><text fill="rgb(255,255,255)" stroke="none" font-family="Avenir, Helvetica, Arial, sans-serif" font-size="32px" font-style="normal" font-weight="bold" text-decoration="normal" x="2306.0000014305115" y="316" text-anchor="middle" dominant-baseline="text-after-edge" fill-opacity="1">name</text><path fill="rgb(0,0,0)" stroke="rgb(0,0,0)" paint-order="fill stroke markers" d=" M 2306.0000014305115 394.00000071525574 L 2572.0000014305115 394.00000071525574 L 2572.0000014305115 394.00000071525574 A 8 8 0 0 1 2580.0000014305115 402.00000071525574 L 2580.0000014305115 464.00000071525574 L 2580.0000014305115 464.00000071525574 A 8 8 0 0 1 2572.0000014305115 472.00000071525574 L 2040.0000014305115 472.00000071525574 L 2040.0000014305115 472.00000071525574 A 8 8 0 0 1 2032.0000014305115 464.00000071525574 L 2032.0000014305115 402.00000071525574 L 2032.0000014305115 402.00000071525574 A 8 8 0 0 1 2040.0000014305115 394.00000071525574 L 2306.0000014305115 394.00000071525574 Z" fill-opacity="1" stroke-opacity="1" stroke-miterlimit="10" stroke-width="5"/><text fill="rgb(255,255,255)" stroke="none" font-family="Avenir, Helvetica, Arial, sans-serif" font-size="32px" font-style="normal" font-weight="bold" text-decoration="normal" x="2306.0000014305115" y="449.00000071525574" text-anchor="middle" dominant-baseline="text-after-edge" fill-opacity="1">server_type</text><path fill="rgb(0,0,0)" stroke="rgb(0,0,0)" paint-order="fill stroke markers" d=" M 2306.0000014305115 527.0000014305115 L 2572.0000014305115 527.0000014305115 L 2572.0000014305115 527.0000014305115 A 8 8 0 0 1 2580.0000014305115 535.0000014305115 L 2580.0000014305115 597.0000014305115 L 2580.0000014305115 597.0000014305115 A 8 8 0 0 1 2572.0000014305115 605.0000014305115 L 2040.0000014305115 605.0000014305115 L 2040.0000014305115 605.0000014305115 A 8 8 0 0 1 2032.0000014305115 597.0000014305115 L 2032.0000014305115 535.0000014305115 L 2032.0000014305115 535.0000014305115 A 8 8 0 0 1 2040.0000014305115 527.0000014305115 L 2306.0000014305115 527.0000014305115 Z" fill-opacity="1" stroke-opacity="1" stroke-miterlimit="10" stroke-width="5"/><text fill="rgb(255,255,255)" stroke="none" font-family="Avenir, Helvetica, Arial, sans-serif" font-size="32px" font-style="normal" font-weight="bold" text-decoration="normal" x="2306.0000014305115" y="582.0000014305115" text-anchor="middle" dominant-baseline="text-after-edge" fill-opacity="1">image</text><g transform="scale(5,5) translate(-57.7,-9.200000000000001)"/></g></svg>