<svg version="1.1" xmlns="http://www.w3.org/2000/svg" xmlns:xlink="http://www.w3.org/1999/xlink" width="875.8000000000001" height="898"><defs><linearGradient id="NinDBBsKlaop" x1="2506.2000014305113px" x2="1164.6000003576278px" y1="740.5000021457672px" y2="1181.500002861023px" gradientUnits="userSpaceOnUse"><stop offset="0" stop-color="rgb(255,193,7)" stop-opacity="1"/><stop offset="1" stop-color="rgb(132,80,186)" stop-opacity="1"/></linearGradient><linearGradient id="gwXIXlSoRpOH" x1="2506.2000014305113px" x2="1164.6000003576278px" y1="740.5000021457672px" y2="1181.500002861023px" gradientUnits="userSpaceOnUse"><stop offset="0" stop-color="rgb(255,193,7)" stop-opacity="1"/><stop offset="1" stop-color="rgb(132,80,186)" stop-opacity="1"/></linearGradient><linearGradient id="DiFHCNiyJbRT" x1="2506.2000014305113px" x2="1164.6000003576278px" y1="341.5px" y2="1181.500002861023px" gradientUnits="userSpaceOnUse"><stop offset="0" stop-color="rgb(255,193,7)" stop-opacity="1"/><stop offset="1" stop-color="rgb(132,80,186)" stop-opacity="1"/></linearGradient><linearGradient id="KeLAZzpFPDPc" x1="2506.2000014305113px" x2="1164.6000003576278px" y1="341.5px" y2="1181.500002861023px" gradientUnits="userSpaceOnUse"><stop offset="0" stop-color="rgb(255,193,7)" stop-opacity="1"/><stop offset="1" stop-color="rgb(132,80,186)" stop-opacity="1"/></linearGradient><linearGradient id="tQGMdQTEUHnt" x1="2506.2000014305113px" x2="1164.6000003576278px" y1="474.50000071525574px" y2="1181.500002861023px" gradientUnits="userSpaceOnUse"><stop offset="0" stop-color="rgb(255,193,7)" stop-opacity="1"/><stop offset="1" stop-color="rgb(132,80,186)" stop-opacity="1"/></linearGradient><linearGradient id="XdUXxPUtiMmq" x1="2506.2000014305113px" x2="1164.6000003576278px" y1="474.50000071525574px" y2="1181.500002861023px" gradientUnits="userSpaceOnUse"><stop offset="0" stop-color="rgb(255,193,7)" stop-opacity="1"/><stop offset="1" stop-color="rgb(132,80,186)" stop-opacity="1"/></linearGradient><linearGradient id="qpkrMTqHhETv" x1="2506.2000014305113px" x2="1164.6000003576278px" y1="607.5000014305115px" y2="1181.500002861023px" gradientUnits="userSpaceOnUse"><stop offset="0" stop-color="rgb(255,193,7)" stop-opacity="1"/><stop offset="1" stop-color="rgb(132,80,186)" stop-opacity="1"/></linearGradient><linearGradient id="nvSTruCWvSBH" x1="2506.2000014305113px" x2="1164.6000003576278px" y1="607.5000014305115px" y2="1181.500002861023px" gradientUnits="userSpaceOnUse"><stop offset="0" stop-color="rgb(255,193,7)" stop-opacity="1"/><stop offset="1" stop-color="rgb(132,80,186)" stop-opacity="1"/></linearGradient><linearGradient id="ylKTaSPqkout" x1="2313.2000007152556px" x2="3232.700002145767px" y1="2658.0500067949297px" y2="566.0000014305115px" gradientUnits="userSpaceOnUse"><stop offset="0" stop-color="rgb(132,80,186)" stop-opacity="1"/><stop offset="1" stop-color="rgb(0,0,0)" stop-opacity="1"/></linearGradient><linearGradient id="LCKiTbxqRexd" x1="2313.2000007152556px" x2="3232.700002145767px" y1="2658.0500067949297px" y2="699.0000021457672px" gradientUnits="userSpaceOnUse"><stop offset="0" stop-color="rgb(132,80,186)" stop-opacity="1"/><stop offset="1" stop-color="rgb(0,0,0)" stop-opacity="1"/></linearGradient><linearGradient id="nWUsqpSfDaAS" x1="2313.2000007152556px" x2="3232.700002145767px" y1="2658.0500067949297px" y2="300px" gradientUnits="userSpaceOnUse"><stop offset="0" stop-color="rgb(132,80,186)" stop-opacity="1"/><stop offset="1" stop-color="rgb(0,0,0)" stop-opacity="1"/></linearGradient><linearGradient id="LxyEbXHFeIms" x1="1164.6000003576278px" x2="1403.0000007152557px" y1="1181.500002861023px" y2="441.5px" gradientUnits="userSpaceOnUse"><stop offset="0" stop-color="rgb(132,80,186)" stop-opacity="1"/><stop offset="1" stop-color="rgb(220,71,125)" stop-opacity="1"/></linearGradient><linearGradient id="RoEDIVzdtDZu" x1="2313.2000007152556px" x2="3232.700002145767px" y1="2658.0500067949297px" y2="433.00000071525574px" gradientUnits="userSpaceOnUse"><stop offset="0" stop-color="rgb(132,80,186)" stop-opacity="1"/><stop offset="1" stop-color="rgb(0,0,0)" stop-opacity="1"/></linearGradient><linearGradient id="ZbcFAnUMyILo" x1="776.5px" x2="1329.0000007152557px" y1="1432.000002861023px" y2="1532.000002861023px" gradientUnits="userSpaceOnUse"><stop offset="0" stop-color="rgb(255,193,7)" stop-opacity="1"/><stop offset="1" stop-color="rgb(211,211,211)" stop-opacity="1"/></linearGradient><linearGradient id="sksoAdQpPbrK" x1="776.5px" x2="1370.5000007152557px" y1="1565.0000035762787px" y2="1960.2000035762787px" gradientUnits="userSpaceOnUse"><stop offset="0" stop-color="rgb(255,193,7)" stop-opacity="1"/><stop offset="1" stop-color="rgb(211,211,211)" stop-opacity="1"/></linearGradient><linearGradient id="bTrQLrylLEUd" x1="776.5px" x2="1329.0000007152557px" y1="1698.0000042915344px" y2="1532.000002861023px" gradientUnits="userSpaceOnUse"><stop offset="0" stop-color="rgb(255,193,7)" stop-opacity="1"/><stop offset="1" stop-color="rgb(211,211,211)" stop-opacity="1"/></linearGradient><linearGradient id="dKwXraTpNFtu" x1="776.5px" x2="1329.0000007152557px" y1="1831.0000050067902px" y2="1532.000002861023px" gradientUnits="userSpaceOnUse"><stop offset="0" stop-color="rgb(255,193,7)" stop-opacity="1"/><stop offset="1" stop-color="rgb(211,211,211)" stop-opacity="1"/></linearGradient><linearGradient id="ngdrWaCTCWiM" x1="1603.0000007152557px" x2="1103.0000007152557px" y1="1571.000002861023px" y2="3711.1000100135807px" gradientUnits="userSpaceOnUse"><stop offset="0" stop-color="rgb(211,211,211)" stop-opacity="1"/><stop offset="1" stop-color="rgb(29,122,218)" stop-opacity="1"/></linearGradient><linearGradient id="kMhIITrInRro" x1="1603.0000007152557px" x2="500px" y1="1571.000002861023px" y2="3711.1000100135807px" gradientUnits="userSpaceOnUse"><stop offset="0" stop-color="rgb(211,211,211)" stop-opacity="1"/><stop offset="1" stop-color="rgb(29,122,218)" stop-opacity="1"/></linearGradient><linearGradient id="laXgROPiRptH" x1="1603.0000007152557px" x2="1103.0000007152557px" y1="1571.000002861023px" y2="2780.1000050067905px" gradientUnits="userSpaceOnUse"><stop offset="0" stop-color="rgb(211,211,211)" stop-opacity="1"/><stop offset="1" stop-color="rgb(29,122,218)" stop-opacity="1"/></linearGradient><linearGradient id="PbmnHdiOvSUu" x1="1603.0000007152557px" x2="500px" y1="1571.000002861023px" y2="3445.100008583069px" gradientUnits="userSpaceOnUse"><stop offset="0" stop-color="rgb(211,211,211)" stop-opacity="1"/><stop offset="1" stop-color="rgb(29,122,218)" stop-opacity="1"/></linearGradient><linearGradient id="LpPvlCBGhnZP" x1="1603.0000007152557px" x2="500px" y1="1571.000002861023px" y2="3179.1000071525577px" gradientUnits="userSpaceOnUse"><stop offset="0" stop-color="rgb(211,211,211)" stop-opacity="1"/><stop offset="1" stop-color="rgb(29,122,218)" stop-opacity="1"/></linearGradient><linearGradient id="ZhHkgvSTqVGk" x1="1603.0000007152557px" x2="1103.0000007152557px" y1="1571.000002861023px" y2="3578.100009298325px" gradientUnits="userSpaceOnUse"><stop offset="0" stop-color="rgb(211,211,211)" stop-opacity="1"/><stop offset="1" stop-color="rgb(29,122,218)" stop-opacity="1"/></linearGradient><linearGradient id="nivuisgMMSCI" x1="1603.0000007152557px" x2="1103.0000007152557px" y1="1571.000002861023px" y2="3445.100008583069px" gradientUnits="userSpaceOnUse"><stop offset="0" stop-color="rgb(211,211,211)" stop-opacity="1"/><stop offset="1" stop-color="rgb(29,122,218)" stop-opacity="1"/></linearGradient><linearGradient id="XDHvkPObzcTE" x1="1603.0000007152557px" x2="1103.0000007152557px" y1="1571.000002861023px" y2="3046.100006437302px" gradientUnits="userSpaceOnUse"><stop offset="0" stop-color="rgb(211,211,211)" stop-opacity="1"/><stop offset="1" stop-color="rgb(29,122,218)" stop-opacity="1"/></linearGradient><linearGradient id="cKXJZClJhoHr" x1="1603.0000007152557px" x2="1103.0000007152557px" y1="1571.000002861023px" y2="3179.1000071525577px" gradientUnits="userSpaceOnUse"><stop offset="0" stop-color="rgb(211,211,211)" stop-opacity="1"/><stop offset="1" stop-color="rgb(29,122,218)" stop-opacity="1"/></linearGradient><linearGradient id="dLJyMZZvmUuq" x1="1603.0000007152557px" x2="500px" y1="1571.000002861023px" y2="3312.1000078678135px" gradientUnits="userSpaceOnUse"><stop offset="0" stop-color="rgb(211,211,211)" stop-opacity="1"/><stop offset="1" stop-color="rgb(29,122,218)" stop-opacity="1"/></linearGradient><linearGradient id="kdUqsNplEkka" x1="1603.0000007152557px" x2="500px" y1="1571.000002861023px" y2="3844.1000107288364px" gradientUnits="userSpaceOnUse"><stop offset="0" stop-color="rgb(211,211,211)" stop-opacity="1"/><stop offset="1" stop-color="rgb(29,122,218)" stop-opacity="1"/></linearGradient><linearGradient id="gwpoDpNCNZNU" x1="1603.0000007152557px" x2="500px" y1="1571.000002861023px" y2="3578.100009298325px" gradientUnits="userSpaceOnUse"><stop offset="0" stop-color="rgb(211,211,211)" stop-opacity="1"/><stop offset="1" stop-color="rgb(29,122,218)" stop-opacity="1"/></linearGradient><linearGradient id="OkiUVRMNAxpL" x1="1603.0000007152557px" x2="1103.0000007152557px" y1="1571.000002861023px" y2="3844.1000107288364px" gradientUnits="userSpaceOnUse"><stop offset="0" stop-color="rgb(211,211,211)" stop-opacity="1"/><stop offset="1" stop-color="rgb(29,122,218)" stop-opacity="1"/></linearGradient><linearGradient id="JwZmNTPdyNyQ" x1="1603.0000007152557px" x2="500px" y1="1571.000002861023px" y2="2780.1000050067905px" gradientUnits="userSpaceOnUse"><stop offset="0" stop-color="rgb(211,211,211)" stop-opacity="1"/><stop offset="1" stop-color="rgb(29,122,218)" stop-opacity="1"/></linearGradient><linearGradient id="EWORWAPmWgmG" x1="1603.0000007152557px" x2="1103.0000007152557px" y1="1571.000002861023px" y2="3312.1000078678135px" gradientUnits="userSpaceOnUse"><stop offset="0" stop-color="rgb(211,211,211)" stop-opacity="1"/><stop offset="1" stop-color="rgb(29,122,218)" stop-opacity="1"/></linearGradient><linearGradient id="rpgDyenzDetI" x1="1703.0000007152557px" x2="500px" y1="2057.7000035762785px" y2="2913.1000057220463px" gradientUnits="userSpaceOnUse"><stop offset="0" stop-color="rgb(211,211,211)" stop-opacity="1"/><stop offset="1" stop-color="rgb(29,122,218)" stop-opacity="1"/></linearGradient><linearGradient id="IfWkeyazDCOZ" x1="1703.0000007152557px" x2="1103.0000007152557px" y1="2057.7000035762785px" y2="2647.100004291535px" gradientUnits="userSpaceOnUse"><stop offset="0" stop-color="rgb(211,211,211)" stop-opacity="1"/><stop offset="1" stop-color="rgb(29,122,218)" stop-opacity="1"/></linearGradient><linearGradient id="lyStcERnNpQc" x1="1703.0000007152557px" x2="1603.0000007152557px" y1="1862.7000035762787px" y2="1571.000002861023px" gradientUnits="userSpaceOnUse"><stop offset="0" stop-color="rgb(211,211,211)" stop-opacity="1"/><stop offset="1" stop-color="rgb(211,211,211)" stop-opacity="1"/></linearGradient><linearGradient id="XmvdONFTJxAA" x1="1370.5000007152557px" x2="776.5px" y1="1960.2000035762787px" y2="2688.600004291535px" gradientUnits="userSpaceOnUse"><stop offset="0" stop-color="rgb(211,211,211)" stop-opacity="1"/><stop offset="1" stop-color="rgb(29,122,218)" stop-opacity="1"/></linearGradient><linearGradient id="CBUMOgTcIuEl" x1="1703.0000007152557px" x2="1103.0000007152557px" y1="2057.7000035762785px" y2="2913.1000057220463px" gradientUnits="userSpaceOnUse"><stop offset="0" stop-color="rgb(211,211,211)" stop-opacity="1"/><stop offset="1" stop-color="rgb(29,122,218)" stop-opacity="1"/></linearGradient></defs><g transform="translate(57.7,10.100000000000001) scale(0.2,0.2)"><path fill="rgb(244,236,255)" stroke="rgb(255,255,255)" paint-order="fill stroke markers" d=" M 1900.8500010728835 -48.5 L 4080.200002145767 -48.5 L 4080.200002145767 -48.5 A 8 8 0 0 1 4088.200002145767 -40.5 L 4088.200002145767 4429.100010728836 L 4088.200002145767 4429.100010728836 A 8 8 0 0 1 4080.200002145767 4437.100010728836 L -278.5 4437.100010728836 L -278.5 4437.100010728836 A 8 8 0 0 1 -286.5 4429.100010728836 L -286.5 -40.5 L -286.5 -40.5 A 8 8 0 0 1 -278.5 -48.5 L 1900.8500010728835 -48.5 Z" fill-opacity="1" stroke-opacity="1" stroke-miterlimit="10" stroke-width="2"/><text fill="rgb(0,0,0)" stroke="none" font-family="Avenir, Helvetica, Arial, sans-serif" font-size="32px" font-style="normal" font-weight="bold" text-decoration="normal" x="1900.8500010728835" y="26.5" text-anchor="middle" dominant-baseline="text-after-edge" fill-opacity="1">.</text><path fill="rgb(255,255,255)" stroke="rgb(211,211,211)" paint-order="fill stroke markers" d=" M 2506.2000014305113 157.5 L 2875.7000014305113 157.5 L 2875.7000014305113 157.5 A 8 8 0 0 1 2883.7000014305113 165.5 L 2883.7000014305113 833.5000021457672 L 2883.7000014305113 833.5000021457672 A 8 8 0 0 1 2875.7000014305113 841.5000021457672 L 2136.7000014305113 841.5000021457672 L 2136.7000014305113 841.5000021457672 A 8 8 0 0 1 2128.7000014305113 833.5000021457672 L 2128.7000014305113 165.5 L 2128.7000014305113 165.5 A 8 8 0 0 1 2136.7000014305113 157.5 L 2506.2000014305113 157.5 Z" fill-opacity="1" stroke-opacity="1" stroke-miterlimit="10"/><text fill="rgb(0,0,0)" stroke="none" font-family="Avenir, Helvetica, Arial, sans-serif" font-size="32px" font-style="normal" font-weight="bold" text-decoration="normal" x="2506.2000014305113" y="232.5" text-anchor="middle" dominant-baseline="text-after-edge" fill-opacity="1">outputs.tf</text><path fill="rgb(255,255,255)" stroke="rgb(211,211,211)" paint-order="fill stroke markers" d=" M 300 157.5 L 669.5 157.5 L 669.5 157.5 A 8 8 0 0 1 677.5 165.5 L 677.5 434.5 L 677.5 434.5 A 8 8 0 0 1 669.5 442.5 L -69.5 442.5 L -69.5 442.5 A 8 8 0 0 1 -77.5 434.5 L -77.5 165.5 L -77.5 165.5 A 8 8 0 0 1 -69.5 157.5 L 300 157.5 Z" fill-opacity="1" stroke-opacity="1" stroke-miterlimit="10"/><text fill="rgb(0,0,0)" stroke="none" font-family="Avenir, Helvetica, Arial, sans-serif" font-size="32px" font-style="normal" font-weight="bold" text-decoration="normal" x="300" y="232.5" text-anchor="middle" dominant-baseline="text-after-edge" fill-opacity="1">variables.tf</text><path fill="rgb(255,255,255)" stroke="rgb(211,211,211)" paint-order="fill stroke markers" d=" M 1403.0000007152557 153 L 1831.5000007152557 153 L 1831.5000007152557 153 A 8 8 0 0 1 1839.5000007152557 161 L 1839.5000007152557 593.5 L 1839.5000007152557 593.5 A 8 8 0 0 1 1831.5000007152557 601.5 L 974.5000007152557 601.5 L 974.5000007152557 601.5 A 8 8 0 0 1 966.5000007152557 593.5 L 966.5000007152557 161 L 966.5000007152557 161 A 8 8 0 0 1 974.5000007152557 153 L 1403.0000007152557 153 Z" fill-opacity="1" stroke-opacity="1" stroke-miterlimit="10"/><text fill="rgb(0,0,0)" stroke="none" font-family="Avenir, Helvetica, Arial, sans-serif" font-size="32px" font-style="normal" font-weight="bold" text-decoration="normal" x="1403.0000007152557" y="228" text-anchor="middle" dominant-baseline="text-after-edge" fill-opacity="1">data.tf</text><path fill="rgb(255,255,255)" stroke="rgb(211,211,211)" paint-order="fill stroke markers" d=" M 1164.6000003576278 1080.500002861023 L 2406.2000007152556 1080.500002861023 L 2406.2000007152556 1080.500002861023 A 8 8 0 0 1 2414.2000007152556 1088.500002861023 L 2414.2000007152556 4227.600010728836 L 2414.2000007152556 4227.600010728836 A 8 8 0 0 1 2406.2000007152556 4235.600010728836 L -77 4235.600010728836 L -77 4235.600010728836 A 8 8 0 0 1 -85 4227.600010728836 L -85 1088.500002861023 L -85 1088.500002861023 A 8 8 0 0 1 -77 1080.500002861023 L 1164.6000003576278 1080.500002861023 Z" fill-opacity="1" stroke-opacity="1" stroke-miterlimit="10"/><text fill="rgb(0,0,0)" stroke="none" font-family="Avenir, Helvetica, Arial, sans-serif" font-size="32px" font-style="normal" font-weight="bold" text-decoration="normal" x="1164.6000003576278" y="1155.500002861023" text-anchor="middle" dominant-baseline="text-after-edge" fill-opacity="1">main.tf</text><path fill="rgb(255,255,255)" stroke="rgb(211,211,211)" paint-order="fill stroke markers" d=" M 3509.200002145767 157.5 L 3878.700002145767 157.5 L 3878.700002145767 157.5 A 8 8 0 0 1 3886.700002145767 165.5 L 3886.700002145767 833.5000021457672 L 3886.700002145767 833.5000021457672 A 8 8 0 0 1 3878.700002145767 841.5000021457672 L 3139.700002145767 841.5000021457672 L 3139.700002145767 841.5000021457672 A 8 8 0 0 1 3131.700002145767 833.5000021457672 L 3131.700002145767 165.5 L 3131.700002145767 165.5 A 8 8 0 0 1 3139.700002145767 157.5 L 3509.200002145767 157.5 Z" fill-opacity="1" stroke-opacity="1" stroke-miterlimit="10"/><text fill="rgb(0,0,0)" stroke="none" font-family="Avenir, Helvetica, Arial, sans-serif" font-size="32px" font-style="normal" font-weight="bold" text-decoration="normal" x="3509.200002145767" y="232.5" text-anchor="middle" dominant-baseline="text-after-edge" fill-opacity="1">unknown file</text><path fill="rgb(255,255,255)" stroke="rgb(0,0,0)" paint-order="fill stroke markers" d=" M 1403.0000007152557 302 L 1728.0000007152557 302 L 1728.0000007152557 302 A 8 8 0 0 1 1736.0000007152557 310 L 1736.0000007152557 490 L 1736.0000007152557 490 A 8 8 0 0 1 1728.0000007152557 498 L 1078.0000007152557 498 L 1078.0000007152557 498 A 8 8 0 0 1 1070.0000007152557 490 L 1070.0000007152557 310 L 1070.0000007152557 310 A 8 8 0 0 1 1078.0000007152557 302 L 1403.0000007152557 302 Z" fill-opacity="1" stroke-opacity="1" stroke-miterlimit="10" stroke-width="5"/><rect fill="rgb(255,255,255)" stroke="none" x="1251.0000007152557" y="253" width="304" height="96" fill-opacity="1"/><text fill="rgb(0,0,0)" stroke="none" font-family="Avenir, Helvetica, Arial, sans-serif" font-size="32px" font-style="normal" font-weight="bold" text-decoration="normal" x="1403.0000007152557" y="317" text-anchor="middle" dominant-baseline="text-after-edge" fill-opacity="1">hcloud_network</text><path fill="rgb(255,255,255)" stroke="rgb(132,80,186)" paint-order="fill stroke markers" d=" M 1164.6000003576278 1186.500002861023 L 2300.2000007152556 1186.500002861023 L 2300.2000007152556 1186.500002861023 A 8 8 0 0 1 2308.2000007152556 1194.500002861023 L 2308.2000007152556 4121.600010728836 L 2308.2000007152556 4121.600010728836 A 8 8 0 0 1 2300.2000007152556 4129.600010728836 L 29 4129.600010728836 L 29 4129.600010728836 A 8 8 0 0 1 21 4121.600010728836 L 21 1194.500002861023 L 21 1194.500002861023 A 8 8 0 0 1 29 1186.500002861023 L 1164.6000003576278 1186.500002861023 Z" fill-opacity="1" stroke-opacity="1" stroke-miterlimit="10" stroke-width="10"/><text fill="rgb(132,80,186)" stroke="none" font-family="Avenir, Helvetica, Arial, sans-serif" font-size="32px" font-style="normal" font-weight="bold" text-decoration="normal" x="1164.6000003576278" y="1246.500002861023" text-anchor="middle" dominant-baseline="text-after-edge" fill-opacity="1">hcloud_server</text><path fill="rgb(255,255,255)" stroke="rgb(211,211,211)" paint-order="fill stroke markers" d=" M 801.5000003576279 2546.100004291535 L 1472.5000007152557 2546.100004291535 L 1472.5000007152557 2546.100004291535 A 8 8 0 0 1 1480.5000007152557 2554.100004291535 L 1480.5000007152557 4020.1000107288364 L 1480.5000007152557 4020.1000107288364 A 8 8 0 0 1 1472.5000007152557 4028.1000107288364 L 130.5 4028.1000107288364 L 130.5 4028.1000107288364 A 8 8 0 0 1 122.5 4020.1000107288364 L 122.5 2554.100004291535 L 122.5 2554.100004291535 A 8 8 0 0 1 130.5 2546.100004291535 L 801.5000003576279 2546.100004291535 Z" fill-opacity="1" stroke-opacity="1" stroke-miterlimit="10"/><text fill="rgb(0,0,0)" stroke="none" font-family="Avenir, Helvetica, Arial, sans-serif" font-size="32px" font-style="normal" font-weight="bold" text-decoration="normal" x="801.5000003576279" y="2621.100004291535" text-anchor="middle" dominant-baseline="text-after-edge" fill-opacity="1">variables.tf</text><path fill="rgb(255,255,255)" stroke="rgb(211,211,211)" paint-order="fill stroke markers" d=" M 1688.1000007152556 1288.000002861023 L 2198.7000007152556 1288.000002861023 L 2198.7000007152556 1288.000002861023 A 8 8 0 0 1 2206.7000007152556 1296.000002861023 L 2206.7000007152556 2220.9000035762783 L 2206.7000007152556 2220.9000035762783 A 8 8 0 0 1 2198.7000007152556 2228.9000035762783 L 1177.5000007152557 2228.9000035762783 L 1177.5000007152557 2228.9000035762783 A 8 8 0 0 1 1169.5000007152557 2220.9000035762783 L 1169.5000007152557 1296.000002861023 L 1169.5000007152557 1296.000002861023 A 8 8 0 0 1 1177.5000007152557 1288.000002861023 L 1688.1000007152556 1288.000002861023 Z" fill-opacity="1" stroke-opacity="1" stroke-miterlimit="10"/><text fill="rgb(0,0,0)" stroke="none" font-family="Avenir, Helvetica, Arial, sans-serif" font-size="32px" font-style="normal" font-weight="bold" text-decoration="normal" x="1688.1000007152556" y="1363.000002861023" text-anchor="middle" dominant-baseline="text-after-edge" fill-opacity="1">main.tf</text><path fill="rgb(255,255,255)" stroke="rgb(211,211,211)" paint-order="fill stroke markers" d=" M 500 1289.500002861023 L 869.5 1289.500002861023 L 869.5 1289.500002861023 A 8 8 0 0 1 877.5 1297.500002861023 L 877.5 1965.5000050067902 L 877.5 1965.5000050067902 A 8 8 0 0 1 869.5 1973.5000050067902 L 130.5 1973.5000050067902 L 130.5 1973.5000050067902 A 8 8 0 0 1 122.5 1965.5000050067902 L 122.5 1297.500002861023 L 122.5 1297.500002861023 A 8 8 0 0 1 130.5 1289.500002861023 L 500 1289.500002861023 Z" fill-opacity="1" stroke-opacity="1" stroke-miterlimit="10"/><text fill="rgb(0,0,0)" stroke="none" font-family="Avenir, Helvetica, Arial, sans-serif" font-size="32px" font-style="normal" font-weight="bold" text-decoration="normal" x="500" y="1364.500002861023" text-anchor="middle" dominant-baseline="text-after-edge" fill-opacity="1">outputs.tf</text><path fill="rgb(255,255,255)" stroke="rgb(0,0,0)" paint-order="fill stroke markers" d=" M 1703.0000007152557 1749.5000035762787 L 2095.2000007152556 1749.5000035762787 L 2095.2000007152556 1749.5000035762787 A 8 8 0 0 1 2103.2000007152556 1757.5000035762787 L 2103.2000007152556 2117.4000035762783 L 2103.2000007152556 2117.4000035762783 A 8 8 0 0 1 2095.2000007152556 2125.4000035762783 L 1310.8000007152557 2125.4000035762783 L 1310.8000007152557 2125.4000035762783 A 8 8 0 0 1 1302.8000007152557 2117.4000035762783 L 1302.8000007152557 1757.5000035762787 L 1302.8000007152557 1757.5000035762787 A 8 8 0 0 1 1310.8000007152557 1749.5000035762787 L 1703.0000007152557 1749.5000035762787 Z" fill-opacity="1" stroke-opacity="1" stroke-miterlimit="10" stroke-width="5"/><rect fill="rgb(255,255,255)" stroke="none" x="1496.5000007152557" y="1700.5000035762785" width="413" height="96" fill-opacity="1"/><text fill="rgb(0,0,0)" stroke="none" font-family="Avenir, Helvetica, Arial, sans-serif" font-size="32px" font-style="normal" font-weight="bold" text-decoration="normal" x="1703.0000007152557" y="1764.5000035762785" text-anchor="middle" dominant-baseline="text-after-edge" fill-opacity="1">hcloud_server_network</text><path fill="rgb(255,255,255)" stroke="rgb(0,0,0)" paint-order="fill stroke markers" d=" M 1603.0000007152557 1437.000002861023 L 1925.0000007152557 1437.000002861023 L 1925.0000007152557 1437.000002861023 A 8 8 0 0 1 1933.0000007152557 1445.000002861023 L 1933.0000007152557 1619.000002861023 L 1933.0000007152557 1619.000002861023 A 8 8 0 0 1 1925.0000007152557 1627.000002861023 L 1281.0000007152557 1627.000002861023 L 1281.0000007152557 1627.000002861023 A 8 8 0 0 1 1273.0000007152557 1619.000002861023 L 1273.0000007152557 1445.000002861023 L 1273.0000007152557 1445.000002861023 A 8 8 0 0 1 1281.0000007152557 1437.000002861023 L 1603.0000007152557 1437.000002861023 Z" fill-opacity="1" stroke-opacity="1" stroke-miterlimit="10" stroke-width="5"/><rect fill="rgb(255,255,255)" stroke="none" x="1466.5000007152557" y="1388.000002861023" width="273" height="96" fill-opacity="1"/><text fill="rgb(0,0,0)" stroke="none" font-family="Avenir, Helvetica, Arial, sans-serif" font-size="32px" font-style="normal" font-weight="bold" text-decoration="normal" x="1603.0000007152557" y="1452.000002861023" text-anchor="middle" dominant-baseline="text-after-edge" fill-opacity="1">hcloud_server</text><path fill="rgb(255,255,255)" stroke="rgb(0,0,0)" paint-order="fill stroke markers" d=" M 1703.0000007152557 1865.2000035762787 L 2025.0000007152557 1865.2000035762787 L 2025.0000007152557 1865.2000035762787 A 8 8 0 0 1 2033.0000007152557 1873.2000035762787 L 2033.0000007152557 2047.2000035762785 L 2033.0000007152557 2047.2000035762785 A 8 8 0 0 1 2025.0000007152557 2055.2000035762785 L 1381.0000007152557 2055.2000035762785 L 1381.0000007152557 2055.2000035762785 A 8 8 0 0 1 1373.0000007152557 2047.2000035762785 L 1373.0000007152557 1873.2000035762787 L 1373.0000007152557 1873.2000035762787 A 8 8 0 0 1 1381.0000007152557 1865.2000035762787 L 1703.0000007152557 1865.2000035762787 Z" fill-opacity="1" stroke-opacity="1" stroke-miterlimit="10" stroke-width="5"/><rect fill="rgb(255,255,255)" stroke="none" x="1618.0000007152557" y="1816.2000035762787" width="170" height="96" fill-opacity="1"/><text fill="rgb(0,0,0)" stroke="none" font-family="Avenir, Helvetica, Arial, sans-serif" font-size="32px" font-style="normal" font-weight="bold" text-decoration="normal" x="1703.0000007152557" y="1880.2000035762787" text-anchor="middle" dominant-baseline="text-after-edge" fill-opacity="1">default</text><path fill="none" stroke="url(#NinDBBsKlaop)" paint-order="fill stroke markers" d=" M 2506.2000014305113 740.5000021457672 L 2506.2000014305113 961.0000025033951 L 1164.6000003576278 961.0000025033951 L 1164.6000003576278 1181.500002861023" stroke-linejoin="round" stroke-miterlimit="10" stroke-width="10"/><path fill="none" stroke="url(#gwXIXlSoRpOH)" paint-order="fill stroke markers" d=" M 2506.2000014305113 740.5000021457672 L 2506.2000014305113 961.0000025033951 L 1164.6000003576278 961.0000025033951 L 1164.6000003576278 1181.500002861023" stroke-linejoin="round" stroke-miterlimit="10" stroke-width="10"/><path fill="none" stroke="url(#DiFHCNiyJbRT)" paint-order="fill stroke markers" d=" M 2506.2000014305113 341.5 L 2506.2000014305113 761.5000014305115 L 1164.6000003576278 761.5000014305115 L 1164.6000003576278 1181.500002861023" stroke-linejoin="round" stroke-miterlimit="10" stroke-width="10"/><path fill="none" stroke="url(#KeLAZzpFPDPc)" paint-order="fill stroke markers" d=" M 2506.2000014305113 341.5 L 2506.2000014305113 761.5000014305115 L 1164.6000003576278 761.5000014305115 L 1164.6000003576278 1181.500002861023" stroke-linejoin="round" stroke-miterlimit="10" stroke-width="10"/><path fill="none" stroke="url(#tQGMdQTEUHnt)" paint-order="fill stroke markers" d=" M 2506.2000014305113 474.50000071525574 L 2506.2000014305113 828.0000017881393 L 1164.6000003576278 828.0000017881393 L 1164.6000003576278 1181.500002861023" stroke-linejoin="round" stroke-miterlimit="10" stroke-width="10"/><path fill="none" stroke="url(#XdUXxPUtiMmq)" paint-order="fill stroke markers" d=" M 2506.2000014305113 474.50000071525574 L 2506.2000014305113 828.0000017881393 L 1164.6000003576278 828.0000017881393 L 1164.6000003576278 1181.500002861023" stroke-linejoin="round" stroke-miterlimit="10" stroke-width="10"/><path fill="none" stroke="url(#qpkrMTqHhETv)" paint-order="fill stroke markers" d=" M 2506.2000014305113 607.5000014305115 L 2506.2000014305113 894.5000021457672 L 1164.6000003576278 894.5000021457672 L 1164.6000003576278 1181.500002861023" stroke-linejoin="round" stroke-miterlimit="10" stroke-width="10"/><path fill="none" stroke="url(#nvSTruCWvSBH)" paint-order="fill stroke markers" d=" M 2506.2000014305113 607.5000014305115 L 2506.2000014305113 894.5000021457672 L 1164.6000003576278 894.5000021457672 L 1164.6000003576278 1181.500002861023" stroke-linejoin="round" stroke-miterlimit="10" stroke-width="10"/><path fill="none" stroke="url(#ylKTaSPqkout)" paint-order="fill stroke markers" d=" M 2313.2000007152556 2658.0500067949297 L 2772.9500014305113 2658.0500067949297 L 2772.9500014305113 566.0000014305115 L 3232.700002145767 566.0000014305115" stroke-linejoin="round" stroke-miterlimit="10" stroke-width="10"/><path fill="none" stroke="url(#LCKiTbxqRexd)" paint-order="fill stroke markers" d=" M 2313.2000007152556 2658.0500067949297 L 2772.9500014305113 2658.0500067949297 L 2772.9500014305113 699.0000021457672 L 3232.700002145767 699.0000021457672" stroke-linejoin="round" stroke-miterlimit="10" stroke-width="10"/><path fill="none" stroke="url(#nWUsqpSfDaAS)" paint-order="fill stroke markers" d=" M 2313.2000007152556 2658.0500067949297 L 2772.9500014305113 2658.0500067949297 L 2772.9500014305113 300 L 3232.700002145767 300" stroke-linejoin="round" stroke-miterlimit="10" stroke-width="10"/><path fill="none" stroke="url(#LxyEbXHFeIms)" paint-order="fill stroke markers" d=" M 1164.6000003576278 1181.500002861023 L 1164.6000003576278 811.5000014305115 L 1403.0000007152557 811.5000014305115 L 1403.0000007152557 441.5" stroke-linejoin="round" stroke-miterlimit="10" stroke-width="10"/><path fill="none" stroke="url(#RoEDIVzdtDZu)" paint-order="fill stroke markers" d=" M 2313.2000007152556 2658.0500067949297 L 2772.9500014305113 2658.0500067949297 L 2772.9500014305113 433.00000071525574 L 3232.700002145767 433.00000071525574" stroke-linejoin="round" stroke-miterlimit="10" stroke-width="10"/><path fill="none" stroke="url(#ZbcFAnUMyILo)" paint-order="fill stroke markers" d=" M 776.5 1432.000002861023 L 1052.7500003576279 1432.000002861023 L 1052.7500003576279 1532.000002861023 L 1329.0000007152557 1532.000002861023" stroke-linejoin="round" stroke-miterlimit="10" stroke-width="10"/><path fill="none" stroke="url(#sksoAdQpPbrK)" paint-order="fill stroke markers" d=" M 776.5 1565.0000035762787 L 1073.5000003576279 1565.0000035762787 L 1073.5000003576279 1960.2000035762787 L 1370.5000007152557 1960.2000035762787" stroke-linejoin="round" stroke-miterlimit="10" stroke-width="10"/><path fill="none" stroke="url(#bTrQLrylLEUd)" paint-order="fill stroke markers" d=" M 776.5 1698.0000042915344 L 1052.7500003576279 1698.0000042915344 L 1052.7500003576279 1532.000002861023 L 1329.0000007152557 1532.000002861023" stroke-linejoin="round" stroke-miterlimit="10" stroke-width="10"/><path fill="none" stroke="url(#dKwXraTpNFtu)" paint-order="fill stroke markers" d=" M 776.5 1831.0000050067902 L 1052.7500003576279 1831.0000050067902 L 1052.7500003576279 1532.000002861023 L 1329.0000007152557 1532.000002861023" stroke-linejoin="round" stroke-miterlimit="10" stroke-width="10"/><path fill="none" stroke="url(#ngdrWaCTCWiM)" paint-order="fill stroke markers" d=" M 1603.0000007152557 1571.000002861023 L 1603.0000007152557 2641.050006437302 L 1103.0000007152557 2641.050006437302 L 1103.0000007152557 3711.1000100135807" stroke-linejoin="round" stroke-miterlimit="10" stroke-width="10"/><path fill="none" stroke="url(#kMhIITrInRro)" paint-order="fill stroke markers" d=" M 1603.0000007152557 1571.000002861023 L 1603.0000007152557 2641.050006437302 L 500 2641.050006437302 L 500 3711.1000100135807" stroke-linejoin="round" stroke-miterlimit="10" stroke-width="10"/><path fill="none" stroke="url(#laXgROPiRptH)" paint-order="fill stroke markers" d=" M 1603.0000007152557 1571.000002861023 L 1603.0000007152557 2175.5500039339067 L 1103.0000007152557 2175.5500039339067 L 1103.0000007152557 2780.1000050067905" stroke-linejoin="round" stroke-miterlimit="10" stroke-width="10"/><path fill="none" stroke="url(#PbmnHdiOvSUu)" paint-order="fill stroke markers" d=" M 1603.0000007152557 1571.000002861023 L 1603.0000007152557 2508.050005722046 L 500 2508.050005722046 L 500 3445.100008583069" stroke-linejoin="round" stroke-miterlimit="10" stroke-width="10"/><path fill="none" stroke="url(#LpPvlCBGhnZP)" paint-order="fill stroke markers" d=" M 1603.0000007152557 1571.000002861023 L 1603.0000007152557 2375.0500050067903 L 500 2375.0500050067903 L 500 3179.1000071525577" stroke-linejoin="round" stroke-miterlimit="10" stroke-width="10"/><path fill="none" stroke="url(#ZhHkgvSTqVGk)" paint-order="fill stroke markers" d=" M 1603.0000007152557 1571.000002861023 L 1603.0000007152557 2574.550006079674 L 1103.0000007152557 2574.550006079674 L 1103.0000007152557 3578.100009298325" stroke-linejoin="round" stroke-miterlimit="10" stroke-width="10"/><path fill="none" stroke="url(#nivuisgMMSCI)" paint-order="fill stroke markers" d=" M 1603.0000007152557 1571.000002861023 L 1603.0000007152557 2508.050005722046 L 1103.0000007152557 2508.050005722046 L 1103.0000007152557 3445.100008583069" stroke-linejoin="round" stroke-miterlimit="10" stroke-width="10"/><path fill="none" stroke="url(#XDHvkPObzcTE)" paint-order="fill stroke markers" d=" M 1603.0000007152557 1571.000002861023 L 1603.0000007152557 2308.5500046491625 L 1103.0000007152557 2308.5500046491625 L 1103.0000007152557 3046.100006437302" stroke-linejoin="round" stroke-miterlimit="10" stroke-width="10"/><path fill="none" stroke="url(#cKXJZClJhoHr)" paint-order="fill stroke markers" d=" M 1603.0000007152557 1571.000002861023 L 1603.0000007152557 2375.0500050067903 L 1103.0000007152557 2375.0500050067903 L 1103.0000007152557 3179.1000071525577" stroke-linejoin="round" stroke-miterlimit="10" stroke-width="10"/><path fill="none" stroke="url(#dLJyMZZvmUuq)" paint-order="fill stroke markers" d=" M 1603.0000007152557 1571.000002861023 L 1603.0000007152557 2441.550005364418 L 500 2441.550005364418 L 500 3312.1000078678135" stroke-linejoin="round" stroke-miterlimit="10" stroke-width="10"/><path fill="none" stroke="url(#kdUqsNplEkka)" paint-order="fill stroke markers" d=" M 1603.0000007152557 1571.000002861023 L 1603.0000007152557 2707.5500067949297 L 500 2707.5500067949297 L 500 3844.1000107288364" stroke-linejoin="round" stroke-miterlimit="10" stroke-width="10"/><path fill="none" stroke="url(#gwpoDpNCNZNU)" paint-order="fill stroke markers" d=" M 1603.0000007152557 1571.000002861023 L 1603.0000007152557 2574.550006079674 L 500 2574.550006079674 L 500 3578.100009298325" stroke-linejoin="round" stroke-miterlimit="10" stroke-width="10"/><path fill="none" stroke="url(#OkiUVRMNAxpL)" paint-order="fill stroke markers" d=" M 1603.0000007152557 1571.000002861023 L 1603.0000007152557 2707.5500067949297 L 1103.0000007152557 2707.5500067949297 L 1103.0000007152557 3844.1000107288364" stroke-linejoin="round" stroke-miterlimit="10" stroke-width="10"/><path fill="none" stroke="url(#JwZmNTPdyNyQ)" paint-order="fill stroke markers" d=" M 1603.0000007152557 1571.000002861023 L 1603.0000007152557 2175.5500039339067 L 500 2175.5500039339067 L 500 2780.1000050067905" stroke-linejoin="round" stroke-miterlimit="10" stroke-width="10"/><path fill="none" stroke="url(#EWORWAPmWgmG)" paint-order="fill stroke markers" d=" M 1603.0000007152557 1571.000002861023 L 1603.0000007152557 2441.550005364418 L 1103.0000007152557 2441.550005364418 L 1103.0000007152557 3312.1000078678135" stroke-linejoin="round" stroke-miterlimit="10" stroke-width="10"/><path fill="none" stroke="url(#rpgDyenzDetI)" paint-order="fill stroke markers" d=" M 1703.0000007152557 2057.7000035762785 L 1703.0000007152557 2485.4000046491624 L 500 2485.4000046491624 L 500 2913.1000057220463" stroke-linejoin="round" stroke-miterlimit="10" stroke-width="10"/><path fill="none" stroke="url(#IfWkeyazDCOZ)" paint-order="fill stroke markers" d=" M 1703.0000007152557 2057.7000035762785 L 1703.0000007152557 2352.4000039339066 L 1103.0000007152557 2352.4000039339066 L 1103.0000007152557 2647.100004291535" stroke-linejoin="round" stroke-miterlimit="10" stroke-width="10"/><path fill="none" stroke="url(#lyStcERnNpQc)" paint-order="fill stroke markers" d=" M 1703.0000007152557 1862.7000035762787 L 1703.0000007152557 1716.8500032186507 L 1603.0000007152557 1716.8500032186507 L 1603.0000007152557 1571.000002861023" stroke-linejoin="round" stroke-miterlimit="10" stroke-width="10"/><path fill="none" stroke="url(#XmvdONFTJxAA)" paint-order="fill stroke markers" d=" M 1370.5000007152557 1960.2000035762787 L 1073.5000003576279 1960.2000035762787 L 1073.5000003576279 2688.600004291535 L 776.5 2688.600004291535" stroke-linejoin="round" stroke-miterlimit="10" stroke-width="10"/><path fill="none" stroke="url(#CBUMOgTcIuEl)" paint-order="fill stroke markers" d=" M 1703.0000007152557 2057.7000035762785 L 1703.0000007152557 2485.4000046491624 L 1103.0000007152557 2485.4000046491624 L 1103.0000007152557 2913.1000057220463" stroke-linejoin="round" stroke-miterlimit="10" stroke-width="10"/><path fill="rgb(255,247,224)" stroke="rgb(255,193,7)" paint-order="fill stroke markers" d=" M 2506.2000014305113 261 L 2772.2000014305113 261 L 2772.2000014305113 261 A 8 8 0 0 1 2780.2000014305113 269 L 2780.2000014305113 331 L 2780.2000014305113 331 A 8 8 0 0 1 2772.2000014305113 339 L 2240.2000014305113 339 L 2240.2000014305113 339 A 8 8 0 0 1 2232.2000014305113 331 L 2232.2000014305113 269 L 2232.2000014305113 269 A 8 8 0 0 1 2240.2000014305113 261 L 2506.2000014305113 261 Z" fill-opacity="1" stroke-opacity="1" stroke-miterlimit="10" stroke-width="5"/><text fill="rgb(0,0,0)" stroke="none" font-family="Avenir, Helvetica, Arial, sans-serif" font-size="32px" font-style="normal" font-weight="bold" text-decoration="normal" x="2506.2000014305113" y="316" text-anchor="middle" dominant-baseline="text-after-edge" fill-opacity="1">server_ipv4_address_public</text><path fill="rgb(255,247,224)" stroke="rgb(255,193,7)" paint-order="fill stroke markers" d=" M 2506.2000014305113 394.00000071525574 L 2772.2000014305113 394.00000071525574 L 2772.2000014305113 394.00000071525574 A 8 8 0 0 1 2780.2000014305113 402.00000071525574 L 2780.2000014305113 464.00000071525574 L 2780.2000014305113 464.00000071525574 A 8 8 0 0 1 2772.2000014305113 472.00000071525574 L 2240.2000014305113 472.00000071525574 L 2240.2000014305113 472.00000071525574 A 8 8 0 0 1 2232.2000014305113 464.00000071525574 L 2232.2000014305113 402.00000071525574 L 2232.2000014305113 402.00000071525574 A 8 8 0 0 1 2240.2000014305113 394.00000071525574 L 2506.2000014305113 394.00000071525574 Z" fill-opacity="1" stroke-opacity="1" stroke-miterlimit="10" stroke-width="5"/><text fill="rgb(0,0,0)" stroke="none" font-family="Avenir, Helvetica, Arial, sans-serif" font-size="32px" font-style="normal" font-weight="bold" text-decoration="normal" x="2506.2000014305113" y="449.00000071525574" text-anchor="middle" dominant-baseline="text-after-edge" fill-opacity="1">server_ipv4_address_private</text><path fill="rgb(255,247,224)" stroke="rgb(255,193,7)" paint-order="fill stroke markers" d=" M 2506.2000014305113 527.0000014305115 L 2772.2000014305113 527.0000014305115 L 2772.2000014305113 527.0000014305115 A 8 8 0 0 1 2780.2000014305113 535.0000014305115 L 2780.2000014305113 597.0000014305115 L 2780.2000014305113 597.0000014305115 A 8 8 0 0 1 2772.2000014305113 605.0000014305115 L 2240.2000014305113 605.0000014305115 L 2240.2000014305113 605.0000014305115 A 8 8 0 0 1 2232.2000014305113 597.0000014305115 L 2232.2000014305113 535.0000014305115 L 2232.2000014305113 535.0000014305115 A 8 8 0 0 1 2240.2000014305113 527.0000014305115 L 2506.2000014305113 527.0000014305115 Z" fill-opacity="1" stroke-opacity="1" stroke-miterlimit="10" stroke-width="5"/><text fill="rgb(0,0,0)" stroke="none" font-family="Avenir, Helvetica, Arial, sans-serif" font-size="32px" font-style="normal" font-weight="bold" text-decoration="normal" x="2506.2000014305113" y="582.0000014305115" text-anchor="middle" dominant-baseline="text-after-edge" fill-opacity="1">server_id</text><path fill="rgb(255,247,224)" stroke="rgb(255,193,7)" paint-order="fill stroke markers" d=" M 2506.2000014305113 660.0000021457672 L 2772.2000014305113 660.0000021457672 L 2772.2000014305113 660.0000021457672 A 8 8 0 0 1 2780.2000014305113 668.0000021457672 L 2780.2000014305113 730.0000021457672 L 2780.2000014305113 730.0000021457672 A 8 8 0 0 1 2772.2000014305113 738.0000021457672 L 2240.2000014305113 738.0000021457672 L 2240.2000014305113 738.0000021457672 A 8 8 0 0 1 2232.2000014305113 730.0000021457672 L 2232.2000014305113 668.0000021457672 L 2232.2000014305113 668.0000021457672 A 8 8 0 0 1 2240.2000014305113 660.0000021457672 L 2506.2000014305113 660.0000021457672 Z" fill-opacity="1" stroke-opacity="1" stroke-miterlimit="10" stroke-width="5"/><text fill="rgb(0,0,0)" stroke="none" font-family="Avenir, Helvetica, Arial, sans-serif" font-size="32px" font-style="normal" font-weight="bold" text-decoration="normal" x="2506.2000014305113" y="715.0000021457672" text-anchor="middle" dominant-baseline="text-after-edge" fill-opacity="1">server_name</text><path fill="rgb(225,240,255)" stroke="rgb(29,122,218)" paint-order="fill stroke markers" d=" M 300 261 L 566 261 L 566 261 A 8 8 0 0 1 574 269 L 574 331 L 574 331 A 8 8 0 0 1 566 339 L 34 339 L 34 339 A 8 8 0 0 1 26 331 L 26 269 L 26 269 A 8 8 0 0 1 34 261 L 300 261 Z" fill-opacity="1" stroke-opacity="1" stroke-miterlimit="10" stroke-width="5"/><text fill="rgb(0,0,0)" stroke="none" font-family="Avenir, Helvetica, Arial, sans-serif" font-size="32px" font-style="normal" font-weight="bold" text-decoration="normal" x="300" y="316" text-anchor="middle" dominant-baseline="text-after-edge" fill-opacity="1">token</text><path fill="rgb(255,236,236)" stroke="rgb(220,71,125)" paint-order="fill stroke markers" d=" M 1403.0000007152557 361 L 1669.0000007152557 361 L 1669.0000007152557 361 A 8 8 0 0 1 1677.0000007152557 369 L 1677.0000007152557 431 L 1677.0000007152557 431 A 8 8 0 0 1 1669.0000007152557 439 L 1137.0000007152557 439 L 1137.0000007152557 439 A 8 8 0 0 1 1129.0000007152557 431 L 1129.0000007152557 369 L 1129.0000007152557 369 A 8 8 0 0 1 1137.0000007152557 361 L 1403.0000007152557 361 Z" fill-opacity="1" stroke-opacity="1" stroke-miterlimit="10" stroke-width="5"/><text fill="rgb(0,0,0)" stroke="none" font-family="Avenir, Helvetica, Arial, sans-serif" font-size="32px" font-style="normal" font-weight="bold" text-decoration="normal" x="1403.0000007152557" y="416" text-anchor="middle" dominant-baseline="text-after-edge" fill-opacity="1">default</text><path fill="rgb(225,240,255)" stroke="rgb(29,122,218)" paint-order="fill stroke markers" d=" M 500 2649.600004291535 L 766 2649.600004291535 L 766 2649.600004291535 A 8 8 0 0 1 774 2657.600004291535 L 774 2719.600004291535 L 774 2719.600004291535 A 8 8 0 0 1 766 2727.600004291535 L 234 2727.600004291535 L 234 2727.600004291535 A 8 8 0 0 1 226 2719.600004291535 L 226 2657.600004291535 L 226 2657.600004291535 A 8 8 0 0 1 234 2649.600004291535 L 500 2649.600004291535 Z" fill-opacity="1" stroke-opacity="1" stroke-miterlimit="10" stroke-width="5"/><text fill="rgb(0,0,0)" stroke="none" font-family="Avenir, Helvetica, Arial, sans-serif" font-size="32px" font-style="normal" font-weight="bold" text-decoration="normal" x="500" y="2704.600004291535" text-anchor="middle" dominant-baseline="text-after-edge" fill-opacity="1">subnet_id</text><path fill="rgb(225,240,255)" stroke="rgb(29,122,218)" paint-order="fill stroke markers" d=" M 1103.0000007152557 2649.600004291535 L 1369.0000007152557 2649.600004291535 L 1369.0000007152557 2649.600004291535 A 8 8 0 0 1 1377.0000007152557 2657.600004291535 L 1377.0000007152557 2719.600004291535 L 1377.0000007152557 2719.600004291535 A 8 8 0 0 1 1369.0000007152557 2727.600004291535 L 837.0000007152557 2727.600004291535 L 837.0000007152557 2727.600004291535 A 8 8 0 0 1 829.0000007152557 2719.600004291535 L 829.0000007152557 2657.600004291535 L 829.0000007152557 2657.600004291535 A 8 8 0 0 1 837.0000007152557 2649.600004291535 L 1103.0000007152557 2649.600004291535 Z" fill-opacity="1" stroke-opacity="1" stroke-miterlimit="10" stroke-width="5"/><text fill="rgb(0,0,0)" stroke="none" font-family="Avenir, Helvetica, Arial, sans-serif" font-size="32px" font-style="normal" font-weight="bold" text-decoration="normal" x="1103.0000007152557" y="2704.600004291535" text-anchor="middle" dominant-baseline="text-after-edge" fill-opacity="1">network_id</text><path fill="rgb(225,240,255)" stroke="rgb(29,122,218)" paint-order="fill stroke markers" d=" M 500 2782.6000050067905 L 766 2782.6000050067905 L 766 2782.6000050067905 A 8 8 0 0 1 774 2790.6000050067905 L 774 2852.6000050067905 L 774 2852.6000050067905 A 8 8 0 0 1 766 2860.6000050067905 L 234 2860.6000050067905 L 234 2860.6000050067905 A 8 8 0 0 1 226 2852.6000050067905 L 226 2790.6000050067905 L 226 2790.6000050067905 A 8 8 0 0 1 234 2782.6000050067905 L 500 2782.6000050067905 Z" fill-opacity="1" stroke-opacity="1" stroke-miterlimit="10" stroke-width="5"/><text fill="rgb(0,0,0)" stroke="none" font-family="Avenir, Helvetica, Arial, sans-serif" font-size="32px" font-style="normal" font-weight="bold" text-decoration="normal" x="500" y="2837.6000050067905" text-anchor="middle" dominant-baseline="text-after-edge" fill-opacity="1">name</text><path fill="rgb(225,240,255)" stroke="rgb(29,122,218)" paint-order="fill stroke markers" d=" M 1103.0000007152557 2782.6000050067905 L 1369.0000007152557 2782.6000050067905 L 1369.0000007152557 2782.6000050067905 A 8 8 0 0 1 1377.0000007152557 2790.6000050067905 L 1377.0000007152557 2852.6000050067905 L 1377.0000007152557 2852.6000050067905 A 8 8 0 0 1 1369.0000007152557 2860.6000050067905 L 837.0000007152557 2860.6000050067905 L 837.0000007152557 2860.6000050067905 A 8 8 0 0 1 829.0000007152557 2852.6000050067905 L 829.0000007152557 2790.6000050067905 L 829.0000007152557 2790.6000050067905 A 8 8 0 0 1 837.0000007152557 2782.6000050067905 L 1103.0000007152557 2782.6000050067905 Z" fill-opacity="1" stroke-opacity="1" stroke-miterlimit="10" stroke-width="5"/><text fill="rgb(0,0,0)" stroke="none" font-family="Avenir, Helvetica, Arial, sans-serif" font-size="32px" font-style="normal" font-weight="bold" text-decoration="normal" x="1103.0000007152557" y="2837.6000050067905" text-anchor="middle" dominant-baseline="text-after-edge" fill-opacity="1">rebuild_protection</text><path fill="rgb(225,240,255)" stroke="rgb(29,122,218)" paint-order="fill stroke markers" d=" M 500 2915.6000057220463 L 766 2915.6000057220463 L 766 2915.6000057220463 A 8 8 0 0 1 774 2923.6000057220463 L 774 2985.6000057220463 L 774 2985.6000057220463 A 8 8 0 0 1 766 2993.6000057220463 L 234 2993.6000057220463 L 234 2993.6000057220463 A 8 8 0 0 1 226 2985.6000057220463 L 226 2923.6000057220463 L 226 2923.6000057220463 A 8 8 0 0 1 234 2915.6000057220463 L 500 2915.6000057220463 Z" fill-opacity="1" stroke-opacity="1" stroke-miterlimit="10" stroke-width="5"/><text fill="rgb(0,0,0)" stroke="none" font-family="Avenir, Helvetica, Arial, sans-serif" font-size="32px" font-style="normal" font-weight="bold" text-decoration="normal" x="500" y="2970.6000057220463" text-anchor="middle" dominant-baseline="text-after-edge" fill-opacity="1">ip</text><path fill="rgb(225,240,255)" stroke="rgb(29,122,218)" paint-order="fill stroke markers" d=" M 1103.0000007152557 2915.6000057220463 L 1369.0000007152557 2915.6000057220463 L 1369.0000007152557 2915.6000057220463 A 8 8 0 0 1 1377.0000007152557 2923.6000057220463 L 1377.0000007152557 2985.6000057220463 L 1377.0000007152557 2985.6000057220463 A 8 8 0 0 1 1369.0000007152557 2993.6000057220463 L 837.0000007152557 2993.6000057220463 L 837.0000007152557 2993.6000057220463 A 8 8 0 0 1 829.0000007152557 2985.6000057220463 L 829.0000007152557 2923.6000057220463 L 829.0000007152557 2923.6000057220463 A 8 8 0 0 1 837.0000007152557 2915.6000057220463 L 1103.0000007152557 2915.6000057220463 Z" fill-opacity="1" stroke-opacity="1" stroke-miterlimit="10" stroke-width="5"/><text fill="rgb(0,0,0)" stroke="none" font-family="Avenir, Helvetica, Arial, sans-serif" font-size="32px" font-style="normal" font-weight="bold" text-decoration="normal" x="1103.0000007152557" y="2970.6000057220463" text-anchor="middle" dominant-baseline="text-after-edge" fill-opacity="1">alias_ips</text><path fill="rgb(225,240,255)" stroke="rgb(29,122,218)" paint-order="fill stroke markers" d=" M 500 3048.600006437302 L 766 3048.600006437302 L 766 3048.600006437302 A 8 8 0 0 1 774 3056.600006437302 L 774 3118.600006437302 L 774 3118.600006437302 A 8 8 0 0 1 766 3126.600006437302 L 234 3126.600006437302 L 234 3126.600006437302 A 8 8 0 0 1 226 3118.600006437302 L 226 3056.600006437302 L 226 3056.600006437302 A 8 8 0 0 1 234 3048.600006437302 L 500 3048.600006437302 Z" fill-opacity="1" stroke-opacity="1" stroke-miterlimit="10" stroke-width="5"/><text fill="rgb(0,0,0)" stroke="none" font-family="Avenir, Helvetica, Arial, sans-serif" font-size="32px" font-style="normal" font-weight="bold" text-decoration="normal" x="500" y="3103.600006437302" text-anchor="middle" dominant-baseline="text-after-edge" fill-opacity="1">create_server_network</text><path fill="rgb(225,240,255)" stroke="rgb(29,122,218)" paint-order="fill stroke markers" d=" M 1103.0000007152557 3048.600006437302 L 1369.0000007152557 3048.600006437302 L 1369.0000007152557 3048.600006437302 A 8 8 0 0 1 1377.0000007152557 3056.600006437302 L 1377.0000007152557 3118.600006437302 L 1377.0000007152557 3118.600006437302 A 8 8 0 0 1 1369.0000007152557 3126.600006437302 L 837.0000007152557 3126.600006437302 L 837.0000007152557 3126.600006437302 A 8 8 0 0 1 829.0000007152557 3118.600006437302 L 829.0000007152557 3056.600006437302 L 829.0000007152557 3056.600006437302 A 8 8 0 0 1 837.0000007152557 3048.600006437302 L 1103.0000007152557 3048.600006437302 Z" fill-opacity="1" stroke-opacity="1" stroke-miterlimit="10" stroke-width="5"/><text fill="rgb(0,0,0)" stroke="none" font-family="Avenir, Helvetica, Arial, sans-serif" font-size="32px" font-style="normal" font-weight="bold" text-decoration="normal" x="1103.0000007152557" y="3103.600006437302" text-anchor="middle" dominant-baseline="text-after-edge" fill-opacity="1">ssh_keys</text><path fill="rgb(225,240,255)" stroke="rgb(29,122,218)" paint-order="fill stroke markers" d=" M 500 3181.6000071525577 L 766 3181.6000071525577 L 766 3181.6000071525577 A 8 8 0 0 1 774 3189.6000071525577 L 774 3251.6000071525577 L 774 3251.6000071525577 A 8 8 0 0 1 766 3259.6000071525577 L 234 3259.6000071525577 L 234 3259.6000071525577 A 8 8 0 0 1 226 3251.6000071525577 L 226 3189.6000071525577 L 226 3189.6000071525577 A 8 8 0 0 1 234 3181.6000071525577 L 500 3181.6000071525577 Z" fill-opacity="1" stroke-opacity="1" stroke-miterlimit="10" stroke-width="5"/><text fill="rgb(0,0,0)" stroke="none" font-family="Avenir, Helvetica, Arial, sans-serif" font-size="32px" font-style="normal" font-weight="bold" text-decoration="normal" x="500" y="3236.6000071525577" text-anchor="middle" dominant-baseline="text-after-edge" fill-opacity="1">backups</text><path fill="rgb(225,240,255)" stroke="rgb(29,122,218)" paint-order="fill stroke markers" d=" M 1103.0000007152557 3181.6000071525577 L 1369.0000007152557 3181.6000071525577 L 1369.0000007152557 3181.6000071525577 A 8 8 0 0 1 1377.0000007152557 3189.6000071525577 L 1377.0000007152557 3251.6000071525577 L 1377.0000007152557 3251.6000071525577 A 8 8 0 0 1 1369.0000007152557 3259.6000071525577 L 837.0000007152557 3259.6000071525577 L 837.0000007152557 3259.6000071525577 A 8 8 0 0 1 829.0000007152557 3251.6000071525577 L 829.0000007152557 3189.6000071525577 L 829.0000007152557 3189.6000071525577 A 8 8 0 0 1 837.0000007152557 3181.6000071525577 L 1103.0000007152557 3181.6000071525577 Z" fill-opacity="1" stroke-opacity="1" stroke-miterlimit="10" stroke-width="5"/><text fill="rgb(0,0,0)" stroke="none" font-family="Avenir, Helvetica, Arial, sans-serif" font-size="32px" font-style="normal" font-weight="bold" text-decoration="normal" x="1103.0000007152557" y="3236.6000071525577" text-anchor="middle" dominant-baseline="text-after-edge" fill-opacity="1">image</text><path fill="rgb(225,240,255)" stroke="rgb(29,122,218)" paint-order="fill stroke markers" d=" M 500 3314.6000078678135 L 766 3314.6000078678135 L 766 3314.6000078678135 A 8 8 0 0 1 774 3322.6000078678135 L 774 3384.6000078678135 L 774 3384.6000078678135 A 8 8 0 0 1 766 3392.6000078678135 L 234 3392.6000078678135 L 234 3392.6000078678135 A 8 8 0 0 1 226 3384.6000078678135 L 226 3322.6000078678135 L 226 3322.6000078678135 A 8 8 0 0 1 234 3314.6000078678135 L 500 3314.6000078678135 Z" fill-opacity="1" stroke-opacity="1" stroke-miterlimit="10" stroke-width="5"/><text fill="rgb(0,0,0)" stroke="none" font-family="Avenir, Helvetica, Arial, sans-serif" font-size="32px" font-style="normal" font-weight="bold" text-decoration="normal" x="500" y="3369.6000078678135" text-anchor="middle" dominant-baseline="text-after-edge" fill-opacity="1">keep_disk</text><path fill="rgb(225,240,255)" stroke="rgb(29,122,218)" paint-order="fill stroke markers" d=" M 1103.0000007152557 3314.6000078678135 L 1369.0000007152557 3314.6000078678135 L 1369.0000007152557 3314.6000078678135 A 8 8 0 0 1 1377.0000007152557 3322.6000078678135 L 1377.0000007152557 3384.6000078678135 L 1377.0000007152557 3384.6000078678135 A 8 8 0 0 1 1369.0000007152557 3392.6000078678135 L 837.0000007152557 3392.6000078678135 L 837.0000007152557 3392.6000078678135 A 8 8 0 0 1 829.0000007152557 3384.6000078678135 L 829.0000007152557 3322.6000078678135 L 829.0000007152557 3322.6000078678135 A 8 8 0 0 1 837.0000007152557 3314.6000078678135 L 1103.0000007152557 3314.6000078678135 Z" fill-opacity="1" stroke-opacity="1" stroke-miterlimit="10" stroke-width="5"/><text fill="rgb(0,0,0)" stroke="none" font-family="Avenir, Helvetica, Arial, sans-serif" font-size="32px" font-style="normal" font-weight="bold" text-decoration="normal" x="1103.0000007152557" y="3369.6000078678135" text-anchor="middle" dominant-baseline="text-after-edge" fill-opacity="1">server_type</text><path fill="rgb(225,240,255)" stroke="rgb(29,122,218)" paint-order="fill stroke markers" d=" M 500 3447.600008583069 L 766 3447.600008583069 L 766 3447.600008583069 A 8 8 0 0 1 774 3455.600008583069 L 774 3517.600008583069 L 774 3517.600008583069 A 8 8 0 0 1 766 3525.600008583069 L 234 3525.600008583069 L 234 3525.600008583069 A 8 8 0 0 1 226 3517.600008583069 L 226 3455.600008583069 L 226 3455.600008583069 A 8 8 0 0 1 234 3447.600008583069 L 500 3447.600008583069 Z" fill-opacity="1" stroke-opacity="1" stroke-miterlimit="10" stroke-width="5"/><text fill="rgb(0,0,0)" stroke="none" font-family="Avenir, Helvetica, Arial, sans-serif" font-size="32px" font-style="normal" font-weight="bold" text-decoration="normal" x="500" y="3502.600008583069" text-anchor="middle" dominant-baseline="text-after-edge" fill-opacity="1">rescue</text><path fill="rgb(225,240,255)" stroke="rgb(29,122,218)" paint-order="fill stroke markers" d=" M 1103.0000007152557 3447.600008583069 L 1369.0000007152557 3447.600008583069 L 1369.0000007152557 3447.600008583069 A 8 8 0 0 1 1377.0000007152557 3455.600008583069 L 1377.0000007152557 3517.600008583069 L 1377.0000007152557 3517.600008583069 A 8 8 0 0 1 1369.0000007152557 3525.600008583069 L 837.0000007152557 3525.600008583069 L 837.0000007152557 3525.600008583069 A 8 8 0 0 1 829.0000007152557 3517.600008583069 L 829.0000007152557 3455.600008583069 L 829.0000007152557 3455.600008583069 A 8 8 0 0 1 837.0000007152557 3447.600008583069 L 1103.0000007152557 3447.600008583069 Z" fill-opacity="1" stroke-opacity="1" stroke-miterlimit="10" stroke-width="5"/><text fill="rgb(0,0,0)" stroke="none" font-family="Avenir, Helvetica, Arial, sans-serif" font-size="32px" font-style="normal" font-weight="bold" text-decoration="normal" x="1103.0000007152557" y="3502.600008583069" text-anchor="middle" dominant-baseline="text-after-edge" fill-opacity="1">firewall_ids</text><path fill="rgb(225,240,255)" stroke="rgb(29,122,218)" paint-order="fill stroke markers" d=" M 500 3580.600009298325 L 766 3580.600009298325 L 766 3580.600009298325 A 8 8 0 0 1 774 3588.600009298325 L 774 3650.600009298325 L 774 3650.600009298325 A 8 8 0 0 1 766 3658.600009298325 L 234 3658.600009298325 L 234 3658.600009298325 A 8 8 0 0 1 226 3650.600009298325 L 226 3588.600009298325 L 226 3588.600009298325 A 8 8 0 0 1 234 3580.600009298325 L 500 3580.600009298325 Z" fill-opacity="1" stroke-opacity="1" stroke-miterlimit="10" stroke-width="5"/><text fill="rgb(0,0,0)" stroke="none" font-family="Avenir, Helvetica, Arial, sans-serif" font-size="32px" font-style="normal" font-weight="bold" text-decoration="normal" x="500" y="3635.600009298325" text-anchor="middle" dominant-baseline="text-after-edge" fill-opacity="1">iso</text><path fill="rgb(225,240,255)" stroke="rgb(29,122,218)" paint-order="fill stroke markers" d=" M 1103.0000007152557 3580.600009298325 L 1369.0000007152557 3580.600009298325 L 1369.0000007152557 3580.600009298325 A 8 8 0 0 1 1377.0000007152557 3588.600009298325 L 1377.0000007152557 3650.600009298325 L 1377.0000007152557 3650.600009298325 A 8 8 0 0 1 1369.0000007152557 3658.600009298325 L 837.0000007152557 3658.600009298325 L 837.0000007152557 3658.600009298325 A 8 8 0 0 1 829.0000007152557 3650.600009298325 L 829.0000007152557 3588.600009298325 L 829.0000007152557 3588.600009298325 A 8 8 0 0 1 837.0000007152557 3580.600009298325 L 1103.0000007152557 3580.600009298325 Z" fill-opacity="1" stroke-opacity="1" stroke-miterlimit="10" stroke-width="5"/><text fill="rgb(0,0,0)" stroke="none" font-family="Avenir, Helvetica, Arial, sans-serif" font-size="32px" font-style="normal" font-weight="bold" text-decoration="normal" x="1103.0000007152557" y="3635.600009298325" text-anchor="middle" dominant-baseline="text-after-edge" fill-opacity="1">delete_protection</text><path fill="rgb(225,240,255)" stroke="rgb(29,122,218)" paint-order="fill stroke markers" d=" M 500 3713.6000100135807 L 766 3713.6000100135807 L 766 3713.6000100135807 A 8 8 0 0 1 774 3721.6000100135807 L 774 3783.6000100135807 L 774 3783.6000100135807 A 8 8 0 0 1 766 3791.6000100135807 L 234 3791.6000100135807 L 234 3791.6000100135807 A 8 8 0 0 1 226 3783.6000100135807 L 226 3721.6000100135807 L 226 3721.6000100135807 A 8 8 0 0 1 234 3713.6000100135807 L 500 3713.6000100135807 Z" fill-opacity="1" stroke-opacity="1" stroke-miterlimit="10" stroke-width="5"/><text fill="rgb(0,0,0)" stroke="none" font-family="Avenir, Helvetica, Arial, sans-serif" font-size="32px" font-style="normal" font-weight="bold" text-decoration="normal" x="500" y="3768.6000100135807" text-anchor="middle" dominant-baseline="text-after-edge" fill-opacity="1">location</text><path fill="rgb(225,240,255)" stroke="rgb(29,122,218)" paint-order="fill stroke markers" d=" M 1103.0000007152557 3713.6000100135807 L 1369.0000007152557 3713.6000100135807 L 1369.0000007152557 3713.6000100135807 A 8 8 0 0 1 1377.0000007152557 3721.6000100135807 L 1377.0000007152557 3783.6000100135807 L 1377.0000007152557 3783.6000100135807 A 8 8 0 0 1 1369.0000007152557 3791.6000100135807 L 837.0000007152557 3791.6000100135807 L 837.0000007152557 3791.6000100135807 A 8 8 0 0 1 829.0000007152557 3783.6000100135807 L 829.0000007152557 3721.6000100135807 L 829.0000007152557 3721.6000100135807 A 8 8 0 0 1 837.0000007152557 3713.6000100135807 L 1103.0000007152557 3713.6000100135807 Z" fill-opacity="1" stroke-opacity="1" stroke-miterlimit="10" stroke-width="5"/><text fill="rgb(0,0,0)" stroke="none" font-family="Avenir, Helvetica, Arial, sans-serif" font-size="32px" font-style="normal" font-weight="bold" text-decoration="normal" x="1103.0000007152557" y="3768.6000100135807" text-anchor="middle" dominant-baseline="text-after-edge" fill-opacity="1">datacenter</text><path fill="rgb(225,240,255)" stroke="rgb(29,122,218)" paint-order="fill stroke markers" d=" M 500 3846.6000107288364 L 766 3846.6000107288364 L 766 3846.6000107288364 A 8 8 0 0 1 774 3854.6000107288364 L 774 3916.6000107288364 L 774 3916.6000107288364 A 8 8 0 0 1 766 3924.6000107288364 L 234 3924.6000107288364 L 234 3924.6000107288364 A 8 8 0 0 1 226 3916.6000107288364 L 226 3854.6000107288364 L 226 3854.6000107288364 A 8 8 0 0 1 234 3846.6000107288364 L 500 3846.6000107288364 Z" fill-opacity="1" stroke-opacity="1" stroke-miterlimit="10" stroke-width="5"/><text fill="rgb(0,0,0)" stroke="none" font-family="Avenir, Helvetica, Arial, sans-serif" font-size="32px" font-style="normal" font-weight="bold" text-decoration="normal" x="500" y="3901.6000107288364" text-anchor="middle" dominant-baseline="text-after-edge" fill-opacity="1">user_data</text><path fill="rgb(225,240,255)" stroke="rgb(29,122,218)" paint-order="fill stroke markers" d=" M 1103.0000007152557 3846.6000107288364 L 1369.0000007152557 3846.6000107288364 L 1369.0000007152557 3846.6000107288364 A 8 8 0 0 1 1377.0000007152557 3854.6000107288364 L 1377.0000007152557 3916.6000107288364 L 1377.0000007152557 3916.6000107288364 A 8 8 0 0 1 1369.0000007152557 3924.6000107288364 L 837.0000007152557 3924.6000107288364 L 837.0000007152557 3924.6000107288364 A 8 8 0 0 1 829.0000007152557 3916.6000107288364 L 829.0000007152557 3854.6000107288364 L 829.0000007152557 3854.6000107288364 A 8 8 0 0 1 837.0000007152557 3846.6000107288364 L 1103.0000007152557 3846.6000107288364 Z" fill-opacity="1" stroke-opacity="1" stroke-miterlimit="10" stroke-width="5"/><text fill="rgb(0,0,0)" stroke="none" font-family="Avenir, Helvetica, Arial, sans-serif" font-size="32px" font-style="normal" font-weight="bold" text-decoration="normal" x="1103.0000007152557" y="3901.6000107288364" text-anchor="middle" dominant-baseline="text-after-edge" fill-opacity="1">labels</text><path fill="rgb(40,167,69)" stroke="none" paint-order="stroke fill markers" d=" M 1703.0000007152557 1921.2000035762787 L 1969.0000007152557 1921.2000035762787 L 1969.0000007152557 1921.2000035762787 A 8 8 0 0 1 1977.0000007152557 1929.2000035762787 L 1977.0000007152557 1991.2000035762787 L 1977.0000007152557 1991.2000035762787 A 8 8 0 0 1 1969.0000007152557 1999.2000035762787 L 1437.0000007152557 1999.2000035762787 L 1437.0000007152557 1999.2000035762787 A 8 8 0 0 1 1429.0000007152557 1991.2000035762787 L 1429.0000007152557 1929.2000035762787 L 1429.0000007152557 1929.2000035762787 A 8 8 0 0 1 1437.0000007152557 1921.2000035762787 L 1703.0000007152557 1921.2000035762787 Z" fill-opacity="1"/><text fill="rgb(255,255,255)" stroke="none" font-family="Avenir, Helvetica, Arial, sans-serif" font-size="32px" font-style="normal" font-weight="bold" text-decoration="normal" x="1703.0000007152557" y="1976.2000035762787" text-anchor="middle" dominant-baseline="text-after-edge" fill-opacity="1">default[0]</text><path fill="rgb(40,167,69)" stroke="none" paint-order="stroke fill markers" d=" M 1603.0000007152557 1493.000002861023 L 1869.0000007152557 1493.000002861023 L 1869.0000007152557 1493.000002861023 A 8 8 0 0 1 1877.0000007152557 1501.000002861023 L 1877.0000007152557 1563.000002861023 L 1877.0000007152557 1563.000002861023 A 8 8 0 0 1 1869.0000007152557 1571.000002861023 L 1337.0000007152557 1571.000002861023 L 1337.0000007152557 1571.000002861023 A 8 8 0 0 1 1329.0000007152557 1563.000002861023 L 1329.0000007152557 1501.000002861023 L 1329.0000007152557 1501.000002861023 A 8 8 0 0 1 1337.0000007152557 1493.000002861023 L 1603.0000007152557 1493.000002861023 Z" fill-opacity="1"/><text fill="rgb(255,255,255)" stroke="none" font-family="Avenir, Helvetica, Arial, sans-serif" font-size="32px" font-style="normal" font-weight="bold" text-decoration="normal" x="1603.0000007152557" y="1548.000002861023" text-anchor="middle" dominant-baseline="text-after-edge" fill-opacity="1">default</text><path fill="rgb(255,247,224)" stroke="rgb(255,193,7)" paint-order="fill stroke markers" d=" M 500 1393.000002861023 L 766 1393.000002861023 L 766 1393.000002861023 A 8 8 0 0 1 774 1401.000002861023 L 774 1463.000002861023 L 774 1463.000002861023 A 8 8 0 0 1 766 1471.000002861023 L 234 1471.000002861023 L 234 1471.000002861023 A 8 8 0 0 1 226 1463.000002861023 L 226 1401.000002861023 L 226 1401.000002861023 A 8 8 0 0 1 234 1393.000002861023 L 500 1393.000002861023 Z" fill-opacity="1" stroke-opacity="1" stroke-miterlimit="10" stroke-width="5"/><text fill="rgb(0,0,0)" stroke="none" font-family="Avenir, Helvetica, Arial, sans-serif" font-size="32px" font-style="normal" font-weight="bold" text-decoration="normal" x="500" y="1448.000002861023" text-anchor="middle" dominant-baseline="text-after-edge" fill-opacity="1">ipv4_address_public</text><path fill="rgb(255,247,224)" stroke="rgb(255,193,7)" paint-order="fill stroke markers" d=" M 500 1526.0000035762787 L 766 1526.0000035762787 L 766 1526.0000035762787 A 8 8 0 0 1 774 1534.0000035762787 L 774 1596.0000035762787 L 774 1596.0000035762787 A 8 8 0 0 1 766 1604.0000035762787 L 234 1604.0000035762787 L 234 1604.0000035762787 A 8 8 0 0 1 226 1596.0000035762787 L 226 1534.0000035762787 L 226 1534.0000035762787 A 8 8 0 0 1 234 1526.0000035762787 L 500 1526.0000035762787 Z" fill-opacity="1" stroke-opacity="1" stroke-miterlimit="10" stroke-width="5"/><text fill="rgb(0,0,0)" stroke="none" font-family="Avenir, Helvetica, Arial, sans-serif" font-size="32px" font-style="normal" font-weight="bold" text-decoration="normal" x="500" y="1581.0000035762787" text-anchor="middle" dominant-baseline="text-after-edge" fill-opacity="1">ipv4_address_private</text><path fill="rgb(255,247,224)" stroke="rgb(255,193,7)" paint-order="fill stroke markers" d=" M 500 1659.0000042915344 L 766 1659.0000042915344 L 766 1659.0000042915344 A 8 8 0 0 1 774 1667.0000042915344 L 774 1729.0000042915344 L 774 1729.0000042915344 A 8 8 0 0 1 766 1737.0000042915344 L 234 1737.0000042915344 L 234 1737.0000042915344 A 8 8 0 0 1 226 1729.0000042915344 L 226 1667.0000042915344 L 226 1667.0000042915344 A 8 8 0 0 1 234 1659.0000042915344 L 500 1659.0000042915344 Z" fill-opacity="1" stroke-opacity="1" stroke-miterlimit="10" stroke-width="5"/><text fill="rgb(0,0,0)" stroke="none" font-family="Avenir, Helvetica, Arial, sans-serif" font-size="32px" font-style="normal" font-weight="bold" text-decoration="normal" x="500" y="1714.0000042915344" text-anchor="middle" dominant-baseline="text-after-edge" fill-opacity="1">id</text><path fill="rgb(255,247,224)" stroke="rgb(255,193,7)" paint-order="fill stroke markers" d=" M 500 1792.0000050067902 L 766 1792.0000050067902 L 766 1792.0000050067902 A 8 8 0 0 1 774 1800.0000050067902 L 774 1862.0000050067902 L 774 1862.0000050067902 A 8 8 0 0 1 766 1870.0000050067902 L 234 1870.0000050067902 L 234 1870.0000050067902 A 8 8 0 0 1 226 1862.0000050067902 L 226 1800.0000050067902 L 226 1800.0000050067902 A 8 8 0 0 1 234 1792.0000050067902 L 500 1792.0000050067902 Z" fill-opacity="1" stroke-opacity="1" stroke-miterlimit="10" stroke-width="5"/><text fill="rgb(0,0,0)" stroke="none" font-family="Avenir, Helvetica, Arial, sans-serif" font-size="32px" font-style="normal" font-weight="bold" text-decoration="normal" x="500" y="1847.0000050067902" text-anchor="middle" dominant-baseline="text-after-edge" fill-opacity="1">name</text><path fill="rgb(0,0,0)" stroke="rgb(0,0,0)" paint-order="fill stroke markers" d=" M 3509.200002145767 261 L 3775.200002145767 261 L 3775.200002145767 261 A 8 8 0 0 1 3783.200002145767 269 L 3783.200002145767 331 L 3783.200002145767 331 A 8 8 0 0 1 3775.200002145767 339 L 3243.200002145767 339 L 3243.200002145767 339 A 8 8 0 0 1 3235.200002145767 331 L 3235.200002145767 269 L 3235.200002145767 269 A 8 8 0 0 1 3243.200002145767 261 L 3509.200002145767 261 Z" fill-opacity="1" stroke-opacity="1" stroke-miterlimit="10" stroke-width="5"/><text fill="rgb(255,255,255)" stroke="none" font-family="Avenir, Helvetica, Arial, sans-serif" font-size="32px" font-style="normal" font-weight="bold" text-decoration="normal" x="3509.200002145767" y="316" text-anchor="middle" dominant-baseline="text-after-edge" fill-opacity="1">image</text><path fill="rgb(0,0,0)" stroke="rgb(0,0,0)" paint-order="fill stroke markers" d=" M 3509.200002145767 394.00000071525574 L 3775.200002145767 394.00000071525574 L 3775.200002145767 394.00000071525574 A 8 8 0 0 1 3783.200002145767 402.00000071525574 L 3783.200002145767 464.00000071525574 L 3783.200002145767 464.00000071525574 A 8 8 0 0 1 3775.200002145767 472.00000071525574 L 3243.200002145767 472.00000071525574 L 3243.200002145767 472.00000071525574 A 8 8 0 0 1 3235.200002145767 464.00000071525574 L 3235.200002145767 402.00000071525574 L 3235.200002145767 402.00000071525574 A 8 8 0 0 1 3243.200002145767 394.00000071525574 L 3509.200002145767 394.00000071525574 Z" fill-opacity="1" stroke-opacity="1" stroke-miterlimit="10" stroke-width="5"/><text fill="rgb(255,255,255)" stroke="none" font-family="Avenir, Helvetica, Arial, sans-serif" font-size="32px" font-style="normal" font-weight="bold" text-decoration="normal" x="3509.200002145767" y="449.00000071525574" text-anchor="middle" dominant-baseline="text-after-edge" fill-opacity="1">server_name</text><path fill="rgb(0,0,0)" stroke="rgb(0,0,0)" paint-order="fill stroke markers" d=" M 3509.200002145767 527.0000014305115 L 3775.200002145767 527.0000014305115 L 3775.200002145767 527.0000014305115 A 8 8 0 0 1 3783.200002145767 535.0000014305115 L 3783.200002145767 597.0000014305115 L 3783.200002145767 597.0000014305115 A 8 8 0 0 1 3775.200002145767 605.0000014305115 L 3243.200002145767 605.0000014305115 L 3243.200002145767 605.0000014305115 A 8 8 0 0 1 3235.200002145767 597.0000014305115 L 3235.200002145767 535.0000014305115 L 3235.200002145767 535.0000014305115 A 8 8 0 0 1 3243.200002145767 527.0000014305115 L 3509.200002145767 527.0000014305115 Z" fill-opacity="1" stroke-opacity="1" stroke-miterlimit="10" stroke-width="5"/><text fill="rgb(255,255,255)" stroke="none" font-family="Avenir, Helvetica, Arial, sans-serif" font-size="32px" font-style="normal" font-weight="bold" text-decoration="normal" x="3509.200002145767" y="582.0000014305115" text-anchor="middle" dominant-baseline="text-after-edge" fill-opacity="1">server_type</text><path fill="rgb(0,0,0)" stroke="rgb(0,0,0)" paint-order="fill stroke markers" d=" M 3509.200002145767 660.0000021457672 L 3775.200002145767 660.0000021457672 L 3775.200002145767 660.0000021457672 A 8 8 0 0 1 3783.200002145767 668.0000021457672 L 3783.200002145767 730.0000021457672 L 3783.200002145767 730.0000021457672 A 8 8 0 0 1 3775.200002145767 738.0000021457672 L 3243.200002145767 738.0000021457672 L 3243.200002145767 738.0000021457672 A 8 8 0 0 1 3235.200002145767 730.0000021457672 L 3235.200002145767 668.0000021457672 L 3235.200002145767 668.0000021457672 A 8 8 0 0 1 3243.200002145767 660.0000021457672 L 3509.200002145767 660.0000021457672 Z" fill-opacity="1" stroke-opacity="1" stroke-miterlimit="10" stroke-width="5"/><text fill="rgb(255,255,255)" stroke="none" font-family="Avenir, Helvetica, Arial, sans-serif" font-size="32px" font-style="normal" font-weight="bold" text-decoration="normal" x="3509.200002145767" y="715.0000021457672" text-anchor="middle" dominant-baseline="text-after-edge" fill-opacity="1">create_server_network</text><g transform="scale(5,5) translate(-57.7,-10.100000000000001)"/></g></svg>